<?xml version="1.0" standalone="no"?>
<!DOCTYPE svg PUBLIC "-//W3C//DTD SVG 20010904//EN"
 "http://www.w3.org/TR/2001/REC-SVG-20010904/DTD/svg10.dtd">
<?xml-stylesheet type="text/css" href="../svg.css" ?>
<svg version="1.0" xmlns="http://www.w3.org/2000/svg"
 width="1312.000000pt" height="724.000000pt" viewBox="0 0 1312.000000 724.000000"
 preserveAspectRatio="xMidYMid meet">
<metadata>
Created by potrace 1.13, written by Peter Selinger 2001-2015
</metadata>
<g transform="translate(0.000000,724.000000) scale(0.100000,-0.100000)"
fill="#000000" stroke="none">
<path d="M0 6867 c0 -19 6 -38 13 -40 10 -4 10 -6 0 -6 -8 -1 -13 -16 -13 -38
l0 -38 861 -330 c473 -181 865 -332 871 -334 6 -2 8 8 4 26 -7 29 -5 30 51 48
102 31 110 35 93 45 -8 4 -427 161 -930 348 -503 187 -923 343 -932 347 -15 6
-18 1 -18 -28z"/>
<path d="M1791 6082 c-1 -16 -5 -21 -13 -16 -7 4 -4 -2 7 -13 11 -11 26 -18
33 -15 6 2 12 -1 12 -8 0 -6 5 -8 10 -5 13 8 40 -13 40 -30 0 -10 -13 -8 -51
6 -28 11 -48 15 -45 10 4 -5 29 -17 57 -26 45 -15 50 -20 46 -41 -2 -13 -1
-24 3 -24 4 0 10 -9 13 -20 3 -11 1 -20 -5 -20 -5 0 -2 -7 6 -16 34 -34 14
-44 -35 -18 -17 8 -36 13 -42 10 -7 -2 -4 -5 6 -5 9 -1 17 -6 17 -12 0 -5 4
-8 9 -4 5 3 12 1 16 -5 3 -5 14 -10 25 -10 10 0 21 -7 24 -16 9 -22 8 -24 -9
-24 -8 0 -15 5 -15 11 0 5 -4 8 -9 4 -5 -3 -12 -1 -16 5 -3 5 -16 10 -28 10
-14 -1 -2 -10 33 -24 52 -23 80 -56 46 -56 -9 0 -16 8 -16 18 0 13 -2 14 -9 3
-7 -11 -11 -10 -20 5 -11 16 -11 15 -6 -10 3 -16 2 -32 -2 -35 -5 -3 -1 -14
10 -25 19 -18 19 -17 12 13 -4 18 -3 31 3 31 5 0 13 -19 17 -42 4 -24 9 -37
12 -30 7 19 30 14 36 -9 5 -18 2 -20 -18 -15 -19 5 -23 3 -19 -8 3 -8 12 -12
21 -9 8 3 19 0 24 -8 13 -20 11 -29 -6 -29 -8 0 -15 5 -15 11 0 5 -4 8 -9 4
-5 -3 -12 -1 -16 5 -3 5 -16 10 -28 10 -16 0 -11 -5 18 -20 22 -11 45 -20 52
-20 22 0 28 -31 9 -42 -14 -8 -16 -18 -11 -44 3 -19 2 -34 -3 -34 -5 0 -12 19
-16 42 -5 29 -10 38 -15 29 -5 -8 -14 -10 -21 -6 -9 5 -11 4 -6 -3 4 -7 14
-12 23 -12 11 0 14 -7 11 -25 -3 -14 -1 -25 3 -25 5 0 9 -8 9 -17 0 -13 5 -11
18 10 20 32 38 35 45 7 3 -11 1 -20 -5 -20 -5 0 -2 -7 6 -16 19 -18 21 -38 4
-31 -7 3 -31 13 -53 22 -40 17 -40 17 -20 -3 11 -10 26 -17 33 -14 6 2 12 -2
12 -9 0 -7 3 -9 6 -6 13 13 46 -14 41 -33 -3 -11 -1 -20 3 -22 4 -2 10 -20 14
-40 5 -30 4 -38 -8 -38 -8 0 -16 8 -19 18 -2 9 -4 0 -3 -20 1 -21 6 -40 12
-42 8 -3 10 3 6 16 -3 15 -1 19 9 16 8 -3 14 -15 13 -27 0 -14 5 -21 18 -21
15 0 18 5 13 21 -5 15 -3 20 6 17 7 -2 16 -15 20 -29 7 -22 7 -22 8 -2 2 33
-9 52 -25 46 -7 -3 -17 2 -20 11 -8 21 4 35 15 17 6 -9 11 -10 15 -2 4 6 -3
15 -17 20 -30 12 -35 29 -138 451 -45 184 -86 340 -91 345 -7 7 -8 1 -4 -18
l6 -27 -32 13 c-19 8 -35 23 -39 38 -7 24 -7 24 -8 1z"/>
<path d="M1971 6015 c0 -11 2 -31 6 -43 4 -18 8 -21 15 -10 8 10 11 10 15 0 2
-6 9 -9 14 -6 12 7 39 -14 39 -31 0 -10 -13 -8 -52 7 -52 19 -53 19 -33 0 11
-11 23 -18 26 -16 4 2 21 -1 39 -7 26 -10 31 -16 27 -35 -2 -13 -1 -24 3 -24
4 0 10 -9 13 -20 7 -28 -21 -26 -33 3 -5 12 -9 16 -9 10 -1 -20 -21 -15 -21 5
0 13 -2 14 -9 3 -5 -7 -14 -10 -20 -7 -6 4 -11 2 -11 -3 0 -6 7 -11 15 -11 18
0 32 -29 18 -39 -5 -3 -1 -14 10 -24 18 -18 18 -17 11 19 -5 26 -4 35 5 30 6
-4 11 -16 11 -26 0 -33 11 -48 30 -43 21 5 22 1 45 -107 22 -102 22 -103 30
-123 7 -17 5 -17 -26 -4 -32 13 -53 47 -30 47 6 0 11 -8 11 -17 0 -15 2 -16
10 -3 6 9 5 17 -2 21 -6 4 -8 16 -5 28 3 12 1 21 -4 21 -5 0 -9 8 -10 18 0 10
-3 12 -6 5 -7 -19 -23 -16 -24 5 0 9 -3 12 -5 5 -3 -7 -13 -10 -22 -7 -9 2 -7
-1 5 -7 15 -8 23 -25 28 -56 9 -62 14 -73 31 -66 8 3 14 0 14 -7 0 -6 5 -8 10
-5 13 8 40 -13 40 -31 0 -10 -6 -10 -35 2 -43 17 -46 17 -39 0 3 -8 12 -12 20
-9 8 3 14 0 14 -6 0 -6 6 -8 13 -6 19 7 39 -10 35 -30 -3 -17 -5 -17 -18 -3
-8 8 -21 13 -28 10 -6 -2 -12 0 -12 5 0 5 -10 9 -21 10 -21 2 -21 1 -3 -11 10
-7 36 -19 57 -25 23 -8 37 -19 37 -29 0 -9 3 -27 6 -39 5 -17 2 -23 -11 -23
-13 0 -16 6 -13 25 3 14 1 25 -3 25 -5 0 -9 8 -9 18 0 13 -2 14 -9 3 -7 -11
-11 -10 -20 5 -9 17 -10 17 -11 2 0 -10 4 -18 10 -18 17 0 -1 -30 -19 -31 -11
0 -9 -3 7 -9 12 -5 22 -17 22 -26 0 -10 -5 -14 -16 -10 -8 3 -12 2 -9 -4 3 -6
12 -10 20 -10 7 0 15 -6 18 -12 2 -7 2 -1 0 15 -3 15 0 27 6 27 6 0 11 -9 11
-19 0 -33 11 -49 29 -44 12 3 20 -2 24 -16 3 -12 1 -21 -5 -21 -5 0 -2 -7 6
-16 25 -25 16 -49 -10 -25 -5 4 -24 13 -43 20 -34 11 -34 11 -15 -7 10 -11 25
-17 32 -14 6 2 12 -2 12 -9 0 -7 3 -9 6 -6 12 11 44 -13 44 -33 0 -11 5 -20
11 -20 8 0 10 14 6 45 -4 27 -3 45 3 45 9 0 14 -25 14 -72 0 -9 3 -15 7 -12 4
2 9 -2 12 -8 3 -7 4 -2 2 12 -1 14 -5 32 -9 41 -4 9 -6 20 -5 25 0 5 -2 20 -7
33 -7 23 -8 23 -14 6 -6 -17 -9 -15 -23 15 -12 28 -187 749 -187 774 0 3 -5 6
-11 6 -6 0 -9 -9 -6 -20 7 -28 -21 -26 -33 3 -8 20 -9 20 -9 3 -1 -24 -17 -11
-24 19 l-5 20 -1 -20z"/>
<path d="M2540 5933 c0 -36 12 -61 33 -72 l22 -11 -22 5 c-20 6 -21 4 -10 -46
l12 -51 618 -236 618 -237 -202 -98 c-112 -54 -212 -100 -224 -102 -12 -3
-165 54 -370 139 -192 78 -352 142 -353 140 -2 -1 1 -26 8 -56 l11 -53 292
-120 c272 -112 293 -122 307 -152 8 -18 18 -33 22 -33 3 0 78 35 166 78 124
60 159 74 157 60 -6 -27 -15 -38 -31 -38 -19 0 -13 -25 7 -26 8 0 22 -4 32 -9
10 -4 23 -2 31 4 16 13 49 4 43 -13 -2 -6 -21 -10 -43 -9 l-39 3 25 -20 c14
-11 32 -20 40 -20 10 -1 7 -5 -7 -12 -17 -8 -25 -7 -38 6 -18 17 -70 23 -60 6
3 -5 13 -10 21 -10 11 0 12 -4 4 -19 -13 -26 -13 -31 5 -31 11 0 14 -7 9 -25
-7 -28 2 -31 41 -13 20 9 28 9 33 0 5 -6 13 -8 21 -2 8 4 20 6 28 3 7 -3 13 0
13 6 0 6 7 8 16 4 11 -4 15 -2 12 7 -2 8 -26 20 -52 26 -51 13 -63 20 -52 31
3 4 12 1 18 -5 14 -14 88 -16 88 -3 0 15 -20 24 -50 23 -16 0 -27 5 -27 13 0
14 33 15 54 2 6 -4 15 -3 18 3 8 13 -12 40 -29 40 -6 0 -4 -5 4 -10 13 -8 13
-10 -1 -10 -9 0 -22 6 -28 14 -10 12 -8 16 10 21 20 7 20 8 5 17 -9 5 -25 6
-36 3 -11 -4 -20 -2 -20 4 0 6 -7 11 -16 11 -10 0 -14 -6 -11 -14 3 -8 -1 -17
-9 -20 -10 -4 -14 2 -14 19 0 22 4 25 34 25 19 0 46 -4 60 -10 14 -5 26 -8 26
-5 0 10 -49 55 -68 62 -19 7 -2 19 105 72 l128 63 114 -45 c63 -24 117 -49
119 -55 2 -6 -9 -23 -24 -37 -31 -29 -31 -30 14 -38 23 -5 34 -3 38 8 3 7 12
11 20 8 8 -3 14 1 14 11 0 23 -27 20 -35 -4 -4 -11 -11 -18 -16 -15 -16 10 10
45 34 45 32 0 89 -19 297 -99 102 -39 190 -71 197 -71 18 0 38 -40 21 -40 -9
-1 -9 -4 2 -13 8 -7 14 -22 12 -34 -2 -14 2 -23 10 -23 7 0 -11 -14 -40 -30
-48 -28 -54 -29 -80 -16 -23 12 -44 14 -86 7 -4 0 -6 -8 -2 -16 3 -8 1 -15 -4
-15 -6 0 -10 -6 -10 -14 0 -7 -9 -16 -20 -19 -25 -6 -27 -27 -2 -27 24 0 32 5
-637 -365 -325 -179 -597 -325 -605 -323 -23 5 -436 203 -436 208 0 3 34 23
76 43 l76 38 -6 41 c-4 23 -8 44 -11 47 -2 3 -87 44 -189 91 -102 47 -186 87
-186 90 0 3 45 28 100 55 65 32 100 55 99 65 -2 35 -16 65 -30 65 -19 0 -1069
467 -1069 475 0 3 55 28 123 55 67 27 124 50 126 52 3 2 -13 42 -26 62 -1 2
-104 -38 -228 -89 -139 -57 -222 -96 -213 -101 7 -4 254 -116 548 -249 294
-133 549 -249 565 -258 l30 -15 -139 -67 -139 -66 229 -108 c126 -59 232 -111
237 -115 4 -4 -45 -34 -108 -67 -63 -32 -115 -61 -115 -64 0 -3 253 -128 563
-278 309 -151 586 -286 616 -301 l54 -28 -57 -32 c-31 -18 -56 -36 -56 -40 0
-4 27 -20 61 -36 67 -32 53 -35 149 23 l35 21 730 -355 c402 -196 731 -357
732 -358 4 -3 -681 -521 -693 -524 -11 -3 -1454 767 -1477 788 -5 4 26 28 67
54 42 26 76 54 76 61 0 8 -5 37 -11 65 -9 40 -14 50 -27 45 -8 -3 -108 -62
-222 -131 l-206 -125 -385 212 c-211 117 -389 212 -395 212 -11 0 -492 -258
-507 -273 -5 -4 195 -128 444 -275 l452 -268 43 23 c23 13 53 32 66 43 26 21
11 14 -45 -21 -22 -13 -41 -22 -43 -19 -7 7 167 110 190 112 12 2 91 45 175
98 l153 94 87 -47 c1290 -712 5325 -2929 5326 -2928 16 23 699 964 701 966 1
2 220 -102 486 -231 266 -130 488 -237 495 -239 6 -2 266 418 583 942 315 520
574 947 575 948 2 2 405 -150 897 -338 491 -189 899 -345 906 -348 10 -3 12
12 10 69 l-3 73 -175 66 c-96 37 -489 185 -873 330 -383 145 -695 265 -693
267 3 3 393 -142 868 -321 476 -179 867 -326 871 -326 4 0 7 30 7 68 l0 67
-835 310 c-459 170 -835 313 -835 317 0 7 1406 2337 1419 2350 3 4 56 -6 116
-22 61 -17 116 -30 123 -30 10 0 12 17 10 67 l-3 67 -82 20 c-46 11 -83 23
-83 27 0 4 29 56 65 116 36 59 65 111 65 115 0 8 -299 80 -309 74 -4 -3 -41
-55 -81 -116 -40 -61 -78 -109 -84 -107 -6 3 -139 37 -296 76 -157 40 -302 77
-323 82 l-37 10 27 37 c15 20 24 34 19 31 -4 -4 -30 -1 -57 6 l-51 14 -30 -32
-30 -32 22 33 c25 37 33 32 -99 65 l-95 23 -25 -26 c-16 -16 -19 -17 -7 -3 11
13 17 26 14 29 -4 3 -42 14 -85 25 -43 11 -89 24 -103 29 -14 5 -36 12 -50 14
-14 3 -36 8 -50 11 -14 3 -36 8 -50 11 -14 2 -39 8 -55 13 -26 7 -35 4 -65
-23 l-35 -31 28 32 c32 34 30 36 -38 47 -28 5 -40 -4 -144 -108 l-114 -114 44
-12 c24 -6 48 -12 53 -14 5 -1 21 10 35 24 14 14 18 16 9 5 -24 -28 -23 -45 2
-40 11 2 20 0 20 -5 0 -5 9 -7 20 -5 11 2 20 -1 20 -8 0 -6 19 7 42 28 41 38
41 38 10 4 l-33 -36 63 -17 c35 -10 73 -18 86 -19 12 0 22 -4 22 -8 0 -5 9 -6
20 -4 11 2 20 -2 20 -8 1 -7 16 5 34 26 18 20 37 37 42 37 4 0 -7 -15 -25 -34
l-32 -33 60 -15 c46 -12 61 -13 61 -4 0 7 12 23 27 37 l27 24 -22 -32 c-27
-39 -28 -53 -2 -48 11 2 20 0 20 -5 0 -5 9 -7 20 -5 11 2 20 -1 20 -7 0 -6 2
-9 5 -6 3 3 34 -3 68 -12 l63 -18 23 34 c13 19 28 34 33 34 5 0 -2 -14 -16
-31 -31 -37 -33 -49 -6 -44 11 2 20 0 20 -5 0 -5 9 -7 20 -5 11 2 20 0 20 -6
0 -21 26 -7 49 26 13 19 28 35 33 35 5 0 -2 -14 -17 -31 -30 -36 -26 -42 30
-57 22 -6 63 -17 92 -25 l52 -15 27 39 c15 21 29 39 33 39 21 1 461 -116 461
-122 0 -4 -214 -330 -475 -723 -261 -394 -469 -713 -462 -710 6 4 3 -2 -9 -12
-11 -10 -19 -24 -16 -31 2 -6 -2 -12 -10 -12 -7 0 -130 -178 -273 -395 -143
-217 -264 -395 -269 -395 -20 0 -582 213 -606 230 -37 26 -91 47 -157 60 -32
7 -397 138 -811 292 -672 249 -755 278 -770 265 -22 -19 -48 -11 -31 9 7 8 10
16 8 18 -2 2 -183 70 -401 152 -219 81 -398 150 -398 153 0 4 115 102 255 220
140 117 257 217 260 221 6 10 -121 54 -138 47 -7 -2 -130 -101 -275 -219
l-263 -215 -281 105 -282 104 -33 -17 c-26 -14 -36 -16 -45 -7 -7 7 -18 12
-26 12 -21 0 -102 39 -102 50 0 5 7 13 16 18 13 7 -2 16 -60 37 -42 15 -79 31
-81 35 -3 4 123 99 280 210 157 111 285 204 285 207 0 2 -20 -10 -44 -27 -25
-16 -48 -30 -52 -30 -4 0 14 15 41 34 26 19 54 32 61 29 8 -3 14 0 14 6 0 6
-7 11 -15 11 -25 0 -29 1 -42 12 -7 6 -13 7 -13 3 0 -4 -7 -2 -15 5 -8 7 -15
9 -15 6 0 -4 -7 0 -16 9 -10 9 -25 14 -36 12 -11 -3 -16 -1 -11 6 4 6 -2 8
-15 5 -12 -4 -20 -3 -17 2 6 10 -43 23 -57 14 -7 -5 -8 -2 -3 6 6 10 3 12 -13
8 -12 -4 -20 -2 -17 2 3 5 -9 12 -27 16 -18 4 -36 9 -40 10 -5 1 -10 3 -13 4
-3 1 -8 3 -12 5 -5 1 -21 7 -38 14 -47 20 -56 18 -124 -28 l-64 -44 5 277 c3
152 3 276 1 276 -2 0 -24 -12 -49 -26 l-44 -26 -2 -266 -3 -267 -2 263 c-3
258 -4 262 -23 252 -19 -10 -20 -23 -22 -273 l-3 -262 -2 258 c-3 253 -4 257
-23 247 -16 -9 -20 -22 -22 -68 l-1 -57 -6 55 -6 55 -22 -22 c-13 -13 -29 -23
-37 -23 -27 0 -37 -28 -34 -97 3 -58 5 -68 21 -65 13 2 17 -4 17 -28 0 -18 -6
-33 -15 -36 -8 -4 -15 -19 -15 -35 0 -21 4 -27 15 -23 12 5 15 -2 15 -30 0
-24 -5 -36 -14 -36 -10 0 -15 -31 -20 -136 -4 -75 -5 -138 -3 -141 3 -2 65 36
139 85 73 49 138 92 144 95 6 3 33 -2 60 -13 48 -18 56 -33 32 -55 -8 -7 -9
-5 -4 5 6 12 5 12 -6 -1 -7 -8 -21 -18 -30 -22 -10 -3 -18 -11 -18 -17 0 -6
-4 -9 -9 -6 -5 3 -12 -1 -15 -10 -3 -8 -10 -12 -16 -9 -5 3 -10 0 -10 -7 0 -8
30 -24 70 -37 39 -13 68 -26 66 -28 -5 -6 -126 37 -144 50 -9 7 -17 4 -27 -9
-8 -10 -15 -14 -15 -9 0 11 -20 -15 -20 -27 0 -4 32 -17 70 -29 39 -13 70 -26
70 -30 0 -11 -134 41 -146 57 -10 12 -14 11 -28 -8 -9 -13 -14 -17 -11 -10 10
21 -2 13 -18 -11 -15 -24 -15 -24 51 -47 37 -13 71 -27 77 -32 9 -8 -59 14
-129 41 -25 10 -27 13 -15 28 12 14 10 14 -13 -1 -16 -10 -28 -20 -28 -21 0
-2 41 -18 90 -36 50 -17 90 -34 90 -38 0 -3 -22 -20 -49 -38 l-48 -31 -419
155 c-230 86 -422 158 -426 162 -4 3 67 51 157 106 l165 100 0 58 c0 69 32 80
-249 -90 -112 -67 -207 -123 -211 -123 -18 0 -768 283 -796 301 -17 10 -41 19
-52 19 -11 0 -523 187 -1137 415 -614 228 -1121 415 -1126 415 -5 0 -9 -8 -9
-17z m9444 -2030 c-822 -1298 -750 -1187 -757 -1176 -2 4 134 224 302 489 168
264 501 787 740 1163 238 375 436 680 438 677 3 -2 -323 -521 -723 -1153z
m-6740 946 c-2 -4 2 -7 9 -6 52 2 65 -18 20 -29 -24 -7 -25 -8 -8 -14 23 -9
58 6 50 21 -4 5 24 -2 62 -16 387 -145 5569 -2099 5572 -2102 26 -20 -185 58
-1307 482 -1048 396 -1304 489 -1313 479 -9 -11 -17 -11 -47 2 -20 8 -39 11
-44 6 -21 -21 94 -47 124 -29 13 9 21 8 30 -1 20 -20 -18 -52 -56 -46 -44 8
-86 25 -86 35 0 5 -9 9 -20 9 -26 0 -25 18 1 47 l22 22 -29 11 c-37 15 -2726
1030 -2817 1064 -37 14 -65 21 -61 15 9 -15 -27 -39 -54 -34 -39 7 -62 16 -62
26 0 5 -9 9 -20 9 -26 0 -26 16 1 31 12 6 17 14 13 19 -5 4 -72 31 -149 60
-77 28 -144 55 -149 60 -4 5 66 -19 157 -53 91 -34 163 -65 161 -68z m-216
-21 c34 -13 62 -29 62 -36 0 -7 -11 -23 -25 -36 -16 -15 -23 -30 -19 -40 3 -9
1 -16 -5 -16 -8 0 -9 -5 -1 -19 7 -14 6 -21 -3 -25 -7 -3 -3 -7 10 -11 21 -7
21 -9 7 -30 -15 -23 -5 -43 16 -30 14 9 13 -8 -2 -23 -9 -9 -9 -15 -1 -23 8
-8 17 -7 34 5 33 23 36 21 37 -25 1 -22 6 -48 11 -57 7 -12 9 -6 6 23 -3 45
16 71 52 69 33 -2 51 12 35 28 -14 14 -16 32 -2 23 6 -3 10 1 10 9 0 19 -34
38 -54 30 -11 -4 -16 -1 -16 10 0 13 8 15 40 11 22 -3 40 -2 40 2 -1 16 -26
41 -45 46 -16 4 -16 5 5 6 l25 1 -27 14 c-15 8 -35 16 -45 19 -12 3 -10 5 8 6
14 0 29 -2 33 -6 3 -4 14 -8 24 -10 9 -1 413 -155 897 -340 l881 -338 -338
-257 -337 -256 -597 254 c-328 139 -605 256 -615 259 -21 7 -130 -54 -126 -69
2 -5 273 -126 603 -269 329 -142 601 -261 604 -264 3 -2 -6 -13 -18 -24 l-24
-19 24 -9 c12 -5 48 -20 79 -34 l55 -24 28 20 27 19 1572 -679 c1232 -532
1572 -683 1571 -696 -1 -9 2 -17 7 -17 5 0 9 -4 9 -10 0 -5 -9 -10 -21 -10
-11 0 -17 -4 -14 -10 4 -6 1 -17 -5 -25 -15 -18 -5 -35 21 -35 18 0 18 -2 -5
-24 -34 -31 -34 -48 2 -41 l27 6 -22 -17 c-38 -28 -23 -67 16 -42 16 9 23 9
36 -2 17 -14 17 -52 -1 -127 -4 -19 -3 -25 3 -18 6 6 16 38 23 72 7 35 18 67
24 72 17 14 59 25 53 14 -4 -6 4 -8 18 -5 14 2 23 7 20 11 -2 4 6 7 18 7 18
-1 21 4 19 27 -2 19 2 27 13 27 8 0 15 9 15 20 0 19 -7 22 -57 24 -13 1 -22 5
-22 10 0 5 -5 13 -13 17 -10 7 -9 9 4 9 9 0 19 -4 23 -9 3 -6 14 -9 24 -8 10
0 137 -50 283 -113 l265 -115 -260 -390 c-143 -214 -261 -391 -262 -392 -1 -3
-3947 1881 -4028 1923 l-37 20 50 38 51 39 -7 91 c-3 50 -7 92 -8 93 -1 1 -57
-41 -124 -92 l-123 -94 -72 33 c-40 19 -493 235 -1007 481 -514 246 -966 462
-1004 480 l-69 32 114 65 114 65 -2 45 -1 46 126 69 127 70 46 -19 47 -20 261
147 c143 80 272 148 286 151 23 4 24 3 13 -16 -16 -25 4 -52 24 -32 17 17 48
-14 48 -50 0 -16 6 -31 15 -34 8 -4 15 -10 15 -16 0 -5 -5 -6 -11 -2 -7 4 -10
0 -7 -11 4 -22 48 -31 48 -11 0 8 -6 16 -12 19 -7 2 -10 8 -6 12 11 11 28 -4
28 -26 0 -11 4 -18 9 -15 5 3 14 -1 21 -9 7 -8 20 -15 29 -15 14 0 14 -2 1
-10 -19 -12 -33 -13 -26 -1 3 5 -1 14 -9 21 -10 8 -15 9 -15 1 0 -7 -8 -8 -23
-2 -14 6 -29 5 -38 0 -11 -7 -9 -10 8 -15 18 -5 21 -10 13 -24 -15 -27 -12
-43 5 -36 12 4 14 0 9 -18 -7 -29 11 -42 33 -24 14 11 16 11 8 -2 -4 -8 -5
-12 0 -8 15 14 35 -14 35 -48 0 -19 3 -34 8 -34 4 0 6 22 4 48 -3 41 -1 48 15
48 53 3 101 22 76 31 -7 3 -13 11 -13 19 0 9 5 12 10 9 6 -3 10 1 10 9 0 20
-32 36 -58 29 -16 -4 -22 -1 -22 10 0 16 34 18 57 4 6 -4 14 -3 18 3 9 15 -14
50 -33 49 -14 0 -14 -2 2 -8 12 -5 16 -10 9 -14 -6 -4 -18 -4 -27 -1 -14 5
-14 8 0 30 15 23 15 24 -7 33 -18 6 -26 5 -31 -8 -6 -15 -7 -15 -7 1 -1 9 -7
19 -13 22 -7 3 3 3 22 0 19 -3 39 -9 46 -14 6 -6 14 -7 17 -3 10 9 8 23 -3 23
-5 0 -20 11 -34 25 -15 15 -37 25 -53 25 -24 0 -28 4 -30 30 -1 18 2 28 7 25
6 -4 10 1 10 9 0 19 -34 38 -54 30 -10 -4 -16 -1 -16 8 0 17 29 20 48 5 12
-10 14 -6 16 26 1 12 24 32 64 54 l62 35 0 -27 c0 -14 4 -24 9 -21 4 3 6 16 4
29 -4 21 4 29 59 60 34 20 65 36 68 37 3 0 33 -10 68 -22z m3743 -1435 c1424
-546 1586 -610 1573 -624 -8 -8 -14 -21 -14 -28 0 -7 -4 -10 -9 -6 -6 3 -15
-3 -20 -14 -6 -11 -21 -21 -33 -23 -17 -2 -22 -9 -21 -26 2 -16 -3 -22 -16
-22 -14 0 -18 -5 -14 -19 3 -11 11 -17 18 -15 7 3 16 0 21 -7 4 -7 3 -10 -4
-6 -5 4 -21 3 -34 -2 l-23 -10 23 -7 23 -7 -21 -19 c-28 -26 -27 -51 3 -43
l22 7 -22 -21 c-34 -32 -29 -44 15 -36 20 4 43 11 50 17 11 10 15 7 10 -9 -2
-5 -6 -7 -9 -6 -3 1 -5 -13 -5 -30 0 -18 -3 -52 -7 -77 -5 -32 -1 -25 13 25
10 38 24 71 30 73 5 2 8 7 6 11 -3 4 10 6 27 6 18 0 37 2 42 5 6 3 19 5 30 5
16 0 19 6 17 28 -2 19 2 27 13 27 8 0 15 9 15 20 0 21 -12 25 -65 21 -23 -1
-27 0 -15 9 13 9 13 11 0 20 -13 8 -13 10 1 10 9 0 19 -3 22 -6 10 -11 76 -14
82 -4 9 14 -7 41 -29 50 -21 9 -21 9 1 9 13 1 22 4 22 9 -4 21 2 32 14 27 6
-4 1 4 -13 16 -21 18 -21 21 -5 15 11 -5 97 -37 190 -73 94 -36 176 -68 182
-72 14 -8 -473 -747 -491 -745 -16 2 -589 245 -603 256 -6 5 -24 13 -40 17
-24 7 -3214 1359 -3221 1366 -1 1 36 32 83 68 l85 67 1 68 0 67 146 110 c80
61 152 114 160 119 9 5 34 1 67 -12 l53 -20 29 24 c16 13 36 23 44 24 8 0 729
-273 1601 -607z m-3209 -643 c7 0 684 -327 1503 -726 820 -399 1577 -768 1683
-820 l193 -93 -277 -368 c-152 -202 -285 -376 -294 -387 -17 -18 -72 11 -1751
914 -954 513 -1738 936 -1742 941 -5 4 24 33 65 64 l74 57 -8 72 c-7 67 -6 72
16 88 12 10 110 84 217 166 l194 149 57 -28 c32 -16 63 -29 70 -29z m4997
-1096 c-292 -461 -535 -843 -540 -848 -50 -53 58 125 522 855 299 469 544 848
546 842 2 -5 -235 -388 -528 -849z"/>
<path d="M9691 1691 c-6 -10 -7 -22 -3 -26 4 -5 2 -5 -5 -1 -6 3 -18 -2 -25
-12 -7 -10 -25 -22 -39 -25 -26 -7 -49 -37 -29 -37 6 0 10 -4 10 -10 0 -5 -9
-10 -21 -10 -12 0 -17 -4 -14 -11 4 -5 -1 -19 -10 -29 -16 -17 -16 -19 2 -28
10 -5 25 -7 33 -5 8 2 4 -3 -10 -11 -14 -8 -20 -16 -15 -16 6 0 2 -5 -8 -11
-23 -14 -12 -29 21 -30 26 0 26 -1 5 -9 -21 -9 -27 -19 -20 -37 1 -5 14 -8 29
-8 14 -1 24 3 22 7 -9 14 13 8 26 -7 12 -15 8 -92 -6 -130 -4 -8 -2 -15 3 -15
5 0 15 29 22 65 10 49 19 68 35 77 11 6 24 15 27 20 3 5 16 5 30 0 17 -7 32
-5 52 5 23 11 26 18 21 40 -6 22 -4 25 10 20 12 -5 16 -1 16 17 0 15 -7 26
-20 29 -11 3 -20 10 -20 16 0 13 17 15 24 2 8 -13 46 -1 46 13 0 19 -23 44
-45 49 -15 3 -13 5 8 6 21 1 27 6 25 19 -2 9 2 16 9 15 20 -4 3 26 -18 32 -11
4 -17 10 -14 15 11 18 -40 40 -92 40 -41 0 -54 -4 -62 -19z"/>
<path d="M2230 5918 c0 -15 5 -39 10 -53 9 -23 8 -26 -6 -21 -8 3 -18 6 -20 6
-2 0 -4 8 -5 18 0 10 -3 12 -6 5 -7 -19 -23 -16 -23 5 0 13 -2 14 -9 3 -5 -7
-14 -10 -20 -7 -6 4 -11 5 -11 2 0 -3 16 -12 35 -20 32 -14 49 -46 25 -46 -5
0 -10 8 -10 18 0 13 -2 14 -9 3 -5 -7 -14 -10 -20 -7 -6 4 -11 2 -11 -3 0 -6
7 -11 15 -11 18 0 32 -29 18 -39 -5 -3 -1 -14 10 -24 18 -18 18 -17 11 17 -7
40 2 48 16 14 8 -18 9 -13 4 20 -5 35 -3 41 9 36 21 -8 30 -36 15 -46 -10 -6
-10 -8 -1 -8 7 0 17 -18 23 -41 14 -49 10 -67 -10 -48 -8 8 -22 15 -30 15 -8
1 -24 5 -34 10 -19 7 -19 7 0 -13 10 -11 22 -18 25 -17 4 2 21 -1 39 -7 26
-10 31 -16 27 -35 -2 -13 -1 -24 3 -24 4 0 10 -9 13 -20 6 -22 0 -25 -22 -11
-8 5 -12 17 -9 28 5 19 -15 47 -26 35 -4 -3 -11 0 -15 7 -6 9 -11 10 -15 2 -4
-6 4 -15 18 -21 14 -5 26 -16 26 -25 0 -21 -18 -19 -22 3 -3 16 -4 16 -10 0
-6 -13 -1 -19 17 -24 24 -6 37 -44 15 -44 -5 0 -10 8 -10 18 0 14 -2 15 -10 2
-6 -9 -5 -17 2 -21 6 -4 8 -16 5 -28 -3 -12 -1 -21 4 -21 5 0 9 -8 9 -17 0
-14 2 -15 9 -4 7 11 11 10 20 -5 9 -16 10 -12 5 19 -5 31 -4 36 9 31 20 -7 31
-36 17 -44 -8 -5 -6 -9 4 -13 20 -8 21 -37 2 -37 -8 0 -16 4 -18 8 -1 5 -16
12 -33 15 -16 3 -24 4 -17 1 6 -3 12 -13 12 -22 0 -13 2 -14 9 -3 6 9 11 10
15 2 4 -6 16 -11 27 -11 11 0 22 -7 26 -15 9 -24 -1 -27 -33 -10 -38 20 -60
20 -42 1 7 -7 19 -11 25 -9 7 3 13 -1 13 -8 0 -7 3 -9 6 -6 10 10 44 -12 44
-28 0 -20 -17 -19 -29 3 -10 16 -10 16 -11 0 0 -10 3 -18 8 -18 4 0 8 -18 9
-40 0 -22 -3 -40 -8 -40 -5 0 -9 8 -9 18 0 14 -2 15 -10 2 -6 -9 -5 -17 2 -21
6 -4 8 -16 5 -28 -3 -12 -1 -21 4 -21 5 0 9 -9 9 -21 0 -13 -4 -18 -12 -14 -7
4 -6 1 3 -7 9 -7 18 -20 22 -28 3 -9 6 -10 6 -2 1 19 21 14 22 -5 0 -11 3 -13
6 -6 8 21 46 -5 40 -28 -3 -10 -1 -22 4 -25 5 -3 9 -14 9 -25 0 -10 5 -19 10
-19 6 0 10 9 10 20 0 28 -21 123 -30 135 -4 6 -44 177 -90 380 -77 345 -100
428 -100 363z"/>
<path d="M10076 5904 c-11 -29 -6 -35 76 -74 l82 -40 12 27 c7 16 13 23 13 16
1 -6 17 -17 36 -23 31 -10 34 -14 29 -38 -10 -41 -13 -43 -44 -27 -36 19 -37
19 -42 -3 -4 -15 12 -27 86 -60 50 -23 94 -42 99 -42 4 0 7 8 7 18 0 12 -19
27 -54 44 -48 24 -53 29 -49 52 6 31 21 32 73 6 49 -25 50 -25 50 3 0 19 -15
30 -92 65 -63 29 -95 39 -103 32 -9 -7 -36 1 -89 25 -42 19 -79 35 -80 35 -2
0 -7 -7 -10 -16z"/>
<path d="M6126 5073 c4 -164 9 -301 13 -304 3 -4 16 -10 29 -14 l23 -7 -7 299
c-4 164 -9 301 -13 304 -3 4 -16 10 -28 14 l-23 6 6 -298z"/>
<path d="M6193 5153 c4 -108 7 -245 7 -304 l0 -107 32 -11 31 -11 -6 107 c-4
58 -7 195 -7 304 l0 197 -32 11 -31 11 6 -197z"/>
<path d="M6264 5024 c7 -258 10 -301 24 -311 9 -7 21 -13 26 -13 8 0 10 94 8
302 -2 166 -4 303 -5 304 -1 1 -15 6 -31 10 l-29 7 7 -299z"/>
<path d="M6334 4998 c5 -218 10 -305 19 -310 36 -23 37 -15 37 292 l0 300 -26
10 c-14 6 -28 10 -31 10 -3 0 -3 -136 1 -302z"/>
<path d="M6403 4974 c4 -169 8 -308 9 -309 2 -1 13 -6 26 -9 l22 -7 0 306 0
305 -26 10 c-14 6 -28 10 -31 10 -4 0 -3 -138 0 -306z"/>
<path d="M2562 5197 l-114 -50 7 -31 c4 -17 8 -35 9 -41 14 -52 19 -65 26 -65
6 0 205 87 218 96 5 3 -20 128 -27 136 -3 3 -57 -17 -119 -45z"/>
<path d="M877 5064 c-3 -3 -29 -6 -59 -6 -63 1 -276 -34 -293 -48 -7 -5 -15
-7 -18 -4 -7 7 -187 -46 -187 -55 0 -4 -11 -8 -23 -9 -33 -2 -108 -37 -100
-46 4 -4 1 -4 -7 -1 -9 3 -53 -17 -100 -43 l-85 -49 -2 -199 -2 -199 376 -215
c393 -225 441 -246 562 -249 39 -1 43 1 38 20 -5 17 -3 18 9 8 8 -7 13 -18 10
-26 -4 -10 6 -13 39 -13 52 0 59 16 23 51 l-23 21 22 -11 c13 -6 26 -23 29
-36 5 -21 12 -25 47 -25 24 0 48 7 60 18 11 9 17 11 13 5 -10 -17 45 -17 63 0
11 9 13 9 7 0 -9 -17 -11 -17 119 8 483 91 833 327 799 539 -14 84 -37 98
-524 328 -457 216 -507 235 -608 229 -24 -1 -45 0 -48 4 -5 8 -129 11 -137 3z
m428 -371 c-3 -15 -10 -30 -15 -33 -4 -3 -11 -20 -15 -38 -4 -18 -13 -36 -21
-39 -8 -3 -14 -10 -13 -17 3 -18 -20 -66 -31 -66 -6 0 -8 -5 -5 -10 4 -6 1
-17 -5 -25 -7 -8 -9 -15 -5 -15 5 0 1 -8 -7 -17 -22 -27 -38 -91 -24 -97 6 -3
1 -3 -12 0 -16 4 -23 2 -21 -8 3 -17 -17 -64 -31 -73 -5 -3 -8 -10 -5 -14 6
-11 -24 -71 -36 -71 -6 0 -8 -4 -4 -10 3 -5 1 -17 -4 -27 -5 -10 -12 -26 -15
-35 -3 -10 -15 -18 -26 -18 -25 0 -25 7 -2 33 12 15 13 18 2 12 -11 -6 -10 -3
3 12 9 11 17 27 17 36 0 8 8 18 18 21 11 4 17 17 18 38 1 20 10 38 24 50 12
10 16 18 9 18 -10 0 -10 3 -1 12 7 7 12 20 12 29 0 9 7 20 16 23 9 4 14 9 11
13 -4 3 -1 13 5 21 7 8 13 20 13 26 1 20 45 106 55 106 5 0 7 6 4 14 -3 8 0
17 5 21 6 3 9 10 6 15 -3 5 5 16 17 24 15 11 18 16 8 16 -13 1 -13 2 0 13 8 7
15 17 16 22 0 6 5 22 12 38 15 36 36 36 27 0z m387 -19 c-2 -13 -8 -24 -13
-24 -5 0 -9 -9 -9 -20 0 -23 26 -39 51 -33 12 4 19 0 19 -10 0 -18 24 -29 46
-20 12 4 14 0 10 -23 -2 -16 -5 -30 -6 -31 -2 -2 -3 -6 -4 -10 -1 -5 -7 -17
-13 -28 -6 -11 -11 -24 -11 -30 -1 -14 -30 -31 -38 -22 -4 4 -2 13 4 19 7 7
12 20 12 30 0 12 8 18 23 19 16 1 18 2 5 6 -22 6 -23 19 -2 31 14 8 14 11 -7
26 -23 15 -49 23 -36 9 4 -3 1 -13 -5 -21 -7 -8 -14 -26 -16 -41 -1 -14 -10
-31 -18 -38 -9 -6 -13 -16 -10 -22 4 -5 2 -12 -3 -16 -6 -3 -8 -12 -5 -20 4
-9 -1 -18 -11 -21 -9 -4 -14 -13 -11 -20 3 -7 1 -16 -4 -19 -6 -4 -10 -15 -10
-25 0 -23 -16 -34 -37 -26 -14 6 -14 8 0 24 22 25 38 90 24 96 -7 3 -3 4 8 1
17 -4 20 1 22 27 1 18 9 36 17 40 8 5 13 15 10 22 -3 8 0 17 5 21 6 3 9 10 6
15 -3 5 -1 11 5 15 15 9 12 32 -5 39 -21 8 -49 -24 -53 -59 -2 -17 -8 -34 -15
-40 -7 -5 -13 -23 -15 -40 -2 -16 -10 -34 -18 -38 -8 -5 -12 -12 -9 -17 3 -5
-3 -24 -14 -44 -11 -19 -23 -50 -26 -70 -7 -35 -31 -54 -48 -37 -5 5 0 15 14
25 14 10 18 16 9 16 -11 0 -11 3 -2 12 7 7 12 20 12 30 0 10 6 21 14 24 8 3
12 12 10 19 -3 7 0 16 5 20 6 3 9 10 6 15 -3 5 3 24 14 43 l20 35 -21 6 c-25
6 -38 0 -38 -18 0 -19 -27 -39 -40 -31 -8 5 -6 13 7 27 10 11 17 23 16 27 -2
3 14 6 35 6 44 1 63 11 56 29 -3 8 0 17 5 21 6 3 9 10 6 15 -3 5 5 16 17 24
12 9 16 16 9 16 -11 0 -11 3 -1 15 6 8 9 18 6 23 -3 6 1 15 9 22 8 7 15 19 15
26 0 7 6 11 14 8 8 -3 11 -15 8 -30z m-962 -40 c0 -3 -10 -20 -22 -37 -13 -18
-23 -34 -24 -37 -3 -20 -25 -60 -33 -60 -5 0 -12 -16 -15 -36 -4 -19 -14 -38
-22 -41 -7 -3 -14 -12 -14 -19 0 -8 -7 -25 -16 -39 -14 -22 -14 -24 4 -34 21
-11 42 2 42 26 0 7 7 13 16 13 11 0 13 -6 8 -22 -4 -13 -8 -30 -8 -39 0 -9 -5
-15 -11 -13 -5 2 -18 -14 -27 -36 -13 -30 -22 -38 -34 -33 -16 6 -16 7 -1 18
9 7 13 15 9 19 -4 4 1 14 11 21 18 13 18 14 0 29 -19 17 -37 21 -39 9 -2 -24
-26 -64 -35 -61 -6 2 -9 8 -8 13 9 37 12 45 21 45 5 0 7 9 3 19 -4 14 0 21 15
26 11 4 18 10 15 15 -3 5 -1 11 5 15 5 3 10 14 10 25 0 10 7 21 16 24 8 3 13
10 10 15 -3 5 1 14 9 21 8 7 12 16 10 21 -3 5 3 14 14 20 10 7 17 19 14 26 -3
7 0 13 7 13 7 0 10 7 6 15 -3 8 1 18 8 22 7 5 15 16 19 26 6 15 37 25 37 11z"/>
<path d="M10320 4972 c0 -14 -43 -58 -63 -65 -10 -4 -16 -11 -12 -16 3 -6 12
-8 19 -5 8 3 17 1 20 -5 7 -11 37 -3 48 12 4 6 12 4 22 -6 24 -24 20 -28 -24
-25 -53 3 -59 -7 -19 -31 19 -12 28 -21 20 -21 -11 0 -11 -3 -1 -15 14 -17 76
-20 85 -4 10 15 -1 22 -35 21 -18 0 -30 4 -30 12 0 18 11 27 23 19 17 -10 56
-13 62 -4 2 5 -2 17 -10 27 -14 18 -15 18 -9 0 5 -14 3 -17 -11 -15 -29 6 -29
28 0 35 24 6 24 7 8 20 -21 16 -47 19 -38 4 3 -5 2 -10 -3 -10 -6 0 -13 7 -16
17 -6 14 -9 14 -27 -5 -11 -12 -22 -22 -24 -22 -8 0 8 35 19 42 15 10 89 0 97
-13 4 -8 9 -8 13 -1 4 6 -2 15 -11 21 -10 6 -14 11 -9 11 5 0 3 7 -4 15 -13
16 -90 21 -90 7z"/>
<path d="M8850 4775 c-7 -8 -9 -15 -6 -15 11 0 -28 -36 -46 -43 -10 -4 -18
-11 -18 -17 0 -6 8 -10 18 -8 9 1 22 -1 29 -5 13 -8 43 1 43 14 0 4 7 6 15 3
8 -4 12 -10 9 -15 -3 -5 0 -9 6 -9 6 0 9 -4 6 -9 -6 -9 -88 -7 -104 2 -12 8
-28 -5 -36 -29 -5 -15 -2 -24 9 -28 15 -5 15 -7 1 -22 -22 -22 -20 -34 7 -34
20 -1 20 -2 5 -11 -27 -15 -23 -43 5 -35 12 3 33 9 47 13 22 6 23 5 12 -10 -8
-9 -12 -24 -9 -34 4 -14 5 -14 6 4 1 25 34 47 61 40 9 -2 25 0 34 5 23 13 3
38 -31 38 -27 0 -86 37 -79 49 4 6 -10 10 -51 13 -18 2 -16 6 7 18 24 13 71
-10 86 -42 5 -12 11 -20 14 -19 3 1 17 -2 31 -7 31 -12 54 0 45 23 -4 11 -15
15 -32 13 -20 -2 -28 2 -30 15 -2 13 2 16 17 12 11 -4 19 -2 19 4 0 6 -6 12
-12 12 -7 1 3 5 22 9 l35 7 -35 2 c-32 2 -33 3 -12 12 13 5 28 7 33 3 5 -3 9
-3 9 0 0 3 -13 12 -29 21 -23 11 -31 12 -35 2 -5 -9 -7 -9 -12 1 -9 18 -28 15
-42 -9 -17 -27 -27 -18 -12 10 12 24 66 29 102 10 24 -13 40 -1 15 12 -9 6
-15 14 -12 19 16 26 -84 41 -105 15z"/>
<path d="M10842 4535 c-14 -16 -12 -31 3 -27 6 1 1 -5 -10 -13 -13 -10 -30
-13 -52 -9 -42 8 -44 -10 -4 -27 20 -9 26 -16 18 -21 -18 -11 6 -30 37 -30 14
0 26 -4 26 -9 0 -22 -67 -3 -97 27 -10 10 -10 13 0 17 7 3 3 6 -8 8 -53 6 -75
5 -75 -2 0 -5 7 -9 15 -9 8 0 15 -3 15 -6 0 -3 -7 -12 -15 -20 -19 -20 -19
-34 1 -34 14 0 14 -1 0 -16 -21 -21 -20 -38 2 -29 9 4 22 8 27 9 6 1 15 5 22
9 6 4 14 3 18 -2 7 -12 65 -10 65 2 0 5 9 5 21 2 16 -5 20 -3 19 12 -4 32 0
44 10 38 6 -3 10 3 10 14 0 17 -6 21 -33 21 -23 0 -34 5 -34 15 0 10 9 14 29
11 15 -1 31 -5 34 -9 3 -3 12 -3 19 -1 18 7 6 44 -14 44 -14 0 -14 -2 -1 -10
13 -8 13 -10 -2 -10 -9 0 -20 5 -24 11 -8 13 16 31 34 24 18 -6 15 6 -5 21
-23 17 -35 17 -51 -1z"/>
<path d="M7828 4533 c6 -2 12 -8 12 -13 0 -7 -52 -6 -114 2 -32 5 -28 -18 6
-35 18 -9 26 -17 18 -17 -9 0 -2 -9 15 -20 27 -18 28 -20 9 -20 -12 0 -36 14
-54 30 -21 19 -43 30 -62 30 -17 0 -27 -4 -23 -10 3 -5 13 -10 21 -10 14 0 13
-2 0 -16 -21 -20 -21 -48 -1 -40 17 6 21 -9 4 -19 -19 -12 -3 -29 27 -30 27 0
29 -3 35 -50 5 -41 6 -44 8 -15 1 19 4 46 7 60 4 18 3 21 -4 11 -7 -10 -11
-10 -17 -1 -11 18 4 26 25 12 12 -7 21 -8 25 -2 4 7 14 6 27 -1 15 -8 19 -8
14 0 -4 7 1 11 13 11 27 0 27 20 1 27 -29 8 -25 24 5 19 17 -3 25 0 25 10 0
16 -38 34 -57 27 -8 -3 -13 3 -13 17 0 14 4 19 12 14 7 -4 25 -9 41 -11 23 -2
28 0 23 13 -3 9 -6 20 -6 25 0 5 -8 9 -17 8 -11 0 -13 -3 -5 -6z"/>
<path d="M9460 4431 c0 -11 -4 -23 -10 -26 -5 -3 -10 -1 -10 6 0 10 -2 11 -12
1 -7 -7 -14 -17 -14 -22 -1 -6 -2 -16 -3 -22 -1 -10 -4 -9 -10 1 -7 10 -28 -5
-89 -64 -47 -44 -79 -82 -76 -90 3 -7 1 -16 -5 -20 -6 -3 -11 -1 -11 6 0 8 -4
8 -15 -1 -8 -7 -15 -21 -15 -31 0 -10 -4 -21 -10 -24 -5 -3 -10 -1 -10 6 0 8
-4 8 -15 -1 -8 -7 -15 -21 -15 -31 0 -10 -5 -21 -11 -25 -7 -4 -9 0 -5 14 5
15 1 21 -18 24 -17 3 -23 1 -19 -8 3 -7 2 -18 -2 -24 -10 -17 -37 9 -30 30 4
12 -4 19 -30 27 -32 10 -35 9 -35 -8 0 -29 -28 -23 -32 8 -2 20 -11 29 -42 39
-30 11 -36 11 -28 1 13 -16 -1 -42 -17 -32 -7 4 -11 16 -9 27 2 16 -5 24 -33
33 -32 12 -35 11 -35 -6 1 -31 -18 -26 -25 6 -4 17 -7 26 -8 20 -7 -42 -28
-210 -27 -211 0 0 82 -29 180 -63 l179 -63 167 167 c126 125 166 172 163 186
-3 11 -1 19 5 19 5 0 9 -7 8 -16 -1 -13 48 -33 218 -90 222 -75 251 -79 239
-35 -3 10 0 22 6 25 6 4 11 2 11 -4 0 -6 5 -8 10 -5 6 3 10 15 10 25 0 10 5
22 12 26 8 5 9 2 4 -12 -5 -13 4 -8 27 14 30 29 37 45 51 120 10 48 19 96 22
107 4 14 -5 10 -30 -17 -20 -21 -36 -47 -36 -59 0 -15 -5 -19 -15 -15 -9 3
-18 -1 -20 -9 -16 -51 -15 -49 -28 -33 -6 9 -24 18 -39 22 -14 3 -33 9 -42 12
-12 4 -16 0 -16 -16 0 -15 -5 -20 -17 -18 -11 2 -18 12 -18 27 0 18 -8 27 -36
36 -32 12 -35 11 -35 -6 1 -29 -19 -27 -22 2 -2 20 -11 28 -37 36 -19 6 -34 8
-33 4 3 -26 -4 -40 -18 -34 -10 4 -14 14 -12 28 4 18 -2 23 -32 32 -34 9 -37
8 -32 -10 4 -15 0 -18 -14 -15 -13 2 -18 10 -16 26 2 17 -2 22 -17 22 -14 0
-21 -6 -21 -19z"/>
<path d="M8473 4363 c-7 -3 -13 -9 -13 -15 0 -15 -43 -58 -57 -58 -7 0 -13 -7
-13 -16 0 -11 5 -14 16 -10 9 4 22 2 29 -4 13 -11 45 -3 45 11 0 13 12 11 35
-7 17 -13 18 -16 5 -25 -8 -5 -32 -7 -52 -3 -21 3 -38 2 -38 -4 0 -10 50 -37
64 -33 5 1 4 -4 -2 -12 -9 -11 -7 -17 13 -27 14 -7 28 -10 32 -7 3 4 11 3 17
-3 17 -13 40 5 33 25 -5 11 -16 15 -38 13 -24 -2 -32 1 -35 15 -3 20 0 20 42
8 32 -9 73 3 44 13 -8 3 -24 6 -34 8 -30 5 -30 27 0 34 24 6 25 8 8 18 -26 14
-57 18 -49 6 3 -5 2 -10 -3 -10 -6 0 -12 7 -16 15 -7 19 -26 20 -26 1 0 -8 -4
-18 -10 -21 -5 -3 -10 3 -10 14 0 22 42 41 48 22 3 -8 8 -8 15 -3 8 6 22 6 37
-1 44 -18 56 -17 33 3 -13 10 -23 23 -23 29 0 22 -60 37 -97 24z"/>
<path d="M10327 4263 c-4 -3 -7 -16 -7 -27 0 -18 26 -29 217 -90 l216 -68 18
23 18 24 -177 57 c-97 32 -180 58 -183 58 -4 0 -6 -6 -5 -12 1 -14 -5 -18 -29
-18 -21 0 -19 30 3 31 9 0 1 7 -18 14 -42 16 -45 17 -53 8z"/>
<path d="M11430 4235 c-7 -8 -9 -15 -5 -15 8 0 -29 -29 -58 -45 -24 -13 -22
-30 3 -31 27 -2 38 -13 21 -23 -9 -6 -6 -14 15 -30 14 -11 23 -21 19 -21 -5 0
0 -8 9 -19 23 -25 99 -28 94 -3 -2 11 -13 17 -32 17 -20 1 -30 6 -32 18 -2 13
4 16 27 13 16 -1 32 -5 35 -9 3 -3 12 -3 19 -1 14 6 9 40 -8 51 -6 4 -8 0 -4
-10 7 -19 -5 -22 -34 -7 -10 6 -19 7 -19 2 0 -14 -63 -8 -68 6 -2 6 3 12 12
12 9 0 16 5 16 11 0 6 -10 8 -22 5 -13 -3 -17 -3 -10 0 6 3 12 12 12 19 0 25
56 29 123 9 9 -3 17 -1 17 5 0 6 -3 11 -8 11 -4 0 -12 10 -17 23 -13 28 -84
37 -105 12z"/>
<path d="M10299 4146 c-1 -9 -2 -21 -3 -26 -1 -10 342 -130 371 -130 6 0 9 8
6 20 -3 13 0 20 8 21 8 0 -2 7 -21 14 -46 18 -50 18 -50 -1 0 -10 -7 -14 -22
-12 -17 2 -22 9 -21 25 3 28 -43 42 -61 18 -15 -21 -49 -9 -43 16 3 12 -2 19
-18 23 -13 3 -31 9 -41 13 -12 4 -15 3 -10 -5 13 -21 -3 -33 -26 -21 -20 11
-20 13 -4 24 15 12 14 13 -8 19 -13 3 -31 9 -40 12 -10 4 -17 0 -17 -10z"/>
<path d="M11310 4078 c0 -4 7 -8 15 -8 20 0 19 -7 -6 -33 l-20 -22 21 -3 c20
-3 20 -4 -2 -22 -18 -15 -20 -21 -11 -31 10 -10 15 -10 27 0 8 7 19 10 25 7 5
-3 12 1 15 10 3 8 11 12 17 9 7 -5 5 -13 -5 -24 -9 -10 -16 -26 -16 -37 1 -13
5 -9 15 14 8 17 22 33 32 34 10 0 23 2 28 3 6 2 15 4 20 5 6 1 15 3 20 4 6 0
11 4 13 9 6 19 0 27 -22 27 -35 0 -78 18 -71 30 3 5 -2 10 -12 10 -14 0 -15 2
-4 9 10 7 6 10 -15 14 -39 7 -64 5 -64 -5z"/>
<path d="M11123 4029 c-6 -6 -9 -18 -6 -27 4 -10 2 -13 -5 -8 -11 7 -26 -10
-27 -31 0 -7 -4 -13 -10 -14 -19 -2 -34 -21 -28 -36 4 -10 2 -14 -4 -10 -11 7
-63 -53 -63 -72 0 -6 -4 -11 -8 -11 -14 0 -77 -94 -73 -110 1 -8 -1 -12 -5 -7
-12 11 -43 -23 -37 -41 4 -9 2 -13 -4 -9 -6 4 -23 -9 -38 -29 -27 -35 -31 -36
-82 -17 -7 3 -13 -2 -13 -12 0 -11 -7 -15 -22 -13 -15 2 -23 10 -23 23 0 22
-8 29 -42 39 -17 6 -23 3 -23 -9 0 -11 -7 -15 -22 -13 -17 2 -22 9 -21 24 2
16 -6 23 -32 31 -30 10 -34 9 -39 -11 -3 -11 -6 -24 -6 -27 0 -3 65 -28 144
-55 l144 -49 21 25 c11 14 18 31 16 38 -3 7 -1 11 4 8 13 -8 123 142 115 156
-4 6 -3 8 3 5 14 -9 76 70 67 85 -4 6 -3 8 3 5 13 -8 126 139 118 152 -3 5 1
11 7 14 7 2 10 7 7 10 -3 4 -10 2 -16 -4z"/>
<path d="M0 3801 c0 -50 18 -84 41 -78 13 4 25 -2 35 -19 10 -14 26 -24 39
-24 13 0 30 -11 39 -25 9 -14 21 -23 26 -20 14 9 38 -5 43 -26 3 -12 14 -19
30 -19 15 0 31 -9 41 -25 9 -14 22 -22 30 -19 8 3 25 -6 37 -19 13 -14 36 -27
52 -31 15 -3 27 -13 27 -21 0 -14 11 -19 37 -16 7 1 20 -10 29 -24 9 -14 26
-25 39 -25 13 0 30 -11 40 -26 10 -16 22 -23 31 -20 9 3 26 -5 40 -21 14 -15
34 -27 46 -28 11 -1 29 -13 39 -26 10 -13 24 -24 31 -25 32 -3 37 -5 43 -24 4
-13 15 -20 30 -20 24 0 55 -23 55 -41 0 -5 11 -9 24 -9 24 0 56 -23 56 -41 0
-5 11 -9 24 -9 24 0 56 -23 56 -41 0 -5 11 -9 24 -9 24 0 56 -23 56 -41 0 -5
9 -9 21 -9 27 0 61 -19 54 -30 -7 -11 10 -21 42 -25 15 -1 35 -14 45 -28 11
-15 25 -24 33 -21 8 3 26 -7 41 -23 14 -15 31 -28 38 -29 28 -1 52 -16 61 -36
6 -14 17 -22 28 -20 9 2 27 -4 39 -13 13 -8 19 -15 14 -15 -5 0 -3 -7 4 -15 7
-9 19 -14 27 -11 21 8 44 -5 54 -30 6 -17 16 -24 34 -24 16 0 37 -12 54 -30
15 -17 34 -28 42 -26 17 6 43 -12 52 -36 3 -10 16 -18 27 -18 30 0 60 -18 60
-35 0 -16 1 -16 36 -20 21 -2 77 -35 60 -35 -5 0 -3 -7 4 -15 7 -9 19 -14 27
-11 17 7 65 -23 58 -35 -6 -9 30 -31 38 -23 8 8 67 -28 62 -37 -7 -10 23 -32
34 -24 13 7 63 -24 56 -36 -7 -10 26 -28 42 -22 15 5 64 -27 58 -38 -6 -9 30
-31 38 -23 8 8 67 -28 62 -37 -7 -10 23 -32 34 -25 14 9 69 -27 64 -41 -3 -7
1 -14 9 -15 54 -6 79 -18 88 -44 7 -17 17 -24 35 -24 29 0 77 -28 70 -40 -7
-11 22 -33 35 -25 14 9 68 -25 73 -47 3 -10 14 -18 27 -18 27 0 82 -28 75 -39
-7 -12 22 -34 35 -26 14 9 64 -23 76 -49 5 -12 17 -20 26 -18 20 3 83 -27 74
-35 -11 -12 17 -33 43 -33 29 0 65 -26 74 -52 4 -11 15 -17 29 -16 30 2 74
-27 81 -54 4 -15 11 -19 26 -15 24 6 81 -27 81 -47 0 -15 34 -31 47 -23 5 3
24 -6 43 -19 19 -13 30 -24 26 -24 -5 0 -1 -9 8 -19 10 -11 24 -17 31 -15 19
8 75 -24 75 -41 0 -17 30 -34 47 -28 16 6 75 -36 68 -47 -7 -11 32 -33 45 -25
10 6 68 -26 66 -36 -3 -16 37 -46 54 -42 22 6 80 -32 80 -52 0 -14 27 -28 40
-20 13 8 71 -30 84 -57 8 -15 20 -22 35 -21 12 2 39 -8 59 -22 20 -14 33 -25
28 -25 -5 0 -1 -9 8 -19 10 -11 24 -17 31 -14 20 7 94 -37 88 -53 -5 -14 30
-37 41 -27 11 11 95 -39 89 -53 -5 -14 31 -37 41 -27 11 11 95 -39 89 -53 -5
-15 26 -33 45 -27 16 6 95 -45 87 -56 -8 -13 23 -34 40 -27 20 7 95 -39 95
-59 0 -18 36 -39 45 -26 8 13 93 -41 88 -56 -6 -14 33 -36 48 -28 14 9 89 -42
89 -60 0 -17 36 -39 51 -30 14 9 101 -44 93 -56 -9 -14 27 -39 48 -33 21 6 98
-41 98 -61 0 -17 29 -34 47 -28 18 6 104 -47 96 -59 -9 -15 24 -37 47 -31 23
6 88 -37 104 -69 8 -16 20 -23 42 -23 16 -1 43 -10 60 -22 24 -17 45 -22 102
-22 l71 0 -26 29 c-14 16 -30 27 -34 24 -13 -8 -65 23 -104 62 -19 19 -40 32
-45 29 -12 -8 -89 41 -114 72 -10 13 -24 22 -31 19 -16 -6 -71 27 -109 65 -16
17 -34 28 -40 26 -15 -5 -86 41 -110 70 -10 13 -24 22 -31 19 -15 -6 -92 42
-118 73 -10 12 -22 19 -27 16 -11 -7 -90 41 -108 67 -7 10 -21 18 -30 18 -23
0 -82 37 -105 66 -10 13 -23 22 -28 19 -13 -8 -91 40 -107 65 -7 12 -19 20
-26 17 -16 -6 -83 34 -102 62 -8 11 -24 21 -36 21 -22 0 -76 35 -96 62 -7 10
-21 18 -30 18 -22 0 -83 38 -100 61 -7 11 -21 19 -30 19 -22 0 -83 38 -100 62
-8 10 -19 17 -25 15 -14 -5 -62 26 -95 61 -12 13 -26 20 -32 17 -11 -7 -86 41
-94 61 -3 8 -13 14 -23 14 -23 0 -84 37 -101 62 -8 10 -19 18 -25 17 -20 -4
-66 23 -82 48 -9 13 -25 23 -39 23 -13 0 -43 18 -68 40 -25 21 -48 37 -51 34
-7 -7 -58 24 -77 48 -8 10 -25 20 -36 22 -24 5 -94 46 -79 46 12 1 -25 23 -43
26 -20 3 -65 35 -80 56 -7 10 -17 16 -22 13 -12 -7 -59 23 -83 53 -10 12 -23
20 -28 16 -12 -7 -75 31 -82 50 -3 7 -19 16 -35 19 -16 3 -42 20 -58 36 -16
17 -39 31 -51 31 -12 0 -35 14 -52 31 -17 16 -39 32 -50 34 -26 5 -68 33 -74
49 -3 7 -19 16 -36 19 -18 4 -42 17 -54 30 -12 13 -34 27 -48 30 -15 4 -39 20
-55 36 -16 15 -42 31 -57 35 -15 4 -37 18 -49 31 -12 14 -30 25 -39 25 -10 0
-34 14 -52 30 -19 17 -41 30 -49 30 -8 0 -27 11 -42 25 -15 14 -43 32 -63 40
-42 18 -84 60 -78 78 7 17 -66 99 -134 152 -32 24 -195 128 -362 230 -167 102
-311 190 -319 195 -103 64 -571 350 -589 360 -49 25 -82 30 -112 15 -39 -21
-53 -19 -80 10 -13 13 -31 25 -40 25 -9 0 -27 11 -40 25 -13 13 -31 25 -40 25
-8 0 -26 11 -39 25 -12 13 -26 22 -31 20 -4 -3 -21 6 -37 20 -16 14 -35 25
-40 25 -6 0 -23 11 -39 24 -15 13 -38 26 -50 30 -11 4 -24 13 -27 21 -3 8 -14
15 -24 15 -10 0 -29 11 -42 25 -12 13 -26 22 -31 20 -4 -3 -21 6 -37 20 -16
14 -34 25 -39 25 -6 0 -20 9 -33 20 -13 11 -28 20 -35 20 -6 0 -22 10 -35 22
-13 12 -30 23 -38 24 -8 2 -24 12 -36 23 -30 28 -36 26 -36 -8z m960 -515 c68
-33 190 -107 190 -116 0 -4 -7 -13 -15 -20 -8 -7 -12 -16 -9 -21 3 -5 -34 16
-83 46 -48 31 -112 67 -140 82 -37 18 -53 31 -53 45 0 17 4 19 33 13 17 -4 52
-17 77 -29z m528 -319 c11 -9 10 -12 -2 -19 -9 -5 -16 -16 -16 -24 0 -11 -4
-12 -17 -4 -10 6 -61 38 -113 70 -52 33 -116 73 -142 88 -49 28 -61 54 -32 70
12 7 53 -13 163 -81 80 -49 152 -94 159 -100z m202 -122 c191 -118 173 -102
153 -129 l-18 -24 -35 20 c-126 74 -300 187 -300 195 0 4 7 14 16 24 15 17 18
17 53 -5 20 -13 79 -49 131 -81z m368 -225 c92 -55 174 -104 181 -109 12 -8
11 -13 -10 -30 -13 -11 -29 -20 -36 -21 -6 0 -54 28 -105 63 -52 34 -124 80
-161 102 -36 22 -66 47 -67 56 0 13 18 39 27 39 2 0 79 -45 171 -100z"/>
<path d="M10866 3770 c-26 -33 -51 -60 -56 -60 -5 0 -68 21 -141 46 -105 37
-133 43 -140 32 -22 -34 -9 -43 124 -87 72 -24 137 -46 144 -48 16 -6 138 156
126 168 -6 6 -27 -13 -57 -51z"/>
<path d="M11087 3649 c-9 -6 -17 -17 -17 -24 0 -8 -7 -15 -15 -15 -8 0 -15 -5
-15 -10 0 -6 -11 -15 -25 -20 -30 -11 -33 -30 -6 -30 11 0 22 -4 25 -9 7 -11
44 -3 53 12 4 7 0 8 -11 4 -14 -6 -17 -3 -12 9 3 8 6 20 6 25 0 5 7 9 15 9 8
0 12 -6 9 -14 -7 -18 15 -31 28 -18 8 8 8 15 -1 26 -10 12 -7 13 21 7 18 -4
37 -8 43 -9 5 0 11 -5 13 -11 3 -8 -4 -8 -21 -2 -20 8 -29 5 -48 -15 -12 -13
-21 -24 -18 -25 2 0 14 -2 27 -5 16 -3 21 0 16 8 -4 6 -3 8 4 4 6 -3 13 -2 17
3 3 6 12 8 19 5 19 -7 30 38 12 51 -7 6 -11 15 -9 22 9 26 -73 42 -110 22z"/>
<path d="M0 3575 c0 -21 6 -37 16 -43 9 -5 15 -13 15 -18 -1 -5 9 -10 23 -12
13 -2 31 -14 40 -26 8 -13 28 -26 45 -29 18 -4 31 -13 31 -22 0 -14 11 -19 37
-16 7 1 20 -10 29 -24 10 -15 26 -25 40 -25 16 0 28 -8 36 -25 7 -15 20 -25
32 -25 26 0 41 -10 49 -34 5 -11 13 -16 23 -12 9 3 25 -1 37 -9 12 -8 18 -15
13 -15 -5 0 -3 -7 4 -15 7 -9 19 -13 27 -11 8 3 26 -7 40 -22 14 -15 30 -26
35 -24 14 4 49 -18 43 -28 -6 -10 29 -32 38 -24 3 3 16 -1 29 -10 12 -9 19
-16 14 -16 -5 0 -3 -7 4 -15 7 -9 20 -13 27 -10 8 3 24 -2 36 -10 12 -8 18
-15 13 -15 -5 0 -3 -7 4 -15 7 -9 20 -13 29 -11 19 6 44 -12 54 -38 5 -11 13
-16 23 -12 9 4 25 -5 42 -23 15 -16 38 -31 51 -33 13 -1 29 -12 35 -23 14 -25
28 -35 38 -29 12 8 48 -15 48 -31 0 -8 3 -15 8 -16 4 0 18 -2 31 -3 13 -2 33
-15 43 -29 12 -16 29 -27 43 -27 15 0 32 -11 45 -30 13 -18 26 -27 35 -23 9 3
26 -8 42 -26 15 -17 37 -31 50 -31 13 0 30 -12 43 -31 14 -18 28 -28 37 -25
16 7 65 -22 58 -34 -6 -10 20 -32 28 -23 11 10 55 -18 60 -38 3 -11 14 -19 25
-19 34 0 53 -11 63 -37 7 -18 15 -24 28 -20 11 2 32 -4 48 -14 15 -10 24 -19
19 -19 -5 0 -3 -7 4 -15 7 -9 19 -14 25 -11 7 2 25 -4 41 -15 16 -10 25 -19
20 -19 -5 0 -3 -7 4 -15 7 -9 20 -15 29 -14 27 3 52 -12 62 -38 7 -18 15 -24
28 -20 11 2 32 -4 48 -14 15 -10 24 -19 19 -19 -5 0 -1 -9 8 -19 10 -11 24
-17 31 -15 18 7 55 -13 55 -31 0 -17 14 -26 47 -30 16 -1 38 -16 53 -35 15
-19 32 -30 38 -26 15 9 59 -20 65 -44 3 -14 14 -20 31 -20 30 0 79 -28 71 -40
-7 -11 22 -33 34 -26 13 8 65 -25 69 -44 4 -18 23 -31 35 -23 15 9 59 -20 68
-44 6 -16 16 -22 31 -21 25 2 81 -30 73 -42 -7 -11 22 -33 35 -25 14 9 64 -23
76 -49 5 -12 17 -20 29 -19 28 2 75 -28 75 -49 0 -10 6 -19 13 -19 6 -1 19 -3
27 -3 30 -3 71 -30 66 -43 -6 -15 29 -37 44 -28 13 8 70 -32 70 -50 0 -15 27
-28 41 -20 13 8 77 -38 72 -52 -4 -11 27 -26 43 -21 13 4 74 -34 68 -43 -7
-12 26 -39 41 -33 17 7 88 -34 80 -46 -7 -12 23 -33 38 -27 19 7 66 -25 81
-54 8 -16 21 -24 37 -24 31 -1 82 -32 74 -45 -7 -12 34 -40 51 -33 18 7 86
-36 78 -49 -8 -13 28 -38 41 -28 12 9 88 -37 80 -49 -7 -12 20 -33 37 -29 23
5 88 -35 88 -54 0 -16 28 -32 46 -26 16 5 82 -42 87 -62 3 -14 14 -20 32 -20
30 0 88 -38 93 -60 5 -19 23 -31 40 -25 18 7 93 -37 88 -52 -7 -16 21 -36 40
-29 19 7 82 -35 98 -66 8 -15 20 -22 34 -21 23 3 107 -45 97 -55 -10 -11 27
-40 44 -35 21 5 91 -36 91 -53 0 -18 35 -45 46 -35 11 12 94 -36 94 -53 0 -20
35 -47 46 -36 6 6 27 -2 58 -21 26 -17 45 -33 42 -36 -11 -11 26 -44 38 -34
13 11 110 -44 102 -58 -8 -13 29 -42 46 -36 8 3 31 -4 51 -15 20 -12 44 -20
54 -18 13 3 5 12 -30 32 -32 19 -45 32 -38 39 13 13 103 -43 96 -60 -3 -9 9
-13 40 -13 25 0 45 4 45 9 0 13 -25 31 -50 36 -30 6 -69 31 -102 67 -16 16
-32 26 -38 23 -11 -7 -113 59 -104 68 4 3 -6 11 -22 18 -65 25 -116 55 -130
77 -8 12 -22 22 -30 22 -25 0 -93 41 -109 67 -9 13 -25 23 -36 23 -24 0 -76
34 -103 68 -10 13 -24 21 -31 18 -15 -5 -83 39 -108 71 -10 12 -23 20 -30 18
-7 -3 -32 8 -57 25 -25 16 -41 30 -35 30 5 0 0 7 -12 15 -12 9 -26 14 -30 13
-4 -1 -28 10 -53 25 -25 15 -41 27 -36 27 5 0 3 7 -4 15 -7 8 -21 15 -31 15
-24 0 -77 32 -95 59 -8 11 -22 21 -31 21 -22 0 -84 40 -106 67 -10 13 -22 21
-27 18 -12 -7 -79 34 -91 56 -5 11 -17 19 -27 19 -22 0 -83 37 -99 60 -7 10
-26 20 -42 23 -16 3 -45 22 -64 42 -19 19 -44 35 -55 35 -12 0 -37 16 -57 36
-20 19 -45 37 -57 39 -26 5 -69 33 -85 55 -7 10 -25 20 -41 23 -16 3 -44 22
-62 41 -19 19 -37 33 -42 30 -12 -7 -70 31 -86 55 -7 12 -23 21 -37 21 -14 0
-37 14 -58 35 -19 19 -43 35 -55 35 -12 0 -36 16 -55 35 -19 19 -43 35 -55 35
-12 0 -36 15 -54 34 -18 18 -46 36 -61 40 -16 4 -41 20 -55 35 -15 16 -40 31
-55 35 -16 4 -40 19 -54 34 -14 15 -30 27 -37 27 -19 1 -60 27 -79 52 -10 13
-23 21 -28 18 -10 -7 -59 23 -77 47 -7 10 -22 18 -32 18 -10 0 -32 14 -49 31
-17 16 -40 32 -52 34 -24 5 -48 22 -67 48 -7 9 -22 17 -32 17 -11 0 -35 14
-53 30 -19 17 -42 30 -50 30 -9 0 -29 14 -46 31 -17 16 -40 32 -52 34 -24 5
-48 22 -67 48 -7 9 -22 17 -33 17 -11 0 -32 13 -47 29 -15 15 -40 31 -55 35
-15 4 -37 18 -49 31 -12 14 -29 25 -39 25 -9 0 -30 14 -47 31 -17 17 -35 28
-40 25 -6 -3 -24 8 -41 25 -27 27 -42 34 -72 38 -4 1 -19 13 -34 29 -15 15
-31 28 -36 28 -5 1 -14 2 -19 3 -6 0 -20 12 -32 26 -12 14 -29 25 -39 25 -9 0
-30 14 -46 30 -15 17 -36 30 -46 30 -10 0 -28 11 -41 25 -13 14 -30 25 -39 25
-9 0 -32 14 -50 30 -19 17 -41 30 -49 30 -8 0 -25 11 -38 25 -13 14 -29 25
-36 25 -7 0 -27 12 -45 27 -17 15 -39 28 -47 29 -8 2 -27 14 -41 28 -15 14
-34 26 -42 26 -9 0 -24 9 -35 21 -10 12 -36 28 -56 36 -20 8 -39 21 -42 29 -3
8 -12 14 -20 14 -8 0 -27 11 -43 24 -15 13 -38 26 -51 30 -12 4 -27 16 -32 27
-6 10 -20 19 -31 19 -11 0 -30 11 -43 25 -13 14 -30 25 -39 25 -8 0 -28 13
-43 29 -15 16 -33 27 -39 25 -7 -3 -23 6 -36 20 -13 14 -29 26 -36 26 -6 0
-24 10 -40 23 -15 12 -41 28 -56 35 -15 6 -30 19 -33 27 -4 8 -14 15 -25 15
-10 0 -28 10 -39 23 -12 12 -24 22 -28 22 -20 2 -52 18 -52 26 0 6 -14 15 -30
21 -17 5 -35 19 -41 29 -5 10 -19 19 -29 19 -11 0 -28 9 -37 20 -10 11 -23 20
-29 20 -7 0 -26 11 -42 25 -40 34 -52 31 -52 -10z"/>
<path d="M3135 3455 c-126 -74 -225 -135 -219 -135 6 0 16 -30 24 -67 7 -38
15 -73 17 -80 5 -12 342 185 382 223 12 13 32 26 42 29 10 4 19 12 19 19 0 23
-23 131 -29 138 -4 4 -110 -53 -236 -127z"/>
<path d="M10950 3478 c0 -4 10 -8 21 -8 21 0 21 -1 -4 -26 -27 -27 -28 -48 -2
-37 22 8 18 -6 -7 -27 -21 -17 -21 -19 -5 -25 9 -4 24 -1 33 6 19 16 33 -1 34
-41 1 -22 3 -20 13 10 8 23 18 34 29 32 9 -1 19 2 23 8 4 7 12 7 26 0 14 -8
19 -8 17 2 -2 6 4 12 12 13 8 0 16 3 18 8 4 14 2 27 -5 25 -5 -1 -29 1 -55 6
-32 5 -48 12 -48 22 0 8 -6 14 -12 14 -9 0 -8 4 2 11 12 9 11 10 -7 6 -13 -3
-23 -1 -23 4 0 5 -13 8 -30 7 -16 -1 -30 -6 -30 -10z"/>
<path d="M3479 2610 c-1 -5 -3 -13 -4 -17 -2 -5 -6 -18 -10 -30 -4 -13 -15
-23 -26 -23 -18 0 -28 -29 -11 -31 19 -2 48 -7 57 -9 27 -7 54 1 49 14 -4 11
0 13 15 9 11 -3 18 -9 15 -14 -3 -5 4 -9 15 -9 12 0 21 -4 21 -10 0 -15 -51
-24 -69 -13 -17 10 -41 7 -41 -7 0 -4 10 -11 23 -14 19 -5 20 -8 6 -16 -9 -5
-28 -6 -45 -1 -16 4 -38 5 -49 0 -17 -6 -15 -8 13 -15 19 -4 29 -10 23 -13 -6
-4 -12 -18 -13 -31 -3 -21 1 -24 20 -22 12 2 22 -2 22 -7 0 -6 -4 -11 -10 -11
-16 0 -12 -30 5 -36 8 -4 21 -1 29 5 17 14 63 -20 69 -52 3 -16 5 -13 6 10 1
34 30 59 57 49 8 -3 14 -1 14 4 0 6 5 10 11 10 5 0 7 -5 3 -11 -4 -8 0 -8 15
0 11 7 21 15 21 20 0 12 -40 29 -80 34 -55 8 -71 13 -78 23 -4 6 -16 14 -27
18 -20 8 -20 8 1 18 15 7 28 7 40 -1 14 -7 15 -10 4 -11 -9 0 -6 -6 10 -17 23
-16 130 -28 130 -14 -1 23 -22 33 -65 33 -37 -1 -46 2 -41 13 3 8 0 15 -6 15
-6 0 -9 3 -5 6 3 4 14 3 24 -1 23 -9 76 -15 85 -9 13 8 -23 54 -41 54 -13 -1
-13 -3 3 -15 18 -14 18 -15 2 -15 -23 0 -56 18 -56 31 0 6 4 8 9 4 5 -3 12 -1
15 4 3 5 16 7 29 3 19 -5 20 -4 9 11 -8 9 -11 21 -7 27 3 5 1 10 -4 10 -6 0
-20 9 -30 19 -11 11 -29 24 -40 30 -25 14 -111 14 -112 1z"/>
<path d="M4650 1969 c0 -7 -8 -18 -17 -25 -17 -12 -16 -13 5 -14 12 0 22 -4
22 -10 0 -12 -35 -31 -44 -23 -3 4 -22 8 -42 10 -26 3 -35 0 -31 -9 2 -7 10
-12 16 -11 6 2 16 -6 23 -16 6 -10 18 -17 25 -14 7 3 13 -1 13 -9 0 -18 42
-38 80 -38 17 0 30 -4 30 -10 0 -13 -21 -13 -76 1 -25 7 -48 18 -51 25 -3 8
-11 14 -19 14 -8 0 -13 5 -11 12 1 8 -17 13 -56 14 -32 1 -55 -2 -51 -7 3 -5
14 -9 25 -9 23 0 24 -9 3 -38 -13 -19 -13 -23 -1 -28 8 -3 18 -4 23 -3 21 4
24 -2 10 -17 -37 -36 -4 -54 47 -25 36 20 47 19 47 -7 0 -12 -3 -12 -17 -1
-14 11 -14 9 1 -9 11 -13 23 -42 27 -65 l8 -42 -1 45 c-1 65 0 70 17 70 8 0
15 5 15 11 0 6 9 8 21 4 14 -5 25 -2 30 6 7 11 11 12 17 1 7 -10 11 -10 21 1
9 11 8 17 -4 27 -19 16 -19 34 0 26 18 -7 20 17 3 32 -17 13 -50 18 -65 9 -12
-7 -43 17 -43 34 0 11 24 12 34 2 9 -9 65 -14 83 -8 9 3 4 13 -12 31 -20 21
-28 25 -37 16 -9 -9 -8 -12 7 -12 13 0 16 -3 9 -10 -7 -7 -19 -7 -35 -1 -13 5
-17 10 -9 11 13 0 13 2 1 9 -12 8 -9 11 11 16 15 4 32 4 37 0 6 -3 11 -2 11 2
0 9 -50 32 -82 39 -10 2 -18 -1 -18 -7z"/>
<path d="M5645 1430 c3 -5 2 -10 -4 -10 -6 0 -8 -7 -5 -15 4 -11 -1 -15 -17
-15 -19 0 -21 -2 -9 -10 15 -9 16 -9 -35 -25 -27 -8 -17 -35 13 -34 15 1 38
-1 52 -5 26 -6 60 8 47 20 -3 4 -13 1 -21 -5 -8 -7 -16 -8 -19 -4 -7 13 11 53
25 54 7 1 23 3 36 4 12 1 22 0 22 -4 0 -3 15 -6 32 -5 18 1 41 -4 50 -10 13
-8 21 -7 29 1 9 9 6 13 -15 19 -14 3 -26 12 -26 18 0 7 -11 18 -25 24 -32 15
-139 16 -130 2z"/>
<path d="M5685 1370 c-8 -14 3 -30 21 -30 8 0 14 -6 14 -14 0 -18 27 -29 34
-13 2 7 5 4 5 -5 1 -16 -17 -24 -43 -19 -42 8 -86 8 -86 0 0 -6 24 -21 53 -34
30 -14 44 -24 32 -24 -35 -1 25 -35 65 -37 51 -3 52 -3 46 -13 -3 -5 -26 -4
-53 1 -27 6 -54 10 -62 11 -8 0 -16 9 -19 19 -2 10 -8 15 -13 12 -16 -9 -33 7
-18 18 9 6 5 7 -13 2 -19 -4 -29 -1 -37 13 -6 10 -11 14 -11 8 0 -5 -11 -11
-25 -11 -20 -2 -23 1 -15 11 6 8 17 12 23 10 13 -5 44 11 37 19 -7 6 -30 9
-59 7 -19 -1 -22 -4 -13 -13 9 -9 9 -15 0 -26 -14 -16 4 -31 37 -32 19 -1 19
-1 2 -11 -9 -6 -15 -14 -12 -19 3 -5 1 -11 -5 -15 -18 -11 0 -25 26 -19 14 4
24 2 24 -5 0 -6 -6 -11 -14 -11 -19 0 -27 -37 -10 -44 8 -3 26 0 39 6 38 17
58 -9 71 -90 l11 -67 -1 82 c-1 46 -4 83 -8 83 -5 0 -8 -5 -8 -11 0 -5 -4 -7
-10 -4 -5 3 -10 12 -10 20 0 11 6 12 30 3 17 -5 37 -7 45 -4 8 3 26 1 40 -4
25 -10 36 3 13 14 -7 3 -1 4 14 1 27 -5 53 15 30 23 -17 5 -15 32 3 32 17 0
19 9 6 29 -7 10 -26 15 -60 14 -28 0 -51 3 -51 8 0 5 6 9 13 10 6 0 3 4 -8 9
-19 8 -19 9 2 9 12 1 25 -4 28 -9 5 -8 11 -7 21 1 10 9 17 9 28 0 7 -6 21 -9
29 -5 15 5 15 8 0 30 -12 19 -24 24 -57 25 -37 0 -39 1 -16 10 14 6 33 8 42 5
10 -2 18 -1 18 3 0 12 -87 39 -100 31 -10 -6 -9 -9 1 -13 10 -4 9 -6 -3 -6
-10 -1 -18 5 -18 13 0 8 -7 17 -16 20 -21 8 -22 8 -29 -4z"/>
<path d="M6842 712 c-7 -5 -10 -16 -6 -25 3 -10 1 -17 -5 -17 -6 0 -20 -9 -31
-20 -12 -12 -25 -18 -29 -15 -10 6 -36 -23 -28 -31 12 -12 124 -20 135 -10 3
3 -6 14 -19 25 -13 11 -20 23 -16 28 14 13 165 9 178 -4 16 -16 4 -29 -13 -16
-7 5 -26 10 -43 11 -23 1 -26 -1 -15 -8 13 -8 13 -10 -1 -10 -9 0 -19 7 -23
15 -7 18 -60 21 -54 3 3 -7 14 -18 26 -24 12 -6 19 -14 15 -17 -3 -4 6 -7 22
-7 23 0 26 -2 15 -15 -13 -16 -63 -18 -91 -4 -10 5 -24 3 -35 -6 -11 -8 -16
-15 -11 -16 15 -3 23 -6 57 -21 19 -9 39 -14 44 -11 5 4 6 1 2 -6 -4 -6 -12
-9 -17 -6 -5 4 -9 2 -9 -3 0 -14 57 -35 94 -35 17 0 34 -5 38 -11 5 -8 8 -7 8
1 0 7 7 10 15 7 10 -4 15 0 15 15 0 22 -2 23 -60 26 -19 2 -40 3 -46 4 -7 0
-14 9 -16 19 -6 20 18 26 38 10 6 -4 19 -6 28 -2 9 3 22 1 29 -5 10 -8 18 -7
30 2 15 11 15 14 -2 36 -11 15 -24 21 -37 18 -17 -4 -16 -6 5 -13 23 -7 23 -8
5 -14 -26 -10 -57 3 -60 24 -2 11 2 16 11 12 8 -3 17 -1 19 3 3 5 18 6 33 4
20 -3 24 -2 14 5 -8 6 -11 18 -6 31 3 12 2 21 -4 21 -6 0 -21 12 -35 27 -21
23 -35 28 -88 30 -35 2 -69 0 -76 -5z"/>
<path d="M6717 519 c6 -6 20 -11 32 -12 20 -1 31 -17 11 -17 -5 0 -10 -7 -10
-15 0 -8 -5 -15 -11 -15 -6 0 -9 -6 -6 -12 2 -8 15 -12 30 -10 15 2 27 -1 27
-7 0 -6 -6 -11 -14 -11 -12 0 -31 -29 -24 -35 12 -10 48 -14 48 -6 0 18 35 13
53 -7 12 -13 17 -37 17 -82 0 -80 8 -75 12 8 1 35 6 66 11 69 4 2 4 9 1 15 -4
7 -9 6 -14 -2 -10 -16 -30 -4 -30 17 0 11 5 13 18 7 22 -10 112 -12 118 -2 3
5 11 8 17 8 7 0 6 -4 -3 -11 -11 -8 -9 -9 10 -4 14 4 30 12 35 17 13 12 -21
38 -51 38 -13 0 -46 5 -74 11 -43 9 -50 14 -50 35 0 13 -6 24 -12 25 -94 7
-149 6 -141 -2z"/>
</g>
</svg>
