<?xml version="1.0" encoding="UTF-8" standalone="no"?>
<?xml-stylesheet type="text/css" href="../svg.css" ?>
<svg
   xmlns:dc="http://purl.org/dc/elements/1.1/"
   xmlns:cc="http://creativecommons.org/ns#"
   xmlns:rdf="http://www.w3.org/1999/02/22-rdf-syntax-ns#"
   xmlns:svg="http://www.w3.org/2000/svg"
   xmlns="http://www.w3.org/2000/svg"
   xmlns:sodipodi="http://sodipodi.sourceforge.net/DTD/sodipodi-0.dtd"
   xmlns:inkscape="http://www.inkscape.org/namespaces/inkscape"
   version="1.0"
   width="1312.000000pt"
   height="724.000000pt"
   viewBox="0 0 1312.000000 724.000000"
   preserveAspectRatio="xMidYMid meet"
   id="svg2"
   inkscape:version="0.91 r13725"
   sodipodi:docname="Obschaya_skhema_v12_2_.svg">
  <defs
     id="defs56" />
  <sodipodi:namedview
     pagecolor="#ffffff"
     bordercolor="#666666"
     borderopacity="1"
     objecttolerance="10"
     gridtolerance="10"
     guidetolerance="10"
     inkscape:pageopacity="0"
     inkscape:pageshadow="2"
     inkscape:window-width="1301"
     inkscape:window-height="744"
     id="namedview54"
     showgrid="false"
     inkscape:zoom="0.38292683"
     inkscape:cx="1340.5563"
     inkscape:cy="585.52848"
     inkscape:window-x="65"
     inkscape:window-y="24"
     inkscape:window-maximized="1"
     inkscape:current-layer="svg2" />
  <metadata
     id="metadata4">
Created by potrace 1.13, written by Peter Selinger 2001-2015
<rdf:RDF>
  <cc:Work
     rdf:about="">
    <dc:format>image/svg+xml</dc:format>
    <dc:type
       rdf:resource="http://purl.org/dc/dcmitype/StillImage" />
  </cc:Work>
</rdf:RDF>
</metadata>
  <g
     transform="matrix(0.1,0,0,-0.1,0,724)"
     id="g6"
     style="display:inline;fill:#000000;stroke:#ff0000">
    <path
       d="m 0,6829 0,-84 861,-330 c 665,-255 864,-334 870,-350 20,-48 159,-629 152,-636 -4,-4 -104,-47 -220,-95 -117,-47 -213,-92 -213,-98 0,-7 252,-127 561,-266 308,-140 562,-257 565,-261 2,-3 -53,-32 -121,-64 -69,-32 -125,-64 -125,-70 0,-7 98,-58 217,-115 120,-56 222,-105 226,-109 4,-4 -42,-34 -103,-65 -61,-32 -110,-62 -108,-68 2,-5 275,-142 608,-304 332,-162 605,-296 608,-298 2,-2 -18,-17 -43,-32 -43,-25 -50,-26 -81,-15 -33,12 -38,10 -135,-48 -55,-34 -101,-61 -103,-61 -2,0 -9,28 -16,63 -6,34 -17,68 -23,75 -6,8 -54,35 -107,62 l -96,48 -12,62 c -6,34 -17,69 -24,78 -13,16 -365,192 -384,192 -15,0 -578,-300 -585,-313 -4,-5 3,-46 15,-91 l 22,-81 335,-182 c 184,-100 352,-192 375,-204 l 41,-22 164,98 c 90,54 174,105 186,113 21,13 23,13 23,-4 -1,-14 -60,-55 -214,-147 l -213,-128 -384,212 c -211,117 -389,212 -395,212 -14,0 -494,-260 -513,-278 -11,-11 -7,-17 25,-37 94,-59 874,-518 880,-518 3,0 127,74 274,165 l 267,165 2591,-1428 C 7074,787 8290,117 8352,82 c 61,-34 115,-59 118,-55 4,5 157,215 340,468 183,253 340,468 349,477 15,16 48,1 496,-217 264,-129 488,-234 497,-232 11,1 217,333 582,936 311,514 569,938 573,942 5,5 413,-147 907,-336 495,-190 901,-345 903,-345 2,0 3,71 3,158 l 0,157 -820,304 c -451,168 -825,308 -831,311 -6,4 265,463 696,1176 389,643 708,1170 709,1171 1,1 51,-11 111,-28 61,-16 116,-29 123,-29 10,0 12,19 10,77 l -3,77 -75,19 c -41,10 -76,20 -78,21 -1,2 27,53 64,114 36,61 63,115 60,121 -3,5 -74,26 -157,46 -109,26 -154,33 -164,25 -7,-6 -44,-58 -81,-115 -38,-58 -74,-103 -79,-101 -6,2 -150,39 -320,82 -171,42 -312,79 -314,80 -2,2 7,17 19,33 16,24 18,32 8,36 -28,10 -864,215 -878,215 -8,0 -69,-53 -134,-119 -88,-89 -115,-121 -105,-127 8,-5 264,-75 569,-155 l 555,-147 19,22 c 10,11 24,29 31,40 13,18 22,16 237,-39 123,-31 224,-58 226,-60 4,-3 -1473,-2232 -1493,-2254 -11,-11 -60,4 -300,94 -158,59 -307,120 -332,135 -25,16 -83,38 -133,49 -48,12 -415,143 -816,292 -401,149 -794,295 -874,325 -512,188 -701,262 -698,270 1,5 115,104 252,219 138,116 250,215 251,220 0,10 -107,53 -135,54 -9,1 -136,-97 -283,-218 l -268,-218 -282,105 c -155,58 -299,116 -319,129 -21,13 -62,28 -90,34 -73,14 -201,61 -191,69 4,4 137,98 296,210 158,112 287,209 287,215 0,6 -98,44 -217,84 -120,41 -222,78 -227,82 -5,5 120,-35 278,-87 l 288,-96 -85,-62 c -46,-33 -166,-119 -265,-191 -100,-71 -181,-135 -182,-141 0,-10 510,-204 537,-204 6,0 47,28 90,61 43,34 84,67 92,73 11,8 13,0 10,-44 -3,-44 -1,-55 11,-55 11,0 17,15 20,50 7,63 14,75 48,75 34,1 66,24 59,44 -3,8 1,17 8,20 8,3 12,12 9,20 -4,10 26,40 92,92 l 97,78 196,-66 196,-65 91,76 c 95,79 114,103 115,149 0,21 17,40 80,91 69,55 83,63 109,57 28,-5 72,29 622,490 325,273 597,498 603,500 6,3 45,-11 86,-31 69,-33 74,-37 74,-68 0,-31 4,-34 100,-81 l 100,-48 200,62 c 110,34 211,67 225,73 20,10 28,26 41,82 20,86 21,85 -104,140 l -89,38 -142,-41 -142,-41 -82,31 c -45,17 -82,34 -82,38 0,4 34,35 75,69 41,34 75,64 75,65 0,2 9,49 21,106 11,56 17,106 12,111 -8,8 -213,59 -239,59 -12,0 -1394,-1057 -1545,-1182 l -47,-38 -12,-115 c -7,-63 -10,-121 -7,-128 3,-8 27,-20 54,-27 62,-17 69,-24 41,-42 -21,-14 -81,4 -903,264 l -880,278 -48,-30 -49,-30 3,40 c 2,22 -1,44 -6,49 -11,10 -329,112 -354,113 -16,1 -291,-152 -324,-180 -16,-14 -17,-32 -15,-161 l 3,-146 -219,-132 c -120,-73 -221,-133 -225,-133 -22,-1 -774,287 -791,302 -11,11 -38,20 -59,22 -21,2 -540,189 -1154,417 -1000,371 -1117,416 -1117,435 0,12 -6,26 -12,32 -7,5 -137,55 -287,111 -258,94 -277,100 -312,90 -35,-11 -77,4 -965,334 -511,190 -937,348 -946,352 -16,6 -18,-1 -18,-76 z m 10302,-461 c 54,-12 98,-25 98,-29 0,-5 -1067,-874 -1453,-1183 l -48,-38 -130,38 c -122,36 -128,39 -112,55 40,38 1527,1179 1537,1179 6,0 55,-10 108,-22 z M 2227,6113 c 145,-53 260,-100 256,-103 -5,-4 -50,-23 -101,-43 -71,-27 -99,-34 -117,-27 -12,5 -25,7 -28,4 -5,-6 -90,26 -97,37 -7,10 -59,31 -87,34 -37,5 -93,26 -93,35 0,10 -86,41 -93,33 -3,-2 -31,8 -63,23 l -57,27 104,38 c 57,21 106,38 108,38 2,1 123,-43 268,-96 z m 293,-118 c 0,-2 34,-164 75,-360 41,-195 75,-361 75,-368 0,-8 -44,-34 -102,-59 l -103,-45 -82,366 c -46,201 -82,372 -80,380 3,19 217,104 217,86 z m 7823,-57 c 34,-12 27,-20 -32,-37 -24,-7 -50,-19 -58,-27 -12,-12 -19,-12 -46,0 -61,26 -107,50 -106,55 0,3 18,20 40,38 l 40,32 67,-25 c 37,-14 80,-31 95,-36 z m 455,10 73,-34 -206,-62 -207,-62 -86,39 c -64,30 -82,42 -69,47 79,30 377,112 397,109 14,-2 58,-19 98,-37 z M 3186,5524 c 324,-124 592,-229 597,-233 6,-6 -387,-201 -407,-201 -7,0 -698,279 -704,285 -1,1 -18,76 -37,166 -19,90 -37,174 -40,187 -3,12 -4,22 -2,22 2,0 269,-102 593,-226 z m 3487,-51 c 48,-15 87,-29 87,-32 0,-12 -283,-176 -299,-173 -25,5 -294,93 -309,101 -9,5 38,37 135,92 l 148,85 75,-23 c 41,-13 114,-35 163,-50 z m 1092,-348 c 468,-148 854,-271 858,-275 5,-4 -28,-38 -73,-74 -64,-52 -87,-65 -104,-60 -11,4 -385,125 -830,270 -444,145 -810,264 -812,264 -2,0 -4,20 -4,44 0,41 3,45 48,75 26,17 52,29 57,27 6,-2 393,-124 860,-271 z m -5840,175 c 4,-22 16,-51 26,-64 21,-27 97,-65 139,-70 14,-2 43,-15 64,-30 21,-14 57,-31 80,-37 23,-6 52,-17 66,-25 146,-82 188,-85 324,-20 l 99,47 -6,44 c -4,25 -9,56 -13,70 l -6,25 98,-41 c 55,-23 101,-43 103,-45 2,-2 -44,-26 -102,-53 l -105,-49 28,-133 c 16,-74 28,-135 26,-136 -4,-4 -1046,461 -1046,467 0,5 197,88 212,89 3,1 9,-17 13,-39 z m 2109,-101 c 86,-33 104,-43 99,-57 -4,-9 -13,-21 -20,-27 -19,-14 -24,-92 -6,-106 7,-7 11,-19 9,-28 -3,-9 3,-32 12,-51 13,-26 24,-35 42,-35 32,0 40,-11 40,-56 0,-20 6,-42 14,-48 21,-18 28,1 20,59 -6,42 -4,50 10,50 43,0 69,17 63,41 -3,10 -2,21 3,24 9,6 6,68 -6,104 -8,28 -26,33 211,-58 108,-42 179,-74 177,-81 -1,-7 2,-17 7,-24 21,-25 5,-69 -30,-88 -26,-14 -35,-15 -41,-5 -9,17 -81,21 -108,7 -11,-6 -20,-17 -20,-25 0,-8 -8,-22 -19,-32 -10,-10 -21,-29 -24,-43 -6,-21 -103,-78 -602,-353 -327,-181 -602,-327 -609,-325 -24,5 -415,193 -416,199 0,3 27,18 60,34 43,21 62,25 72,18 23,-19 360,-174 372,-171 30,8 216,115 221,126 7,19 -82,521 -95,538 -6,7 -43,25 -81,40 -38,15 -69,33 -69,39 0,7 -3,27 -6,44 l -6,31 133,65 c 138,67 160,75 140,51 -21,-25 -20,-93 0,-112 14,-13 16,-20 8,-30 -9,-11 -7,-15 6,-20 10,-4 15,-14 12,-24 -5,-18 23,-37 53,-35 20,1 30,-14 30,-48 0,-35 18,-70 31,-61 6,3 8,27 3,60 -6,52 -6,54 18,54 33,0 63,23 55,43 -3,8 -3,18 0,21 11,11 7,74 -5,89 -7,8 -14,29 -16,46 -2,20 -16,45 -36,64 l -32,31 104,52 c 57,29 106,53 110,53 4,1 54,-17 112,-40 z m -971,-113 c 72,-30 148,-61 167,-70 l 35,-15 -73,-32 c -40,-18 -71,-37 -69,-43 2,-5 74,-39 160,-75 86,-37 157,-68 157,-71 0,-7 -187,-100 -201,-100 -18,0 -339,142 -339,150 0,4 32,21 70,38 39,17 70,34 70,39 0,4 -70,37 -155,72 -85,36 -152,67 -149,70 4,5 183,89 192,90 1,1 62,-23 135,-53 z m 3142,-395 c 50,-18 131,-48 182,-66 l 92,-34 164,113 c 156,107 166,112 193,101 l 28,-11 -35,-26 c -19,-14 -87,-61 -151,-103 -65,-43 -118,-84 -118,-91 0,-7 36,-25 80,-41 44,-15 80,-31 80,-34 0,-4 -17,-18 -39,-32 l -38,-25 -412,153 c -227,84 -414,155 -417,157 -2,3 62,45 144,95 l 147,91 5,-107 5,-106 90,-34 z m -1136,113 c 2,-2 -7,-17 -19,-34 -12,-17 -23,-37 -24,-45 -1,-8 -5,-18 -9,-21 -4,-4 -2,-13 4,-20 7,-8 7,-14 -1,-19 -8,-5 -6,-13 6,-26 13,-14 14,-22 5,-32 -9,-11 -8,-17 4,-27 8,-7 15,-18 15,-25 0,-18 23,-35 54,-37 22,-2 26,-7 26,-35 0,-42 17,-86 31,-78 6,4 9,31 8,64 -3,53 -2,56 22,56 38,1 72,24 66,46 -3,10 -1,21 4,24 4,3 6,12 3,20 -3,7 -1,21 4,31 7,12 4,26 -10,51 -15,25 -17,33 -6,33 18,0 1748,-663 1748,-670 -1,-4 -576,-444 -640,-489 -18,-12 -82,13 -627,244 -334,142 -612,258 -618,258 -21,0 -128,-74 -119,-83 5,-5 277,-124 604,-265 327,-141 599,-260 604,-265 4,-4 -1,-11 -13,-15 -13,-4 -49,6 -101,29 l -82,35 -117,-88 -118,-89 -7,72 c -4,39 -10,74 -14,78 -5,5 -93,46 -197,92 l -189,85 -61,-43 c -33,-23 -101,-71 -152,-105 -86,-60 -91,-65 -87,-95 2,-17 6,-56 9,-87 l 6,-57 194,-91 c 107,-50 197,-91 200,-91 3,0 68,47 145,105 77,58 142,105 145,105 3,0 5,-40 5,-89 l 0,-89 -115,-87 -115,-88 -43,19 c -169,74 -2094,1000 -2089,1006 4,3 51,31 105,62 63,35 99,51 102,43 2,-7 9,-45 15,-85 l 12,-73 66,-33 c 37,-18 293,-140 569,-270 l 502,-237 131,87 131,88 -5,35 c -3,20 -8,72 -11,116 -12,147 44,110 -535,364 -422,186 -506,227 -492,236 30,20 468,264 487,271 15,6 17,4 13,-14 -8,-27 15,-46 47,-40 31,6 33,3 36,-56 2,-26 7,-50 11,-52 5,-3 4,-12 -2,-19 -7,-9 -6,-16 5,-25 17,-14 20,-40 4,-40 -6,0 -3,-7 5,-16 9,-8 16,-24 16,-35 0,-21 18,-31 59,-34 23,-1 26,-5 29,-45 2,-25 8,-50 14,-57 20,-24 31,-1 24,51 l -6,51 48,15 c 34,11 47,20 48,35 1,11 3,22 4,25 6,18 6,87 -1,95 -6,9 -14,41 -18,77 -3,21 -67,72 -87,70 -22,-3 -42,26 -27,37 8,6 9,65 2,89 -2,8 18,26 49,44 l 52,30 0,-41 c 0,-35 3,-41 21,-41 20,0 21,4 16,50 -5,42 -3,51 12,60 10,5 21,6 25,2 4,-3 10,-2 14,4 4,5 20,19 35,31 l 28,22 52,-22 c 29,-11 54,-22 56,-23 z M 2990,4657 c 12,-67 26,-127 31,-133 5,-6 6,-13 4,-16 -3,-3 -1,-25 5,-49 6,-24 13,-55 15,-69 3,-14 7,-34 9,-45 15,-65 15,-84 1,-79 -8,3 -19,31 -26,62 -7,32 -14,62 -15,67 -8,38 -16,76 -39,195 -14,74 -29,142 -33,150 -11,21 -3,50 12,44 8,-3 22,-54 36,-127 z m 4804,50 248,-83 -81,-63 c -44,-34 -86,-59 -91,-56 -6,4 -9,23 -6,43 4,37 -6,61 -37,94 -13,14 -30,18 -61,17 -39,-2 -49,-8 -83,-48 -55,-64 -74,-120 -51,-148 8,-10 8,-17 1,-24 -17,-17 11,-83 37,-87 17,-3 6,-15 -61,-68 -45,-35 -85,-64 -88,-64 -18,0 -511,186 -509,192 4,11 511,377 523,378 6,0 122,-37 259,-83 z m -4757,22 c 7,-13 13,-36 13,-51 0,-16 5,-28 11,-28 5,0 7,-4 4,-10 -6,-9 39,-269 52,-300 3,-8 5,-18 5,-23 -1,-4 2,-25 7,-47 8,-36 7,-39 -9,-30 -13,7 -27,58 -59,217 -22,114 -43,219 -46,233 -12,58 -12,71 -1,67 6,-2 17,-14 23,-28 z m 393,6 c 0,-8 6,-15 13,-16 9,0 9,-2 -1,-6 -6,-2 -10,-8 -8,-11 4,-6 10,-42 21,-107 1,-11 6,-36 10,-55 9,-47 15,-80 19,-110 5,-40 5,-42 19,-34 9,6 9,4 -1,-8 -12,-15 -10,-46 5,-88 13,-35 8,-70 -10,-76 -23,-7 -25,-6 -32,36 -3,18 -13,39 -22,45 -9,7 -13,18 -10,26 4,10 6,9 6,-3 1,-10 6,-18 12,-18 6,0 8,9 4,20 -6,20 -13,52 -21,100 -10,58 -13,77 -18,105 -4,17 -8,41 -10,55 -5,40 -5,42 -18,34 -10,-6 -9,-3 0,8 9,11 10,23 5,35 -13,28 -9,63 7,73 21,14 30,12 30,-5 z m -323,-36 c 11,-20 13,-21 13,-5 0,11 3,17 6,13 4,-3 3,-14 -1,-24 -5,-10 -8,-20 -8,-23 2,-14 15,-82 48,-254 20,-104 34,-192 33,-197 -10,-28 -29,25 -56,161 -18,85 -34,164 -36,175 -3,11 -7,34 -10,50 -3,17 -8,41 -11,55 -15,70 -15,82 -3,78 7,-3 19,-15 25,-29 z m 243,-4 c 0,-8 6,-15 13,-15 9,0 8,-3 -2,-9 -7,-5 -11,-13 -7,-19 3,-5 8,-27 11,-48 3,-22 9,-52 12,-69 4,-16 8,-39 10,-50 2,-11 5,-29 7,-40 2,-11 4,-26 5,-33 0,-8 6,-10 14,-6 8,6 8,3 -1,-9 -8,-9 -11,-21 -7,-27 7,-11 10,-30 20,-104 2,-21 7,-47 10,-57 4,-11 -1,-22 -14,-28 -27,-15 -33,-2 -46,104 -3,22 -8,48 -11,58 -3,11 -8,31 -10,45 -3,15 -6,36 -8,47 -2,11 -4,26 -5,33 0,8 -6,10 -13,6 -9,-6 -9,-3 0,9 8,9 11,21 7,27 -4,6 -8,27 -11,48 -2,20 -7,48 -10,62 -13,51 -12,70 4,80 24,13 32,12 32,-5 z m -175,-26 c 4,-10 9,-31 12,-46 3,-16 6,-35 8,-43 2,-8 4,-22 5,-30 1,-9 6,-5 12,10 6,14 11,27 10,30 0,3 -3,23 -6,45 -5,31 -4,37 5,28 7,-7 32,-115 55,-240 24,-125 45,-240 48,-255 4,-20 2,-26 -8,-22 -7,3 -13,10 -13,17 0,7 -3,26 -7,42 -3,17 -9,46 -11,65 -3,19 -8,46 -11,60 -11,48 -14,65 -20,100 -4,30 -12,72 -20,103 -1,4 -2,15 -3,25 -2,13 -5,11 -13,-8 -6,-14 -11,-27 -10,-30 2,-17 14,-81 36,-195 14,-71 26,-135 26,-142 0,-18 -36,-4 -37,15 -2,30 -13,96 -19,122 -4,14 -8,32 -10,40 -1,8 -5,26 -8,40 -3,14 -7,39 -10,55 -3,17 -8,41 -11,55 -3,14 -8,45 -11,70 -3,24 -7,47 -9,51 -2,3 -7,20 -10,37 -4,25 -2,30 10,26 8,-3 17,-14 20,-25 z m -387,-70 17,-74 65,-35 c 80,-44 93,-70 18,-37 -163,74 -287,133 -288,137 0,7 164,89 168,85 2,-2 11,-36 20,-76 z m 1604,-510 c 288,-127 538,-238 557,-246 l 35,-15 -115,-74 c -63,-41 -121,-73 -129,-71 -29,7 -1100,500 -1100,507 0,6 208,127 222,129 4,1 242,-103 530,-230 z m -1454,-157 181,-87 -55,-30 c -29,-16 -54,-33 -54,-37 0,-4 79,-47 175,-95 l 175,-88 -212,-125 c -117,-69 -220,-125 -230,-125 -9,0 -176,85 -372,190 -325,174 -353,191 -333,202 13,6 138,73 277,147 140,75 258,136 261,136 3,0 87,-39 187,-88 z m 5805,-534 c 865,-330 1576,-604 1580,-608 8,-7 -45,-70 -58,-70 -13,0 -43,-34 -39,-45 3,-7 -5,-15 -17,-18 -14,-4 -20,-11 -16,-20 3,-8 1,-19 -5,-25 -6,-6 -5,-17 4,-31 11,-19 11,-24 -6,-36 -16,-12 -17,-17 -5,-31 8,-9 12,-27 11,-40 -3,-18 3,-25 22,-30 14,-3 33,-4 41,-1 23,9 25,-6 10,-64 -14,-51 -8,-79 13,-66 5,4 17,36 27,72 18,68 22,71 85,67 19,-1 82,47 75,58 -3,4 2,11 11,14 9,3 14,13 11,21 -4,8 2,24 12,37 14,16 16,28 9,43 -6,14 -5,30 3,50 7,17 12,33 11,36 -1,6 328,-118 337,-127 6,-5 -480,-734 -490,-734 -9,0 -535,222 -568,239 -11,6 -23,20 -26,32 -5,15 -10,17 -19,10 -7,-6 -15,-9 -17,-7 -3,3 -16,7 -31,10 -20,3 -3184,1341 -3196,1351 -4,3 124,105 131,105 3,0 7,-14 9,-31 3,-29 9,-33 133,-85 145,-61 133,-62 216,8 l 47,39 299,-122 299,-123 -1,-80 0,-80 135,-58 c 74,-32 141,-57 149,-55 7,1 80,65 160,142 l 147,140 12,110 c 9,87 9,112 -1,121 -9,9 -683,274 -1107,436 l -25,9 25,19 c 14,11 27,20 28,20 2,0 711,-271 1575,-602 z m -1128,347 c 335,-130 611,-237 612,-239 2,-1 -60,-62 -137,-134 l -140,-131 -127,51 c -71,28 -130,53 -133,56 -3,2 21,28 54,57 32,29 54,55 50,58 -7,4 -471,191 -730,294 -6,2 -39,-19 -74,-47 -34,-27 -64,-50 -67,-50 -6,0 -227,91 -231,95 -6,5 300,235 307,231 4,-3 281,-111 616,-241 z m -463,-57 c -3,-19 23,-42 38,-33 6,4 9,13 6,20 -4,11 1,11 25,3 21,-7 29,-16 29,-34 0,-13 2,-24 4,-24 2,0 11,-3 20,-6 11,-4 16,0 16,14 0,19 3,20 29,11 21,-8 28,-15 24,-29 -3,-12 2,-22 15,-29 23,-12 38,0 26,20 -4,8 1,9 17,4 36,-11 44,-18 44,-40 0,-11 8,-21 18,-23 10,-2 17,3 17,13 0,12 6,15 23,9 34,-10 42,-17 42,-39 0,-11 8,-21 18,-23 11,-2 17,3 16,15 0,10 -3,13 -6,6 -5,-15 -23,-17 -23,-4 0,17 26,18 64,3 25,-10 34,-17 25,-23 -10,-6 -10,-11 0,-23 19,-23 45,-21 38,4 -5,18 -3,18 25,7 45,-18 47,-58 5,-90 -25,-19 -36,-22 -49,-13 -23,14 -35,0 -20,-24 15,-25 15,-31 0,-28 -7,2 -12,-5 -11,-15 1,-13 -3,-17 -15,-12 -10,4 -25,10 -35,12 -11,4 -16,11 -12,21 6,15 -11,42 -26,42 -5,0 -9,-9 -9,-20 0,-23 -1,-24 -35,-8 -14,6 -25,19 -25,28 0,10 -7,23 -16,30 -13,11 -16,10 -20,-8 -5,-17 -10,-19 -33,-11 -19,7 -27,16 -27,32 1,13 -6,23 -16,25 -11,2 -18,-3 -18,-12 0,-19 0,-19 -36,-3 -18,7 -29,20 -29,32 0,11 -8,21 -17,23 -11,2 -18,-3 -18,-12 0,-19 -8,-20 -35,-3 -11,7 -20,21 -20,32 0,11 -8,21 -17,23 -12,2 -18,-3 -18,-15 0,-14 2,-15 9,-4 5,8 11,9 15,3 10,-17 -18,-21 -52,-6 -21,8 -30,18 -26,27 3,9 -4,21 -16,30 -18,13 -20,18 -10,34 10,16 11,16 6,1 -3,-12 0,-18 9,-18 22,0 18,31 -5,37 -11,3 -20,10 -20,15 0,5 9,6 20,3 15,-5 20,-2 20,14 0,11 -9,22 -20,26 -11,3 -20,10 -20,15 0,4 9,6 20,3 15,-4 20,0 20,13 0,15 -2,16 -9,5 -5,-8 -11,-9 -15,-3 -10,16 16,20 49,7 18,-7 29,-18 27,-27 z m -294,-42 c 2,-14 7,-26 12,-26 5,0 7,7 4,15 -4,8 -1,15 5,15 17,0 13,-28 -5,-38 -21,-11 -14,-46 9,-50 14,-3 18,2 16,20 -4,41 1,68 11,68 6,0 10,-31 10,-74 0,-81 -8,-136 -20,-136 -5,0 -6,8 -3,19 3,10 0,22 -6,25 -6,4 -11,-1 -12,-11 0,-11 -3,-13 -6,-5 -3,7 3,22 12,32 20,22 14,50 -10,50 -11,0 -16,-8 -15,-22 1,-13 -1,-33 -5,-45 -6,-19 -10,-20 -30,-11 -14,6 -21,16 -18,24 3,8 0,21 -7,29 -8,9 -8,15 -2,15 12,0 13,88 1,95 -4,3 -2,16 4,29 15,31 51,20 55,-18 z m -1304,-94 c 162,-72 175,-80 159,-94 -40,-34 -243,-178 -252,-178 -9,0 -307,135 -345,157 -16,9 1,24 115,102 73,50 136,91 140,91 3,0 86,-35 183,-78 z m -1310,-295 610,-302 -134,-96 -135,-96 -225,116 c -124,64 -400,206 -613,316 -213,109 -387,202 -387,205 1,7 253,159 265,159 6,0 284,-136 619,-302 z m 400,-58 c 385,-188 711,-347 724,-353 22,-12 5,-26 -318,-272 -188,-142 -345,-259 -351,-259 -5,0 -339,178 -742,395 l -734,395 66,41 c 36,23 69,40 74,37 4,-2 7,-17 7,-32 0,-16 6,-33 13,-39 6,-5 288,-157 626,-336 l 613,-326 144,106 c 110,80 144,111 144,127 -1,49 -28,266 -35,277 -4,7 -240,127 -523,266 -283,140 -512,257 -509,261 12,12 82,52 91,53 5,0 324,-154 710,-341 z m 2665,-280 1270,-552 -86,-96 c -47,-53 -89,-100 -93,-105 -12,-12 -210,58 -210,75 0,4 -15,13 -34,20 -19,7 -34,17 -33,23 3,13 -111,68 -149,71 -55,5 -224,70 -224,85 0,5 -14,13 -31,19 -17,6 -28,15 -25,19 7,11 -124,71 -150,70 -30,-1 -150,41 -188,67 -19,13 -43,26 -55,30 -12,3 -21,12 -21,19 0,14 -113,66 -143,66 -31,0 -145,41 -179,64 -18,12 -41,25 -51,29 -10,4 -16,11 -13,16 6,9 -132,73 -144,66 -7,-4 -60,12 -147,45 -18,6 -33,15 -33,20 0,4 -13,13 -30,20 -16,7 -28,16 -25,20 6,9 -108,61 -144,65 -70,9 -227,78 -215,96 5,9 -126,70 -137,63 -14,-8 -179,52 -179,66 0,4 -10,11 -22,17 -19,8 -12,16 83,86 62,46 111,75 122,73 9,-2 588,-253 1286,-557 z m 726,-246 c 809,-349 1474,-637 1478,-640 4,-3 3,-11 -4,-19 -6,-8 -8,-14 -3,-14 5,0 1,-5 -9,-11 -9,-6 -15,-15 -11,-20 3,-5 0,-17 -7,-25 -9,-11 -8,-18 5,-33 15,-17 15,-19 -4,-36 -18,-16 -19,-20 -5,-35 9,-9 13,-24 10,-32 -3,-8 0,-19 7,-25 19,-15 68,-22 68,-10 0,7 4,7 11,0 9,-9 9,-23 0,-57 -15,-60 -14,-76 4,-76 19,0 19,-14 0,-30 -8,-7 -13,-16 -10,-20 3,-4 -2,-11 -11,-14 -8,-3 -12,-11 -9,-17 4,-5 0,-18 -9,-28 -15,-16 -15,-19 -1,-31 20,-16 19,-36 -1,-44 -15,-6 -15,-8 1,-25 10,-12 14,-27 10,-40 -8,-26 23,-43 66,-36 l 31,6 -8,-43 c -12,-68 -11,-93 6,-93 10,0 20,22 32,70 9,39 17,66 17,62 1,-5 7,-5 14,0 6,4 26,8 42,9 58,2 122,43 94,60 -9,5 -8,9 6,14 10,3 20,17 22,30 2,13 10,31 18,39 9,11 11,21 4,33 -7,12 -6,32 1,60 10,37 10,44 -6,55 -10,7 -14,13 -8,13 5,0 2,6 -7,13 -8,7 -18,20 -22,30 -7,18 -27,24 -27,7 0,-6 -9,-6 -22,-1 -47,17 -138,-9 -138,-39 0,-6 -7,-10 -15,-10 -8,0 -15,-7 -15,-15 0,-8 -7,-15 -15,-15 -18,0 -18,7 -3,82 11,55 14,58 43,59 16,1 34,1 39,0 5,-1 24,5 42,14 30,14 39,25 32,40 -2,2 5,10 14,17 9,7 18,23 20,35 3,20 16,16 240,-81 l 236,-102 -254,-385 c -140,-211 -260,-384 -267,-384 -8,0 -922,434 -2031,964 l -2018,965 33,27 c 36,29 49,29 49,0 0,-24 51,-63 120,-91 95,-38 101,-40 118,-40 25,0 102,-34 102,-45 1,-9 55,-47 108,-75 37,-19 144,-52 149,-46 7,7 78,-29 103,-52 36,-32 48,-40 101,-68 55,-27 103,-43 150,-49 33,-4 105,-41 112,-57 11,-30 257,-141 274,-124 8,8 86,-33 103,-54 33,-40 257,-143 287,-133 16,6 94,-35 120,-63 12,-13 29,-24 38,-24 8,0 15,-4 15,-9 0,-8 132,-75 150,-76 3,-1 22,-7 43,-14 21,-7 41,-11 43,-8 10,9 105,-40 120,-62 9,-12 21,-21 29,-21 7,0 20,-6 28,-14 16,-16 157,-89 157,-81 0,3 17,-2 38,-11 l 37,-15 33,38 c 19,21 65,75 104,121 l 71,82 29,222 c 16,122 27,231 24,242 -4,17 -218,113 -1073,485 -587,256 -1093,476 -1123,489 -49,22 -53,25 -37,37 16,11 31,7 110,-27 51,-22 754,-326 1562,-675 z m -261,626 c 14,-7 23,-16 20,-21 -3,-5 -3,-17 1,-26 6,-15 8,-15 16,3 9,18 9,18 5,-2 -5,-28 14,-31 21,-4 4,16 9,18 33,9 27,-9 28,-12 24,-64 -2,-30 0,-54 6,-54 5,0 7,7 4,15 -4,8 -1,15 6,15 7,0 10,-8 7,-20 -6,-22 8,-28 16,-7 4,9 6,9 6,-1 1,-7 -5,-15 -13,-18 -8,-3 -12,-12 -9,-20 3,-8 0,-14 -7,-14 -7,0 -10,8 -7,20 6,24 -8,27 -17,3 -5,-11 -1,-22 10,-30 16,-12 17,-13 1,-13 -10,0 -17,-8 -17,-19 0,-17 -3,-18 -30,-8 l -31,12 6,82 c 3,52 2,83 -4,83 -6,0 -8,-7 -5,-15 4,-8 1,-15 -6,-15 -7,0 -10,8 -7,20 3,11 1,20 -4,20 -14,0 -11,-48 4,-53 7,-3 5,-6 -5,-6 -13,-1 -17,-10 -15,-41 2,-48 -6,-57 -38,-42 -17,8 -25,20 -25,36 0,13 -6,27 -12,29 -8,3 -6,6 4,6 14,1 17,10 16,54 -1,47 7,97 17,97 2,0 15,-5 29,-11 z M 5855,3189 c 2,-41 5,-102 5,-136 0,-42 5,-63 13,-63 9,0 9,-2 0,-8 -11,-7 -11,-20 -4,-98 1,-11 43,-34 61,-34 15,0 12,50 -2,51 -10,0 -10,2 -1,5 7,3 10,11 8,17 -8,24 -13,319 -5,311 9,-10 25,-434 16,-434 -3,0 -26,10 -51,22 l -45,22 0,61 c 0,34 -3,131 -6,216 -4,85 -4,151 0,148 4,-4 9,-40 11,-80 z m 351,-185 c 4,-60 7,-149 8,-198 l 1,-90 33,-19 33,-19 -1,178 c -1,99 -1,190 1,204 5,54 17,-123 18,-273 l 1,-157 -48,24 -49,25 -6,107 c -8,125 -9,340 -2,333 2,-3 7,-54 11,-115 z m 364,-79 c 0,-14 6,-25 13,-25 8,0 9,-2 1,-8 -8,-5 -12,-64 -12,-178 l -1,-171 34,-16 c 19,-9 36,-13 38,-9 3,4 4,87 3,185 0,98 2,185 6,195 4,9 7,-85 7,-210 l 1,-227 -52,23 -53,23 -3,222 c -1,145 1,221 8,221 5,0 10,-11 10,-25 z m -1769,-52 c 1,-10 0,-30 -1,-45 -1,-19 5,-28 19,-33 12,-3 21,-13 21,-21 0,-20 -18,-18 -23,4 -3,9 -3,-19 0,-63 3,-44 7,-83 9,-87 2,-4 -6,-14 -18,-22 -21,-15 -23,-15 -30,3 -6,18 -15,83 -17,124 -1,12 -5,16 -13,11 -9,-6 -9,-3 1,9 8,10 10,24 6,34 -12,28 -5,76 13,90 23,17 32,16 33,-4 z m -79,-73 c 7,0 7,-4 0,-12 -6,-8 -7,-35 -1,-73 21,-150 20,-162 -6,-179 -24,-16 -25,-15 -25,4 0,11 -3,20 -7,20 -7,0 -12,57 -12,149 0,28 -3,32 -18,27 -14,-6 -16,-5 -5,5 6,7 12,23 12,35 0,29 43,63 48,39 2,-8 8,-15 14,-15 z m 910,-96 58,-29 -76,-59 c -41,-33 -77,-63 -80,-68 -3,-4 174,-97 394,-207 l 398,-199 79,69 c 43,38 81,69 85,69 14,0 287,-135 288,-142 1,-5 2,-60 2,-123 0,-70 4,-115 10,-115 6,0 10,48 10,125 l 0,125 163,-81 162,-81 -202,-201 -203,-201 0,-122 c 0,-88 4,-125 13,-132 10,-9 1046,-562 1580,-844 l 68,-36 142,186 c 249,326 226,287 243,398 24,163 13,150 94,109 39,-19 70,-37 70,-39 0,-14 -575,-760 -584,-758 -24,7 -3466,1865 -3466,1871 1,3 29,27 63,53 l 62,47 3,-38 3,-38 676,-359 c 371,-197 683,-359 693,-359 10,0 104,82 208,182 151,145 189,187 185,203 -10,37 -43,13 -43,-30 0,-15 -9,-35 -20,-45 -18,-16 -20,-16 -20,-2 0,10 -4,17 -9,17 -15,0 -33,-29 -28,-44 3,-8 -5,-24 -19,-37 -20,-19 -24,-20 -24,-6 0,9 -4,17 -10,17 -13,0 -33,-39 -26,-55 2,-7 -6,-23 -20,-36 -20,-19 -24,-20 -24,-6 0,9 -4,17 -8,17 -16,0 -32,-25 -32,-50 0,-15 -8,-35 -19,-44 -17,-16 -19,-16 -24,5 -3,11 -10,19 -14,16 -5,-3 -9,6 -10,21 -1,22 0,23 6,8 5,-14 10,-16 15,-7 10,16 -1,44 -14,36 -6,-4 -10,-3 -9,2 4,23 -2,43 -11,38 -6,-4 -7,-11 -4,-17 11,-17 6,-150 -6,-162 -7,-7 -10,26 -9,109 1,66 3,112 6,103 9,-35 43,-9 43,32 0,15 11,37 25,50 l 25,23 0,-21 c 0,-12 4,-22 10,-22 13,0 33,39 26,55 -2,7 6,23 20,36 20,19 24,20 24,6 0,-9 4,-17 8,-17 16,0 32,25 32,50 0,15 8,35 19,44 17,16 19,16 24,-5 3,-11 10,-19 14,-16 5,3 9,-6 10,-21 1,-22 0,-23 -6,-8 -5,14 -10,16 -15,7 -4,-6 -5,-19 -2,-28 5,-12 9,-13 20,-3 10,7 15,31 15,67 0,43 4,61 20,77 19,18 21,18 21,3 0,-9 4,-17 9,-17 17,0 32,29 29,57 -3,26 -14,18 -192,-150 -104,-97 -193,-177 -197,-177 -4,0 -290,147 -636,326 -345,179 -650,337 -676,350 l -48,25 207,158 208,159 70,-33 c 39,-17 97,-45 128,-61 z m 1319,-56 c 0,-68 -3,-158 -7,-200 l -5,-77 30,-15 c 47,-25 51,-21 50,42 -1,31 2,65 6,75 4,10 2,24 -5,32 -9,10 -9,15 -1,15 15,0 14,33 -1,48 -9,9 -9,12 0,12 7,0 12,11 12,25 0,14 -6,25 -12,25 -10,0 -10,2 0,9 8,4 13,19 12,32 -4,50 0,73 11,62 7,-7 8,-78 2,-230 l -8,-220 -55,24 -55,23 3,213 c 1,116 5,218 7,226 12,33 18,-6 16,-121 z m -842,-163 371,-180 -47,-43 c -27,-23 -62,-54 -80,-68 l -31,-25 -294,147 c -161,80 -294,147 -295,148 -1,1 -5,48 -9,105 -5,73 -4,103 4,100 6,-2 177,-85 381,-184 z m 1242,88 c 1,-16 1,-32 0,-37 -3,-16 -15,-241 -15,-295 -1,-52 1,-56 32,-74 18,-11 35,-17 38,-15 2,3 7,56 10,118 5,89 3,114 -7,121 -11,7 -10,9 4,9 20,0 23,30 5,48 -9,9 -9,12 1,12 7,0 12,11 11,28 -4,57 -1,77 11,65 9,-9 8,-68 -1,-230 -7,-120 -14,-220 -16,-222 -3,-3 -30,7 -60,23 l -56,27 6,92 c 3,51 9,152 12,225 4,72 10,132 15,132 5,0 10,-12 10,-27 z M 5040,2434 c 0,-13 9,-28 21,-34 17,-10 21,-8 26,9 4,17 8,18 29,9 15,-7 24,-20 24,-34 0,-13 4,-25 8,-28 5,-3 7,-19 4,-36 -2,-17 0,-30 7,-30 6,0 8,7 4,17 -4,11 -3,14 6,9 7,-5 10,-14 7,-22 -3,-8 -1,-14 4,-14 14,0 12,34 -2,48 -8,8 -9,12 -1,12 6,0 9,9 6,20 -3,11 -1,20 4,20 18,0 53,-32 53,-49 0,-18 18,-41 32,-41 4,0 8,9 8,20 0,19 2,20 29,6 28,-15 48,-66 35,-88 -3,-5 -3,-17 1,-26 7,-15 9,-60 6,-104 -2,-29 -51,-1 -51,28 0,25 -34,51 -45,34 -3,-5 -3,-14 0,-20 9,-15 -8,-12 -33,6 -12,8 -22,24 -22,34 0,10 -5,22 -12,26 -8,5 -9,2 -5,-9 3,-10 2,-17 -3,-17 -15,0 -12,26 4,40 21,16 2,59 -26,60 -11,0 -10,-38 1,-44 4,-3 6,-17 4,-30 -5,-25 -6,-25 -34,-10 -29,14 -34,31 -30,91 1,11 -2,24 -7,27 -5,3 -7,17 -4,32 4,24 -9,43 -30,44 -12,0 -9,-35 4,-48 9,-9 9,-12 0,-12 -17,0 -15,-26 4,-44 8,-9 11,-16 5,-16 -6,0 -11,-10 -11,-21 0,-17 -3,-19 -14,-10 -9,7 -16,44 -21,99 -3,48 -9,97 -12,110 -4,17 -2,21 11,16 9,-3 16,-17 16,-30 z m 2723,-45 c -4,-12 0,-25 8,-30 11,-6 11,-9 1,-9 -8,0 -13,-13 -12,-32 0,-18 -2,-49 -4,-68 -2,-19 -7,-75 -11,-125 -3,-49 -7,-99 -8,-110 -1,-13 9,-25 33,-36 19,-10 38,-14 42,-11 3,4 9,48 13,97 3,50 8,114 11,143 4,39 2,52 -8,52 -8,0 -9,3 -2,8 18,12 26,45 12,54 -10,6 -10,8 0,8 6,0 12,10 12,22 0,15 3,19 11,11 11,-11 -19,-423 -33,-446 -5,-8 -22,-4 -64,16 l -56,28 5,47 c 4,26 12,127 18,225 9,126 16,177 25,177 7,0 10,-8 7,-21 z m 788,-273 c -18,-132 -35,-224 -43,-234 -18,-22 -139,-163 -153,-180 -9,-10 -11,-7 -8,15 2,15 14,117 27,226 19,155 28,203 42,220 62,72 158,176 161,174 1,-2 -11,-101 -26,-221 z m -3111,109 c 0,-14 8,-29 19,-35 23,-12 34,0 25,24 -6,14 -3,14 25,-1 19,-11 31,-26 31,-38 0,-12 5,-26 12,-33 8,-8 8,-12 1,-12 -6,0 -8,-11 -5,-25 2,-14 8,-25 12,-25 5,0 6,9 3,20 -3,12 1,22 11,26 9,3 16,15 16,25 0,18 2,18 28,5 32,-16 31,-14 33,-106 2,-72 9,-93 20,-64 6,15 7,14 6,-8 -1,-15 -5,-24 -9,-22 -4,3 -8,-4 -8,-15 0,-24 -1,-25 -35,-9 -16,7 -25,19 -25,34 0,13 -5,26 -11,30 -8,5 -8,9 1,14 13,8 5,50 -10,50 -5,0 -6,-7 -3,-17 4,-11 3,-14 -6,-9 -7,5 -10,14 -7,22 3,8 1,14 -4,14 -14,0 -12,-34 2,-48 9,-9 9,-12 0,-12 -7,0 -12,-9 -12,-21 0,-20 -1,-20 -29,-3 -17,10 -28,22 -25,26 3,5 3,17 -1,26 -4,9 -7,39 -7,67 1,51 -10,75 -34,75 -19,0 -18,-19 3,-42 9,-11 11,-18 5,-18 -19,0 -14,-38 6,-49 16,-10 16,-10 0,-11 -10,0 -18,-7 -18,-15 0,-18 -2,-18 -33,-4 -18,8 -23,17 -19,32 3,13 -2,25 -13,33 -11,8 -13,14 -7,14 18,0 14,38 -5,49 -17,10 -17,10 0,11 16,0 17,6 11,51 l -7,51 32,-16 c 22,-12 31,-24 31,-41 z m 2755,-52 c -3,-27 -8,-73 -11,-103 -2,-30 -7,-68 -9,-85 -3,-16 -7,-61 -10,-99 -3,-38 -8,-73 -11,-77 -5,-8 75,-54 81,-47 2,2 6,26 9,53 4,28 9,63 12,78 3,17 0,34 -8,44 -7,9 -8,14 -2,10 15,-9 25,38 11,52 -8,8 -7,11 2,11 9,0 12,10 9,30 -3,17 -1,30 4,30 4,0 7,18 6,40 -1,37 14,71 26,59 3,-3 -7,-109 -21,-236 l -27,-231 -55,24 c -31,14 -60,29 -64,33 -7,7 28,413 39,449 2,6 8,12 14,12 6,0 8,-19 5,-47 z M 5750,2065 c 0,-14 8,-29 21,-35 17,-10 21,-8 26,9 5,19 7,19 34,5 18,-9 29,-23 30,-37 4,-98 2,-187 -3,-193 -4,-3 -17,1 -29,10 -23,16 -30,37 -29,94 0,17 -4,32 -9,32 -5,0 -7,-9 -4,-20 3,-12 -1,-22 -11,-26 -9,-3 -16,-15 -16,-25 0,-18 -2,-19 -30,-4 -19,10 -30,24 -31,38 -1,12 -2,48 -4,80 -1,31 -8,64 -15,72 -9,10 -9,15 -1,15 6,0 11,9 11,20 0,20 1,20 30,5 21,-11 30,-23 30,-40 z m 212,-108 c -3,-13 2,-25 13,-33 26,-19 35,-17 35,6 0,19 2,20 29,6 32,-17 39,-43 35,-121 -1,-34 3,-56 13,-67 10,-11 12,-18 5,-18 -7,0 -12,-9 -12,-20 0,-19 -1,-19 -33,-4 -25,12 -33,22 -32,41 0,14 -5,28 -12,30 -7,3 -9,-4 -6,-18 5,-16 3,-20 -6,-14 -7,4 -11,16 -8,26 3,11 1,19 -4,19 -5,0 -9,-9 -9,-20 0,-20 -1,-20 -30,-5 -16,9 -31,23 -31,33 -1,9 -3,45 -4,79 -1,34 -8,69 -15,78 -8,10 -9,15 -1,15 6,0 11,9 11,20 0,19 1,19 34,4 26,-13 32,-21 28,-37 z m 1411,-219 c -42,-43 -75,-79 -72,-82 9,-9 950,-476 958,-476 6,0 42,38 81,85 l 72,84 171,-85 c 95,-48 173,-88 175,-89 2,-2 -76,-104 -172,-228 l -175,-225 -832,431 -831,432 196,192 195,193 156,-77 155,-78 -77,-77 z m -1193,106 c 0,-13 5,-26 12,-30 8,-5 9,0 6,14 -4,13 -2,20 4,16 5,-3 8,-15 5,-25 -3,-12 0,-19 9,-19 8,0 14,9 14,20 0,20 1,20 30,5 20,-10 30,-23 30,-38 0,-13 5,-28 12,-35 9,-9 9,-12 0,-12 -14,0 -16,-36 -2,-45 6,-4 5,-13 -2,-25 -9,-14 -9,-23 -2,-30 8,-8 8,-18 0,-35 -10,-22 -12,-22 -38,-9 -30,15 -31,20 -29,126 1,47 -3,59 -19,68 -23,12 -35,-2 -25,-28 6,-15 8,-15 16,3 9,19 9,19 5,-2 -2,-12 -1,-24 3,-26 3,-2 0,-2 -7,-1 -18,5 -27,-23 -13,-40 9,-11 9,-16 1,-21 -7,-4 -10,-16 -7,-26 4,-15 2,-17 -11,-10 -52,29 -53,31 -55,147 l -3,112 33,-16 c 23,-11 33,-23 33,-38 z m 1705,-224 c 182,-89 372,-182 423,-206 l 93,-43 -71,-85 -72,-85 -400,200 -401,200 7,52 c 3,29 6,78 6,109 l 0,57 43,-18 c 23,-11 191,-92 372,-181 z m -1117,-59 c 9,-5 13,-29 13,-65 0,-45 4,-58 20,-66 15,-9 21,-7 25,5 4,8 1,22 -5,29 -9,11 -9,16 -1,21 7,4 10,16 7,26 -5,18 -3,17 34,-2 29,-14 39,-26 39,-44 0,-14 8,-29 21,-35 17,-10 21,-8 26,9 6,25 6,25 43,6 23,-12 30,-22 30,-45 0,-17 4,-30 9,-30 5,0 7,10 3,22 -4,15 -2,19 7,13 7,-4 11,-16 8,-26 -3,-12 0,-19 9,-19 8,0 14,9 14,20 0,19 1,19 35,3 28,-13 35,-23 35,-45 0,-15 4,-28 9,-28 5,0 7,10 3,22 -3,14 -1,19 6,14 16,-10 11,-55 -5,-49 -18,7 -28,-24 -14,-41 9,-10 9,-16 1,-21 -6,-4 -10,-16 -9,-28 1,-12 1,-35 1,-50 l -2,-28 -39,23 c -29,16 -37,27 -33,41 3,12 -2,25 -13,33 -17,13 -17,14 -2,14 19,0 24,35 6,46 -7,4 -8,9 -1,13 15,9 19,43 5,48 -7,3 -9,-3 -6,-18 5,-16 3,-20 -6,-14 -7,4 -11,16 -8,26 3,12 0,19 -9,19 -17,0 -18,-32 -2,-48 9,-9 9,-12 0,-12 -14,0 -16,-36 -2,-45 6,-4 5,-14 -3,-28 -6,-12 -13,-23 -14,-25 0,-2 -15,4 -32,13 -21,10 -31,23 -31,38 0,25 -17,47 -37,47 -7,0 -13,-9 -13,-20 0,-19 -1,-19 -36,-3 -28,14 -34,21 -30,40 4,12 2,25 -4,28 -6,4 -5,13 2,25 13,21 -3,50 -28,50 -17,0 -18,-32 -2,-48 9,-9 9,-12 0,-12 -7,0 -12,-7 -12,-16 0,-9 -7,-14 -17,-12 -16,3 -18,18 -21,121 -1,64 1,117 5,117 4,0 14,-4 21,-9 z m 515,-274 c 9,-8 17,-21 17,-30 0,-24 -28,-10 -33,16 -2,12 -4,-3 -4,-33 0,-30 -4,-63 -8,-73 -8,-19 0,-47 13,-47 4,0 7,13 6,29 -1,24 1,28 17,24 22,-6 27,25 7,45 -9,9 -9,12 0,12 7,0 12,11 12,25 l 0,26 39,-23 c 27,-16 37,-27 33,-40 -2,-10 1,-25 8,-33 9,-10 9,-15 1,-15 -21,0 -12,-47 12,-59 l 22,-11 -23,6 c -21,5 -23,3 -21,-23 2,-15 0,-34 -5,-41 -4,-7 -5,-20 -2,-28 4,-11 -4,-9 -34,6 -29,15 -40,27 -40,43 0,25 -17,47 -37,47 -7,0 -13,-9 -13,-20 0,-20 0,-20 -39,-1 -32,17 -38,24 -34,46 3,14 1,25 -6,25 -5,0 -8,-7 -5,-15 4,-9 0,-15 -10,-15 -9,0 -16,7 -16,15 0,8 5,15 11,15 5,0 7,4 4,10 -3,6 1,7 10,4 12,-5 16,1 16,27 0,19 1,49 3,67 2,17 4,41 5,52 l 1,20 38,-20 c 20,-11 45,-26 55,-33 z m 250,-130 c 9,-8 17,-21 17,-30 0,-24 -28,-10 -33,16 -2,13 -4,8 -5,-13 -1,-19 -2,-44 -4,-54 -2,-10 2,-21 9,-23 7,-3 9,3 6,16 -3,13 -1,21 7,21 8,0 11,-9 8,-25 -4,-17 -1,-25 8,-25 17,0 18,32 2,48 -9,9 -9,12 0,12 7,0 12,12 12,26 l 0,25 40,-22 c 32,-18 40,-28 40,-50 0,-16 8,-33 18,-39 15,-10 15,-10 -3,-8 -17,3 -20,-3 -22,-46 -1,-27 3,-56 9,-63 9,-11 8,-13 -3,-11 -8,2 -15,-7 -17,-20 l -3,-22 -38,21 c -30,16 -37,26 -33,42 3,13 -2,25 -13,33 -26,19 -35,17 -35,-6 0,-24 0,-24 -45,-3 -29,14 -36,22 -32,40 2,13 0,26 -5,29 -5,3 -5,11 0,17 12,17 13,99 1,113 -6,8 -5,14 6,18 8,3 15,12 15,21 0,13 6,12 38,-5 20,-11 45,-26 55,-33 z m 235,-144 c -2,-14 2,-28 9,-30 7,-3 9,3 6,16 -3,12 -1,21 4,21 18,0 22,-12 12,-31 -7,-15 -6,-19 6,-19 8,0 15,9 15,20 0,25 5,25 47,-1 28,-17 34,-27 30,-46 -3,-16 2,-27 14,-33 27,-15 39,-12 39,10 0,25 2,25 48,0 53,-28 72,-45 72,-63 0,-21 -27,-11 -33,11 -3,12 -4,12 -4,-3 0,-11 -4,-28 -8,-39 -10,-22 5,-50 29,-54 28,-6 32,29 5,51 -24,19 -24,20 -1,13 18,-6 22,-4 22,13 0,26 14,26 55,1 25,-16 32,-25 27,-42 -3,-14 1,-26 13,-34 27,-20 45,-17 45,6 0,24 2,24 43,4 41,-21 77,-54 77,-70 0,-19 -28,-6 -33,14 -3,12 -4,12 -4,-3 0,-11 -4,-28 -8,-39 -10,-24 6,-51 31,-51 21,0 27,36 7,42 -7,3 -9,-3 -6,-17 4,-16 2,-19 -11,-14 -18,7 -21,20 -6,29 6,4 8,10 5,15 -3,4 3,6 14,3 12,-3 20,2 24,16 6,23 14,26 36,12 13,-8 13,-25 2,-123 -8,-62 -16,-116 -18,-120 -2,-4 -14,-1 -27,7 -17,11 -22,22 -19,39 4,18 -1,28 -18,37 -13,6 -24,8 -26,3 -12,-34 -21,-37 -55,-17 -32,19 -33,21 -30,78 1,39 -2,61 -10,67 -24,14 -38,8 -38,-17 0,-14 4,-25 9,-25 5,0 7,9 4,20 -4,16 -2,19 11,14 18,-7 22,-34 5,-34 -5,0 -7,-4 -4,-10 3,-6 -1,-7 -10,-4 -11,5 -18,0 -22,-15 -6,-25 -4,-25 -47,-5 -27,14 -35,24 -38,51 -2,19 0,36 4,39 16,10 8,43 -13,55 -17,9 -23,8 -30,-2 -13,-21 -11,-26 14,-44 l 22,-17 -22,7 c -19,5 -23,2 -23,-14 0,-25 0,-25 -44,-4 -27,13 -36,23 -38,47 -2,17 1,38 6,47 10,18 2,49 -13,49 -5,0 -7,-9 -4,-20 3,-12 0,-20 -7,-20 -8,0 -11,9 -8,25 3,14 1,25 -4,25 -15,0 -21,-30 -8,-45 9,-10 9,-15 1,-15 -6,0 -11,-9 -11,-20 0,-24 0,-24 -45,-3 -28,13 -35,23 -35,44 0,16 -8,33 -17,39 -17,10 -16,10 2,8 17,-3 20,4 22,51 3,54 -5,70 -34,71 -22,0 -15,-46 10,-59 21,-10 21,-11 1,-6 -25,6 -40,-20 -24,-40 8,-9 8,-15 0,-20 -5,-3 -10,-15 -10,-25 0,-17 -2,-17 -40,3 -31,17 -39,27 -36,41 3,11 0,26 -6,33 -7,9 -7,13 1,13 6,0 11,11 11,25 0,14 -4,25 -10,25 -5,0 -7,-7 -4,-15 4,-9 0,-15 -10,-15 -9,0 -16,7 -16,15 0,8 5,15 11,15 5,0 7,4 4,10 -3,5 0,7 8,4 16,-6 31,32 16,42 -5,3 -9,-2 -9,-10 0,-9 -4,-16 -10,-16 -17,0 -11,25 10,38 11,7 20,21 20,32 0,20 0,20 40,0 34,-17 40,-25 38,-47 z"
       id="path8"
       style="stroke:#ff0000;opacity:0"
       inkscape:connector-curvature="0" />
    <path class = "svgGgeen"
       d="m 3919,4908 c -13,-18 -29,-36 -36,-41 -7,-4 -10,-14 -6,-22 3,-9 0,-22 -6,-29 -8,-9 -8,-16 -2,-20 6,-4 8,-13 5,-20 -3,-7 2,-19 11,-26 12,-10 13,-16 3,-27 -10,-12 -9,-18 5,-28 9,-7 17,-19 17,-28 0,-20 28,-36 56,-31 19,3 22,-3 27,-48 7,-53 18,-75 35,-64 5,3 6,26 1,57 -10,61 -7,68 26,65 33,-4 51,20 54,73 1,25 4,48 7,52 2,4 -2,13 -9,21 -17,17 -27,56 -16,60 5,2 -8,22 -30,46 -34,36 -45,42 -80,42 -33,0 -43,-5 -62,-32 z"
       id="path10"
       style="stroke:#ff0000"
       inkscape:connector-curvature="0" />
    <path class = "svgGgeen"
       d="m 5257,4472 c -47,-28 -80,-55 -83,-68 -6,-23 11,-252 19,-260 17,-17 1200,-503 1210,-497 7,4 45,31 85,61 l 72,54 0,138 c 0,98 -4,140 -12,147 -17,13 -1185,473 -1201,473 -7,0 -47,-21 -90,-48 z m 682,-203 c 322,-127 587,-232 589,-234 2,-1 -28,-26 -67,-53 l -70,-51 -583,235 c -321,130 -589,238 -596,241 -8,3 17,24 60,49 40,24 75,44 77,44 1,0 267,-104 590,-231 z m -714,90 c 4,-16 7,-50 7,-74 0,-51 7,-57 26,-18 14,32 16,63 3,63 -5,0 -7,8 -4,19 3,12 11,17 23,14 22,-6 28,-38 35,-167 4,-77 3,-87 -11,-82 -9,3 -19,6 -22,6 -6,0 -11,51 -12,125 l 0,30 -15,-29 c -17,-33 -22,-72 -5,-46 6,9 10,10 10,3 0,-6 -5,-15 -11,-19 -6,-3 -9,-17 -6,-30 3,-20 1,-22 -14,-14 -19,11 -25,40 -35,173 -6,77 -4,87 9,81 9,-3 19,-19 22,-35 z"
       id="path12"
       style="stroke:#ff0000"
       inkscape:connector-curvature="0" />
    <path class = "svgGgeen"
       d="m 8422,3264 c -79,-75 -147,-145 -152,-155 -6,-10 -16,-66 -22,-125 -11,-97 -10,-108 5,-119 10,-7 81,-39 158,-71 l 142,-58 52,60 c 31,35 50,65 47,74 -4,12 -2,12 9,-1 8,-9 177,-83 376,-164 199,-82 368,-152 374,-156 9,-5 9,-25 -4,-86 -8,-43 -14,-79 -14,-79 1,-1 79,-34 174,-74 163,-68 202,-77 189,-43 -3,8 -2,12 3,9 5,-3 48,46 97,110 70,92 89,123 90,152 2,39 7,65 19,95 7,17 -9,25 -19,9 -5,-9 -17,-63 -20,-94 -1,-10 -5,-21 -9,-24 -4,-4 -7,-18 -7,-30 0,-13 -5,-26 -11,-30 -9,-5 -10,1 -4,22 4,16 9,38 11,49 2,11 6,31 8,45 3,14 9,40 15,59 6,19 9,36 7,38 -2,2 -36,-39 -75,-90 l -73,-93 -156,63 c -85,35 -158,65 -160,68 -3,2 19,32 48,65 29,33 51,62 49,64 -8,8 -860,346 -871,346 -7,0 -38,-25 -69,-56 l -56,-55 -143,57 -144,58 139,133 c 76,73 143,133 149,133 12,0 1438,-551 1448,-559 4,-4 -13,-32 -37,-63 -28,-36 -42,-63 -39,-73 9,-22 34,0 34,31 0,12 5,26 10,29 12,7 3,-69 -12,-97 -4,-9 -7,-21 -6,-25 1,-4 -4,-26 -10,-47 -6,-22 -10,-42 -8,-44 2,-2 15,12 29,30 26,34 83,257 69,269 -4,4 -335,134 -737,289 -401,155 -735,284 -741,287 -5,2 -74,-58 -152,-133 z m -58,-205 c 23,-11 25,-16 22,-68 -2,-31 -7,-64 -11,-74 -4,-9 -2,-24 5,-32 9,-10 9,-15 1,-15 -6,0 -11,-9 -11,-21 0,-16 -4,-19 -17,-14 -10,4 -25,9 -33,12 -11,3 -15,19 -14,63 0,33 4,63 7,67 21,21 -9,63 -34,47 -5,-3 -9,0 -9,6 0,8 9,10 24,6 19,-5 26,-1 31,14 7,23 7,23 39,9 z m 428,-6 c 9,-3 18,-17 20,-32 2,-18 9,-26 23,-26 12,0 20,6 19,16 -1,15 2,15 36,2 27,-11 36,-20 33,-32 -5,-20 21,-46 37,-36 6,4 9,14 6,22 -5,11 -1,13 17,7 40,-12 51,-22 52,-46 0,-16 7,-24 23,-26 16,-3 22,2 22,15 0,15 -2,16 -10,3 -5,-8 -12,-11 -17,-7 -17,18 22,24 64,10 37,-13 42,-17 31,-30 -10,-12 -9,-18 7,-29 28,-20 38,-17 33,10 l -5,24 41,-18 c 32,-13 40,-22 38,-38 -3,-24 32,-50 43,-32 4,6 4,17 1,25 -4,11 4,11 39,-3 36,-13 42,-19 35,-32 -10,-18 5,-40 27,-40 12,0 18,13 14,34 -1,5 6,5 16,1 10,-4 31,-12 46,-17 21,-8 25,-13 15,-19 -10,-7 -11,-12 0,-29 15,-24 16,-33 2,-25 -6,3 -15,-6 -20,-21 -6,-14 -19,-38 -30,-52 -11,-13 -20,-35 -20,-47 0,-34 -38,-21 -42,14 -2,18 -9,26 -23,26 -12,0 -20,-6 -19,-16 1,-15 -2,-15 -37,-1 -32,12 -38,19 -33,37 4,15 0,24 -11,29 -20,7 -35,0 -35,-19 0,-11 -7,-11 -40,2 -33,13 -38,19 -29,34 7,14 5,21 -10,29 -27,14 -31,13 -31,-10 0,-23 2,-23 -38,-9 -23,8 -32,18 -34,37 -2,19 -9,27 -23,27 -12,0 -20,-6 -19,-16 1,-15 -2,-15 -36,-2 -27,11 -36,20 -33,32 5,20 -21,46 -37,36 -6,-4 -9,-13 -6,-21 7,-17 6,-17 -35,0 -24,10 -34,21 -34,38 0,16 -6,23 -20,23 -12,0 -20,-6 -19,-16 1,-15 -2,-15 -37,-1 -25,9 -36,19 -32,28 6,15 -13,44 -28,44 -5,0 -9,-10 -9,-22 0,-12 -3,-19 -6,-15 -4,3 -4,18 0,32 6,22 9,24 26,15 16,-9 22,-7 27,6 7,18 -23,48 -38,38 -17,-10 -9,13 11,31 11,10 20,13 20,7 0,-7 -6,-12 -12,-12 -9,0 -8,-3 2,-9 17,-12 30,-5 30,14 0,8 -11,17 -25,21 -16,4 -25,13 -25,26 0,18 1,18 16,3 20,-19 40,-14 37,9 -1,12 4,15 15,11 10,-4 25,-9 34,-12 z m -312,-43 c 8,-5 15,-19 15,-31 0,-12 5,-24 12,-26 7,-3 9,4 6,18 -5,16 -3,20 6,14 7,-4 11,-16 8,-26 -3,-11 -1,-19 4,-19 5,0 9,9 9,20 0,12 7,20 16,20 13,0 15,-7 11,-32 -3,-18 -9,-60 -12,-93 -8,-72 -14,-95 -25,-95 -11,0 -19,60 -8,66 4,3 7,18 6,32 -1,15 2,33 6,40 9,15 -10,42 -30,42 -17,0 -18,-32 -2,-48 9,-9 8,-12 -5,-12 -12,0 -17,-8 -17,-27 0,-69 -1,-71 -35,-58 -21,10 -32,22 -36,44 -4,17 -3,34 2,37 14,8 11,44 -3,44 -7,0 -5,5 5,11 9,5 17,16 17,24 0,8 -8,19 -17,24 -17,10 -17,10 0,11 9,0 17,7 17,15 0,17 27,20 50,5 z m 1095,-444 c 27,-12 32,-18 28,-36 -4,-13 0,-26 8,-31 23,-15 39,-10 39,11 0,24 1,24 44,6 28,-12 33,-18 29,-40 -4,-21 -1,-26 21,-32 18,-4 26,-12 25,-28 -1,-15 -3,-16 -6,-4 -5,18 -30,31 -44,22 -19,-11 -9,-44 16,-50 14,-3 25,-13 25,-21 0,-12 -2,-12 -16,1 -20,20 -44,21 -44,1 0,-8 0,-18 -1,-22 0,-4 4,-9 9,-11 6,-2 8,6 5,18 -4,16 -2,19 11,14 12,-5 13,-10 5,-27 -10,-17 -9,-19 5,-14 10,4 16,1 16,-8 0,-12 -5,-13 -26,-3 -25,12 -36,6 -47,-26 -1,-5 -18,-1 -36,8 -22,12 -31,22 -27,33 7,18 -10,43 -29,43 -6,0 -16,-9 -21,-19 -8,-18 -12,-19 -42,-6 -26,12 -32,19 -27,34 3,11 1,22 -5,26 -7,5 -5,11 7,20 14,11 16,18 7,32 -9,14 -8,21 5,30 13,10 14,15 3,32 -10,18 -10,21 3,21 8,0 15,9 15,20 0,24 1,24 45,6 z"
       id="path14"
       style="stroke:#ff0000"
       inkscape:connector-curvature="0" />
    <path class = "svgGgeen"
       d="m 8708,1850 -117,-140 -3,-62 -3,-62 205,-98 c 113,-54 210,-96 215,-94 6,2 9,14 7,27 -1,16 1,20 6,11 6,-9 39,27 109,117 89,114 102,136 109,183 5,29 8,57 9,61 0,5 -408,197 -419,197 -1,0 -54,-63 -118,-140 z m 315,28 c 100,-45 185,-84 189,-87 4,-3 -15,-35 -42,-70 -28,-35 -47,-68 -43,-74 3,-5 2,-7 -4,-4 -6,4 -31,-21 -57,-54 -26,-33 -51,-59 -55,-57 -4,2 -94,43 -199,92 l -190,89 101,123 c 56,67 105,123 110,123 4,1 89,-36 190,-81 z"
       id="path16"
       style="stroke:#ff0000"
       inkscape:connector-curvature="0" />
    <path class = "svgGgeen"
       d="m 11040,6502 -22,-17 31,-159 c 35,-183 42,-195 129,-220 151,-42 1426,-328 1486,-333 l 68,-6 87,90 c 47,49 113,119 145,156 l 59,68 -23,24 c -13,13 -37,29 -54,35 -82,27 -1783,380 -1830,380 -37,0 -61,-6 -76,-18 z m 1005,-188 c 457,-97 832,-177 833,-179 2,-2 -7,-18 -19,-35 -17,-22 -29,-30 -44,-26 -11,3 -391,85 -845,182 -454,98 -827,179 -830,181 -6,5 52,52 65,53 6,0 384,-79 840,-176 z m -41,-80 c 473,-103 885,-187 913,-188 29,0 53,-4 53,-7 0,-13 -32,-19 -92,-19 -49,0 -59,3 -54,15 4,12 2,13 -12,4 -13,-8 -192,27 -782,156 -421,91 -795,173 -832,181 -45,10 -68,20 -68,30 0,8 3,14 6,14 4,0 394,-84 868,-186 z m -17,-45 c 441,-96 799,-177 795,-181 -8,-8 -1594,336 -1627,352 -18,9 -18,10 5,7 14,-2 386,-82 827,-178 z m -31,-24 c 438,-96 799,-177 802,-180 3,-3 1,-10 -5,-16 -7,-7 -239,40 -789,161 -429,94 -789,175 -801,180 -23,9 -32,30 -14,30 6,0 368,-79 807,-175 z m -12,-45 c 424,-94 772,-173 775,-175 2,-3 2,-7 0,-9 -5,-4 -1560,342 -1567,349 -12,12 58,-3 792,-165 z m -4,-30 c 399,-88 736,-165 750,-171 14,-5 55,-11 92,-12 71,-2 80,-11 22,-22 -48,-9 -116,3 -107,18 5,9 3,9 -8,1 -11,-9 -185,27 -764,157 -412,93 -753,169 -757,169 -5,0 -8,7 -8,16 0,13 6,15 28,11 15,-3 353,-78 752,-167 z m -32,-40 c 652,-146 783,-177 744,-179 -17,-1 -1428,316 -1462,328 -66,24 55,-1 718,-149 z m 5,-32 c 573,-128 726,-166 722,-177 -4,-10 -2,-11 7,-4 7,5 41,7 78,3 56,-5 61,-7 37,-14 -16,-5 -56,-6 -90,-3 -56,4 -1469,321 -1489,333 -10,6 -11,24 0,25 4,0 334,-73 735,-163 z m 209,-95 c 263,-59 478,-112 478,-116 0,-5 -8,-6 -17,-3 -10,2 -330,76 -710,163 -381,86 -693,160 -693,164 0,3 105,-18 233,-47 127,-29 447,-101 709,-161 z"
       id="path18"
       style="stroke:#ff0000"
       inkscape:connector-curvature="0" />
    <path class = "svgGgeen"
       d="m 11433,5867 c -31,-32 -44,-57 -55,-104 -12,-49 -13,-65 -3,-73 6,-5 137,-41 291,-79 l 279,-70 36,39 c 25,27 42,60 56,110 l 21,71 -21,10 c -12,5 -139,36 -282,69 -143,33 -265,62 -271,64 -6,3 -29,-14 -51,-37 z m 592,-136 c -4,-46 -27,-120 -41,-132 -8,-6 -14,-10 -14,-8 0,12 30,101 40,119 10,19 10,20 -8,9 -16,-10 -65,-1 -283,50 -145,34 -270,64 -278,67 -11,3 -9,10 8,27 l 21,23 278,-65 c 278,-64 279,-65 277,-90 z"
       id="path20"
       style="stroke:#ff0000"
       inkscape:connector-curvature="0" />
    <path class = "svgPink"
       d="m 10016,5381 c -49,-43 -92,-85 -96,-92 -4,-8 -15,-58 -25,-111 -12,-72 -21,-99 -33,-103 -10,-2 -26,-18 -37,-34 -11,-17 -27,-32 -37,-34 -10,-3 -18,-14 -18,-26 0,-12 -5,-21 -11,-21 -6,0 -9,-6 -6,-14 3,-7 1,-18 -5,-24 -8,-8 -8,-15 0,-25 7,-8 9,-17 5,-20 -11,-12 -10,-82 1,-89 6,-4 22,-8 34,-8 22,0 23,-3 17,-42 -4,-24 -8,-47 -9,-53 0,-5 6,-10 14,-10 10,0 18,16 24,50 11,57 15,61 66,69 35,5 57,27 45,46 -3,4 2,11 11,14 8,3 13,10 9,15 -3,5 -1,12 4,15 5,3 8,22 7,42 -1,20 2,38 6,40 4,3 39,-4 77,-16 38,-11 75,-18 82,-15 8,3 33,0 56,-7 l 43,-13 -15,-29 c -8,-15 -13,-32 -10,-36 3,-5 1,-11 -5,-15 -7,-4 -7,-12 0,-25 6,-12 6,-21 1,-25 -11,-6 -9,-64 2,-83 5,-7 19,-10 33,-8 25,5 25,4 18,-37 -11,-65 -10,-72 6,-72 10,0 17,16 23,52 7,45 12,53 38,62 16,5 29,8 29,5 0,-3 13,4 30,16 16,12 29,24 28,28 -1,4 2,16 6,27 4,11 12,32 18,48 6,15 13,27 17,27 3,0 157,-44 341,-98 305,-88 335,-99 332,-117 -3,-11 -11,-24 -18,-28 -8,-5 -11,-13 -8,-19 4,-6 1,-14 -6,-18 -9,-6 -9,-13 -1,-28 8,-15 7,-23 -5,-33 -10,-8 -11,-16 -5,-22 6,-6 7,-16 1,-27 -12,-22 12,-45 35,-36 22,8 28,-15 15,-63 -6,-23 -8,-46 -5,-52 12,-19 32,10 44,66 9,39 17,55 29,56 51,4 64,8 82,24 10,9 18,20 18,24 -1,3 8,26 20,50 12,24 19,48 15,54 -10,16 58,-1 78,-19 9,-8 83,-35 163,-58 133,-40 146,-42 159,-27 7,9 42,56 76,104 55,76 68,104 102,215 41,136 45,157 29,167 -6,4 -72,24 -148,44 l -137,38 -23,-20 -22,-21 -157,42 c -86,23 -158,44 -161,46 -2,3 2,30 9,61 7,33 9,59 3,64 -5,5 -80,28 -167,50 -88,23 -199,53 -249,66 l -90,24 -53,-49 c -28,-28 -56,-50 -61,-50 -5,0 -80,19 -167,42 -133,36 -157,46 -154,60 3,10 0,22 -7,27 -11,9 -230,71 -251,71 -6,0 -51,-35 -99,-79 z m 179,40 c 39,-11 88,-24 111,-30 23,-6 41,-17 41,-25 0,-8 -6,-12 -13,-9 -6,2 -15,0 -18,-6 -4,-5 2,-12 11,-15 81,-25 357,-96 372,-96 11,0 39,22 63,50 l 43,49 243,-64 c 134,-36 246,-65 249,-65 3,0 -15,-24 -41,-54 -25,-30 -43,-57 -39,-59 16,-9 385,-107 403,-107 11,0 25,8 31,18 11,18 18,17 138,-15 69,-19 132,-36 140,-39 10,-3 6,-13 -13,-39 -15,-19 -24,-40 -20,-47 4,-6 3,-8 -4,-4 -6,3 -25,-14 -43,-39 -18,-25 -35,-45 -38,-45 -24,-1 -281,77 -281,85 0,12 -1281,369 -1330,370 -19,0 -84,14 -143,30 l -109,30 79,72 c 43,40 83,73 88,73 6,0 42,-9 80,-19 z m -195,-155 c 25,-8 44,-18 44,-22 -1,-5 -5,-27 -9,-48 -6,-37 -6,-39 12,-26 10,8 7,2 -6,-12 -13,-15 -21,-34 -18,-42 4,-9 2,-18 -4,-22 -5,-3 -9,-13 -7,-22 1,-10 -1,-23 -6,-30 -10,-17 0,-44 16,-41 7,1 21,-1 32,-6 20,-9 41,14 26,29 -5,5 -3,15 6,23 18,18 8,36 -16,30 -11,-3 -21,1 -24,9 -4,10 2,12 24,7 17,-3 30,-2 31,3 2,21 6,52 13,92 8,41 10,43 34,37 15,-4 29,-9 31,-11 6,-6 -39,-247 -48,-256 -4,-4 -35,0 -70,10 -50,14 -66,24 -79,47 -10,17 -20,32 -24,33 -5,2 -8,10 -8,18 0,8 -10,14 -26,14 -25,0 -26,2 -20,33 4,17 12,62 18,100 6,37 16,67 22,67 6,0 31,-7 56,-14 z m 235,-62 c -11,-11 -13,-20 -6,-27 6,-6 5,-15 -5,-25 -10,-10 -12,-18 -5,-25 6,-6 5,-15 -5,-25 -10,-10 -12,-18 -5,-25 6,-6 5,-15 -5,-25 -10,-10 -12,-18 -5,-25 6,-6 5,-15 -5,-24 -11,-12 -12,-18 -3,-29 15,-18 43,2 34,24 -3,8 -1,20 3,26 5,6 10,18 10,26 1,8 4,26 7,40 11,51 17,86 18,102 1,13 7,16 27,11 37,-9 42,-13 30,-28 -7,-8 -9,-19 -5,-25 4,-6 1,-17 -5,-25 -6,-8 -9,-19 -5,-25 4,-6 2,-16 -3,-23 -5,-7 -10,-19 -11,-27 -3,-37 -8,-60 -14,-66 -4,-4 -7,-18 -7,-31 0,-22 -3,-24 -32,-18 -62,14 -80,24 -74,43 5,17 46,229 46,238 0,2 9,4 21,4 19,0 19,-1 4,-16 z m 335,-78 c 25,-8 40,-15 34,-15 -7,-1 -14,-16 -18,-33 -3,-18 -8,-44 -11,-58 -3,-14 -7,-32 -9,-40 -2,-8 -7,-23 -11,-33 -4,-10 -5,-21 -1,-24 3,-3 1,-12 -5,-19 -6,-8 -9,-21 -5,-29 7,-18 36,-20 37,-2 0,6 3,21 5,32 5,18 9,40 18,85 2,8 7,23 11,33 4,10 5,21 1,24 -3,3 -1,12 5,19 6,8 9,21 5,29 -4,12 0,14 22,9 40,-10 40,-10 30,-60 -8,-37 -7,-48 3,-55 11,-7 11,-9 -2,-9 -17,0 -32,-24 -22,-34 4,-3 14,-6 23,-6 23,0 48,128 28,143 -9,6 -7,7 7,2 11,-3 32,-9 48,-12 22,-4 25,-8 16,-19 -6,-8 -9,-20 -6,-29 4,-8 1,-17 -4,-21 -6,-3 -9,-15 -6,-25 3,-10 2,-21 -3,-24 -4,-3 -11,-22 -15,-42 -5,-21 -10,-42 -11,-48 -10,-32 -7,-50 9,-53 22,-4 35,27 16,39 -11,7 -10,9 5,9 14,0 17,6 14,25 -3,14 -1,25 4,25 5,0 8,10 7,23 -2,12 0,28 5,35 4,7 5,19 2,27 -3,8 -1,15 4,15 6,0 10,11 10,24 l 0,24 78,-20 c 42,-12 78,-21 79,-22 1,-1 -19,-99 -28,-136 -3,-10 3,-15 16,-15 25,0 46,72 24,86 -11,7 -10,9 5,9 14,0 17,6 14,23 -4,23 -3,23 39,13 26,-5 39,-13 32,-17 -7,-4 -13,-15 -14,-26 -1,-10 -6,-26 -10,-36 -4,-10 -5,-21 -1,-24 3,-3 1,-12 -5,-19 -6,-8 -9,-20 -6,-28 3,-7 1,-18 -4,-23 -9,-9 -18,-39 -22,-73 -1,-8 6,-16 16,-18 22,-4 35,27 16,39 -11,7 -10,9 5,9 14,0 17,6 14,25 -3,14 -1,25 5,25 5,0 7,10 5,23 -2,13 2,29 9,36 7,7 11,17 7,22 -3,5 0,16 6,24 7,8 10,22 6,30 -4,12 0,14 22,9 15,-4 36,-11 47,-15 17,-7 17,-8 3,-8 -21,-1 -25,-37 -5,-44 7,-3 4,-6 -7,-6 -14,-1 -17,-7 -14,-24 2,-13 -2,-29 -9,-36 -7,-7 -11,-17 -7,-22 3,-5 0,-16 -6,-24 -7,-8 -10,-21 -7,-30 4,-8 2,-17 -3,-20 -15,-10 -12,-45 4,-45 21,0 32,23 40,80 1,9 6,21 10,28 4,7 5,19 2,27 -3,8 -1,17 3,20 9,5 26,73 22,89 -1,5 8,6 21,2 13,-3 29,-6 35,-6 14,0 8,-50 -9,-84 -7,-13 -6,-21 3,-27 11,-7 10,-9 -3,-9 -21,0 -25,-36 -5,-43 7,-3 4,-6 -7,-6 -14,-1 -17,-7 -14,-24 3,-15 -5,-32 -23,-51 l -28,-30 -358,104 c -197,57 -360,105 -362,107 -2,1 4,12 14,23 10,11 21,18 24,15 3,-4 -1,-10 -9,-15 -12,-8 -12,-10 4,-10 14,0 17,6 14,23 -2,13 2,29 10,36 9,9 10,17 3,24 -6,6 -5,15 5,25 10,10 12,18 5,25 -6,6 -5,15 5,24 11,11 12,19 4,28 -8,9 -6,14 5,19 18,7 20,32 3,39 -26,11 -1,6 42,-7 z m 872,-242 c 25,-5 26,-8 12,-21 -8,-9 -13,-22 -10,-29 3,-7 1,-16 -3,-19 -7,-4 -16,-33 -25,-85 -1,-3 -5,-11 -10,-18 -4,-7 -5,-19 -2,-27 3,-8 1,-17 -4,-20 -19,-12 -11,-45 11,-45 17,0 20,5 17,25 -3,14 -2,25 2,25 15,0 21,33 8,42 -9,5 -8,8 6,8 14,0 17,6 14,25 -3,13 -1,26 3,27 5,2 10,13 12,25 2,12 6,26 10,29 4,4 7,14 7,23 -1,13 -3,12 -15,-3 -12,-16 -15,-17 -15,-4 0,9 7,19 16,22 27,10 36,7 29,-11 -4,-10 -22,-71 -41,-137 -18,-65 -34,-120 -36,-122 -2,-1 -23,2 -46,8 -37,9 -40,12 -31,30 6,12 7,24 1,31 -10,13 -9,33 2,86 6,24 4,36 -5,42 -11,7 -11,9 2,9 22,0 34,31 17,42 -9,5 -8,8 6,8 14,0 17,6 14,25 -4,20 -2,24 11,21 9,-3 28,-8 43,-12 z m 146,-59 c 2,-2 -1,-12 -7,-24 -9,-16 -8,-22 8,-30 10,-6 21,-7 25,-4 11,11 7,43 -6,43 -6,0 -9,2 -7,5 3,2 18,0 35,-4 18,-6 22,-10 10,-10 -14,-1 -17,-7 -14,-25 5,-25 -16,-44 -27,-26 -10,16 -35,12 -42,-6 -3,-9 0,-20 8,-25 11,-7 10,-9 -5,-9 -14,0 -17,-6 -14,-24 3,-16 0,-27 -9,-30 -8,-3 -13,-14 -12,-23 2,-10 -3,-28 -9,-41 -11,-19 -10,-23 3,-28 25,-10 40,13 49,76 1,9 4,20 8,25 3,6 8,23 12,39 6,23 10,26 16,16 5,-9 5,-19 -1,-26 -10,-12 -19,-41 -23,-76 -1,-10 -5,-21 -9,-24 -12,-12 -8,-42 7,-47 8,-3 17,-3 20,0 11,11 6,43 -6,44 -7,0 -3,4 10,9 24,10 30,35 10,43 -8,3 -5,6 6,6 14,1 17,7 14,24 -2,13 2,29 9,36 8,7 12,19 9,27 -3,7 -1,16 4,19 6,4 10,15 10,26 0,15 5,19 18,15 9,-3 37,-10 62,-16 25,-7 48,-14 51,-16 5,-3 -56,-229 -74,-275 -1,-3 -66,12 -143,35 l -141,41 34,125 c 19,69 36,131 38,138 4,10 14,12 37,7 18,-4 34,-9 36,-10 z"
       id="path22"
       style="stroke:#ff0000"
       inkscape:connector-curvature="0" />
    <path class = "svgGgeen"
       d="M 685,5060 C 442,5021 202,4939 55,4845 L 0,4809 0,4601 0,4393 381,4175 c 447,-255 449,-256 699,-256 449,-1 925,184 1087,422 60,89 58,173 -7,246 -30,33 -103,71 -483,252 -363,171 -463,215 -524,227 -102,19 -330,17 -468,-6 z"
       id="path24"
       style="stroke:#ff0000"
       inkscape:connector-curvature="0" />
    <path class = "svgGgeen"
       d="m 8871,4802 c -34,-12 -117,-112 -112,-135 0,-4 -3,-17 -9,-27 -7,-14 -7,-20 0,-20 5,0 10,-9 10,-20 0,-11 -5,-20 -10,-20 -7,0 -7,-6 0,-19 5,-11 10,-29 10,-40 0,-21 5,-23 48,-24 19,0 22,-4 17,-31 -11,-70 -10,-81 5,-81 10,0 18,17 24,55 5,30 10,56 11,58 2,2 15,5 31,8 32,6 75,30 72,42 0,4 1,14 5,22 18,49 24,79 17,90 -4,7 -4,25 0,40 13,44 -27,102 -71,105 -19,1 -40,0 -48,-3 z"
       id="path26"
       style="stroke:#ff0000"
       inkscape:connector-curvature="0" />
    <path class = "svgGgeen"
       d="m 9000,4478 -255,-231 -13,-105 c -8,-57 -10,-108 -5,-113 8,-8 345,-129 360,-129 4,0 83,75 175,167 l 168,168 218,-73 c 119,-39 220,-72 224,-72 4,0 40,37 80,83 l 73,82 19,98 c 10,56 15,102 10,107 -10,10 -768,250 -787,250 -7,-1 -127,-105 -267,-232 z m 646,96 c 203,-64 372,-119 376,-122 4,-4 -19,-36 -50,-70 l -57,-64 -223,72 -224,73 -51,-49 c -29,-27 -106,-102 -172,-166 l -120,-118 -168,58 c -93,32 -168,62 -169,66 0,9 471,436 482,436 4,0 173,-52 376,-116 z"
       id="path28"
       style="stroke:#ff0000"
       inkscape:connector-curvature="0" />
    <path class = "svgPink"
       d="m 10751,4578 c -28,-26 -51,-55 -51,-63 0,-8 -3,-15 -7,-15 -16,0 -31,-48 -19,-60 7,-7 7,-16 -2,-31 -10,-15 -10,-24 -2,-34 23,-27 -12,-26 -111,5 -55,17 -106,30 -113,28 -7,-2 -40,-34 -74,-71 -51,-57 -63,-76 -72,-125 -7,-31 -22,-102 -35,-157 -17,-74 -20,-103 -11,-111 6,-7 70,-31 141,-54 72,-23 134,-46 139,-51 6,-5 3,-16 -6,-26 -19,-22 -93,-342 -82,-353 5,-4 72,-29 148,-56 l 139,-48 21,25 c 12,13 96,126 187,249 l 166,225 42,157 c 23,87 40,162 37,166 -3,5 -97,37 -210,72 -113,35 -203,66 -201,69 3,2 18,5 34,6 30,1 82,30 79,43 -1,8 18,59 32,84 5,10 7,23 4,31 -2,7 0,25 5,39 7,19 5,32 -10,57 -10,17 -19,34 -19,39 0,4 -22,7 -49,8 -45,0 -53,-3 -100,-48 z m 52,-294 c 188,-59 346,-110 350,-114 5,-4 -69,-109 -164,-233 l -173,-225 -133,46 c -73,25 -132,49 -131,53 2,5 59,76 127,160 79,97 119,154 112,158 -6,4 -110,38 -230,76 l -219,69 51,58 c 27,32 54,58 59,58 5,0 163,-48 351,-106 z m -472,-194 c 5,0 9,-12 9,-26 0,-22 4,-25 28,-22 15,2 26,8 25,15 -2,9 5,9 26,2 22,-8 28,-15 24,-30 -3,-10 -1,-19 3,-19 5,0 19,-3 32,-6 16,-5 22,-2 22,11 0,12 5,15 16,11 9,-3 20,-6 25,-6 5,0 9,-11 9,-25 0,-20 5,-25 24,-25 13,0 26,6 29,14 6,16 47,10 47,-6 0,-13 -51,-78 -61,-78 -5,0 -7,11 -3,24 4,19 1,26 -15,31 -26,8 -44,-3 -37,-22 5,-11 2,-13 -10,-9 -9,3 -27,9 -40,12 -23,6 -23,7 -7,19 20,15 11,31 -22,37 -15,2 -20,-2 -19,-18 0,-19 -3,-19 -37,-10 -33,8 -36,12 -25,28 9,15 8,21 -4,28 -24,16 -40,11 -40,-10 0,-21 -16,-26 -38,-11 -20,12 -5,104 15,97 8,-3 19,-6 24,-6 z m 195,-476 c 15,-4 20,-12 17,-28 -4,-18 1,-25 18,-29 26,-7 39,-1 39,18 0,11 6,12 29,4 20,-7 27,-15 24,-28 -3,-11 4,-21 22,-29 24,-11 27,-10 32,8 3,11 7,20 10,20 4,0 43,-19 50,-24 5,-4 -24,-87 -30,-87 -4,0 -21,2 -38,6 -28,6 -29,8 -12,21 17,13 17,15 -1,29 -11,8 -24,15 -28,15 -16,0 -21,-32 -7,-42 12,-8 11,-9 -1,-4 -8,2 -32,10 -52,17 -34,11 -36,13 -20,26 16,12 16,14 -2,28 -11,8 -26,15 -33,15 -14,0 -18,-35 -5,-43 4,-2 0,-2 -8,1 -8,2 -25,7 -38,10 -15,3 -21,10 -18,21 2,9 7,31 11,49 7,34 8,35 41,26 z"
       id="path30"
       style="stroke:#ff0000"
       inkscape:connector-curvature="0" />
    <path  class = "svgGgeen"
       d="m 8421,4329 c -28,-29 -52,-59 -53,-68 -3,-32 -4,-36 -12,-49 -4,-7 -2,-19 5,-28 9,-11 9,-18 1,-26 -8,-8 -8,-17 -1,-30 6,-11 8,-26 5,-33 -7,-20 18,-36 49,-31 l 27,5 -6,-59 c -5,-38 -3,-61 4,-65 17,-11 23,0 31,61 4,31 9,57 11,59 2,2 17,5 33,8 40,7 65,17 66,28 2,12 4,21 11,39 22,57 27,84 18,95 -6,8 -7,21 -2,36 10,25 2,47 -32,87 -15,16 -30,22 -61,22 -37,0 -48,-6 -94,-51 z"
       id="path32"
       style="stroke:#ff0000"
       inkscape:connector-curvature="0" />
    <path class = "svgGgeen"
       d="m 11444,4257 c -11,-5 -31,-22 -45,-37 -14,-15 -31,-29 -38,-31 -19,-7 -75,-113 -62,-117 16,-5 13,-32 -4,-38 -10,-4 -12,-11 -5,-23 5,-10 7,-27 4,-38 -6,-23 13,-34 46,-28 24,5 25,-4 5,-67 -8,-29 -10,-50 -4,-53 16,-10 26,3 37,47 15,57 31,77 67,82 57,7 85,31 68,58 -3,7 -1,8 5,4 10,-6 27,20 37,57 2,4 4,8 5,10 3,3 11,77 12,111 0,15 -4,31 -9,35 -5,3 -13,15 -17,26 -5,11 -10,15 -13,9 -2,-8 -15,-9 -37,-4 -19,4 -42,3 -52,-3 z"
       id="path34"
       style="stroke:#ff0000"
       inkscape:connector-curvature="0" />
    <path  class = "svgGgeen"
       d="m 9347,4106 c -20,-20 -33,-36 -29,-36 4,0 -4,-6 -18,-13 -14,-7 -24,-20 -22,-29 1,-9 -4,-18 -13,-21 -8,-4 -12,-13 -9,-21 3,-8 0,-17 -6,-21 -8,-5 -7,-12 5,-25 14,-15 14,-19 0,-30 -10,-9 -12,-17 -5,-30 6,-10 7,-25 4,-34 -7,-18 26,-37 56,-31 23,4 23,5 6,-110 0,-5 6,-10 14,-10 10,0 19,20 28,63 12,52 17,62 35,64 12,0 27,2 33,2 16,2 66,37 61,43 -3,2 1,21 10,41 8,19 16,64 18,99 2,51 -1,68 -18,90 -11,16 -22,29 -23,31 -1,1 -22,5 -46,8 -42,5 -48,3 -81,-30 z"
       id="path36"
       style="stroke:#ff0000"
       inkscape:connector-curvature="0" />
    <path  class = "svgGgeen" 
       d="m 9610,3843 c -148,-155 -141,-145 -156,-224 -8,-41 -12,-80 -9,-89 6,-17 560,-222 579,-214 6,3 49,52 96,109 88,106 107,147 112,240 l 3,40 -280,97 c -154,54 -282,98 -285,98 -3,0 -30,-26 -60,-57 z m 337,-59 c 145,-49 263,-92 263,-97 0,-10 -151,-187 -160,-187 -8,0 -544,191 -549,196 -7,6 163,182 174,180 6,-2 128,-43 272,-92 z"
       id="path38"
       style="stroke:#ff0000"
       inkscape:connector-curvature="0" />
    <path  class = "svgPink"
       d="m 0,3801 c 0,-50 18,-84 41,-78 13,4 25,-2 35,-19 10,-14 26,-24 39,-24 13,0 30,-11 39,-25 9,-14 21,-23 26,-20 14,9 38,-5 43,-26 3,-12 14,-19 30,-19 15,0 31,-9 41,-25 9,-14 22,-22 30,-19 8,3 25,-6 37,-19 13,-14 36,-27 52,-31 15,-3 27,-13 27,-21 0,-14 11,-19 37,-16 7,1 20,-10 29,-24 9,-14 26,-25 39,-25 13,0 30,-11 40,-26 10,-16 22,-23 31,-20 9,3 26,-5 40,-21 14,-15 34,-27 46,-28 11,-1 29,-13 39,-26 10,-13 24,-24 31,-25 32,-3 37,-5 43,-24 4,-13 15,-20 30,-20 24,0 55,-23 55,-41 0,-5 11,-9 24,-9 24,0 56,-23 56,-41 0,-5 11,-9 24,-9 24,0 56,-23 56,-41 0,-5 11,-9 24,-9 24,0 56,-23 56,-41 0,-5 9,-9 21,-9 27,0 61,-19 54,-30 -7,-11 10,-21 42,-25 15,-1 35,-14 45,-28 11,-15 25,-24 33,-21 8,3 26,-7 41,-23 14,-15 31,-28 38,-29 28,-1 52,-16 61,-36 6,-14 17,-22 28,-20 9,2 27,-4 39,-13 13,-8 19,-15 14,-15 -5,0 -3,-7 4,-15 7,-9 19,-14 27,-11 21,8 44,-5 54,-30 6,-17 16,-24 34,-24 16,0 37,-12 54,-30 15,-17 34,-28 42,-26 17,6 43,-12 52,-36 3,-10 16,-18 27,-18 30,0 60,-18 60,-35 0,-16 1,-16 36,-20 21,-2 77,-35 60,-35 -5,0 -3,-7 4,-15 7,-9 19,-14 27,-11 17,7 65,-23 58,-35 -6,-9 30,-31 38,-23 8,8 67,-28 62,-37 -7,-10 23,-32 34,-24 13,7 63,-24 56,-36 -7,-10 26,-28 42,-22 15,5 64,-27 58,-38 -6,-9 30,-31 38,-23 8,8 67,-28 62,-37 -7,-10 23,-32 34,-25 14,9 69,-27 64,-41 -3,-7 1,-14 9,-15 54,-6 79,-18 88,-44 7,-17 17,-24 35,-24 29,0 77,-28 70,-40 -7,-11 22,-33 35,-25 14,9 68,-25 73,-47 3,-10 14,-18 27,-18 27,0 82,-28 75,-39 -7,-12 22,-34 35,-26 14,9 64,-23 76,-49 5,-12 17,-20 26,-18 20,3 83,-27 74,-35 -11,-12 17,-33 43,-33 29,0 65,-26 74,-52 4,-11 15,-17 29,-16 30,2 74,-27 81,-54 4,-15 11,-19 26,-15 24,6 81,-27 81,-47 0,-15 34,-31 47,-23 5,3 24,-6 43,-19 19,-13 30,-24 26,-24 -5,0 -1,-9 8,-19 10,-11 24,-17 31,-15 19,8 75,-24 75,-41 0,-17 30,-34 47,-28 16,6 75,-36 68,-47 -7,-11 32,-33 45,-25 10,6 68,-26 66,-36 -3,-16 37,-46 54,-42 22,6 80,-32 80,-52 0,-14 27,-28 40,-20 13,8 71,-30 84,-57 8,-15 20,-22 35,-21 12,2 39,-8 59,-22 20,-14 33,-25 28,-25 -5,0 -1,-9 8,-19 10,-11 24,-17 31,-14 20,7 94,-37 88,-53 -5,-14 30,-37 41,-27 11,11 95,-39 89,-53 -5,-14 31,-37 41,-27 11,11 95,-39 89,-53 -5,-15 26,-33 45,-27 16,6 95,-45 87,-56 -8,-13 23,-34 40,-27 20,7 95,-39 95,-59 0,-18 36,-39 45,-26 8,13 93,-41 88,-56 -6,-14 33,-36 48,-28 14,9 89,-42 89,-60 0,-17 36,-39 51,-30 14,9 101,-44 93,-56 -9,-14 27,-39 48,-33 21,6 98,-41 98,-61 0,-17 29,-34 47,-28 18,6 104,-47 96,-59 -9,-15 24,-37 47,-31 23,6 88,-37 104,-69 8,-16 20,-23 42,-23 16,-1 43,-10 60,-22 24,-17 45,-22 102,-22 l 71,0 -26,29 c -14,16 -30,27 -34,24 -13,-8 -65,23 -104,62 -19,19 -40,32 -45,29 -12,-8 -89,41 -114,72 -10,13 -24,22 -31,19 -16,-6 -71,27 -109,65 -16,17 -34,28 -40,26 -15,-5 -86,41 -110,70 -10,13 -24,22 -31,19 -15,-6 -92,42 -118,73 -10,12 -22,19 -27,16 -11,-7 -90,41 -108,67 -7,10 -21,18 -30,18 -23,0 -82,37 -105,66 -10,13 -23,22 -28,19 -13,-8 -91,40 -107,65 -7,12 -19,20 -26,17 -16,-6 -83,34 -102,62 -8,11 -24,21 -36,21 -22,0 -76,35 -96,62 -7,10 -21,18 -30,18 -22,0 -83,38 -100,61 -7,11 -21,19 -30,19 -22,0 -83,38 -100,62 -8,10 -19,17 -25,15 -14,-5 -62,26 -95,61 -12,13 -26,20 -32,17 -11,-7 -86,41 -94,61 -3,8 -13,14 -23,14 -23,0 -84,37 -101,62 -8,10 -19,18 -25,17 -20,-4 -66,23 -82,48 -9,13 -25,23 -39,23 -13,0 -43,18 -68,40 -25,21 -48,37 -51,34 -7,-7 -58,24 -77,48 -8,10 -25,20 -36,22 -24,5 -94,46 -79,46 12,1 -25,23 -43,26 -20,3 -65,35 -80,56 -7,10 -17,16 -22,13 -12,-7 -59,23 -83,53 -10,12 -23,20 -28,16 -12,-7 -75,31 -82,50 -3,7 -19,16 -35,19 -16,3 -42,20 -58,36 -16,17 -39,31 -51,31 -12,0 -35,14 -52,31 -17,16 -39,32 -50,34 -26,5 -68,33 -74,49 -3,7 -19,16 -36,19 -18,4 -42,17 -54,30 -12,13 -34,27 -48,30 -15,4 -39,20 -55,36 -16,15 -42,31 -57,35 -15,4 -37,18 -49,31 -12,14 -30,25 -39,25 -10,0 -34,14 -52,30 -19,17 -41,30 -49,30 -8,0 -27,11 -42,25 -15,14 -43,32 -63,40 -42,18 -84,60 -78,78 8,18 -76,108 -152,165 -55,40 -1050,654 -1225,756 -69,40 -105,48 -139,31 -39,-21 -53,-19 -80,10 -13,13 -31,25 -40,25 -9,0 -27,11 -40,25 -13,13 -31,25 -40,25 -8,0 -26,11 -39,25 -12,13 -26,22 -31,20 -4,-3 -21,6 -37,20 -16,14 -35,25 -40,25 -6,0 -23,11 -39,24 -15,13 -38,26 -50,30 -11,4 -24,13 -27,21 -3,8 -14,15 -24,15 -10,0 -29,11 -42,25 -12,13 -26,22 -31,20 -4,-3 -21,6 -37,20 -16,14 -34,25 -39,25 -6,0 -20,9 -33,20 -13,11 -28,20 -35,20 -6,0 -22,10 -35,22 -13,12 -30,23 -38,24 -8,2 -24,12 -36,23 -30,28 -36,26 -36,-8 z m 960,-515 c 68,-33 190,-107 190,-116 0,-4 -7,-13 -15,-20 -8,-7 -12,-16 -9,-21 3,-5 -34,16 -83,46 -48,31 -112,67 -140,82 -37,18 -53,31 -53,45 0,17 4,19 33,13 17,-4 52,-17 77,-29 z m 528,-319 c 11,-9 10,-12 -2,-19 -9,-5 -16,-16 -16,-24 0,-11 -4,-12 -17,-4 -10,6 -61,38 -113,70 -52,33 -116,73 -142,88 -49,28 -61,54 -32,70 12,7 53,-13 163,-81 80,-49 152,-94 159,-100 z m 187,-113 c 77,-47 150,-92 163,-100 22,-14 22,-15 5,-38 l -18,-24 -35,20 c -135,80 -300,187 -300,196 0,12 22,32 35,32 6,0 73,-39 150,-86 z m 383,-234 c 92,-55 174,-104 181,-109 12,-8 11,-13 -10,-30 -13,-11 -29,-20 -36,-21 -6,0 -54,28 -105,63 -52,34 -124,80 -161,102 -36,22 -66,47 -67,56 0,13 18,39 27,39 2,0 79,-45 171,-100 z"
       id="path40"
       style="stroke:#ff0000"
       inkscape:connector-curvature="0" />
    <path  class = "svgGgeen" 
       d="m 11071,3651 c -9,-9 -35,-31 -59,-49 -23,-19 -42,-40 -42,-48 0,-8 -5,-14 -11,-14 -6,0 -9,-8 -7,-17 2,-10 -3,-24 -12,-31 -11,-10 -12,-15 -2,-18 17,-8 15,-29 -3,-44 -11,-9 -12,-16 -4,-26 6,-7 8,-22 4,-33 -7,-24 10,-36 47,-33 32,3 33,1 13,-64 -14,-47 -8,-73 13,-60 6,3 15,29 22,56 15,62 32,80 73,80 39,0 80,26 73,46 -3,8 -1,14 5,14 8,0 31,41 33,62 1,3 4,10 8,14 4,4 5,17 2,28 -3,12 0,35 6,50 8,21 7,32 -1,42 -6,8 -8,14 -3,14 5,0 1,5 -8,11 -10,5 -18,17 -18,25 0,21 -107,17 -129,-5 z"
       id="path42"
       style="stroke:#ff0000"
       inkscape:connector-curvature="0" />
    <path class = "svgPink"
       d="m 0,3575 c 0,-21 6,-37 16,-43 9,-5 15,-13 15,-18 -1,-5 9,-10 23,-12 13,-2 31,-14 40,-26 8,-13 28,-26 45,-29 18,-4 31,-13 31,-22 0,-14 11,-19 37,-16 7,1 20,-10 29,-24 10,-15 26,-25 40,-25 16,0 28,-8 36,-25 7,-15 20,-25 32,-25 26,0 41,-10 49,-34 5,-11 13,-16 23,-12 9,3 25,-1 37,-9 12,-8 18,-15 13,-15 -5,0 -3,-7 4,-15 7,-9 19,-13 27,-11 8,3 26,-7 40,-22 14,-15 30,-26 35,-24 14,4 49,-18 43,-28 -6,-10 29,-32 38,-24 3,3 16,-1 29,-10 12,-9 19,-16 14,-16 -5,0 -3,-7 4,-15 7,-9 20,-13 27,-10 8,3 24,-2 36,-10 12,-8 18,-15 13,-15 -5,0 -3,-7 4,-15 7,-9 20,-13 29,-11 19,6 44,-12 54,-38 5,-11 13,-16 23,-12 9,4 25,-5 42,-23 15,-16 38,-31 51,-33 13,-1 29,-12 35,-23 14,-25 28,-35 38,-29 12,8 48,-15 48,-31 0,-8 3,-15 8,-16 4,0 18,-2 31,-3 13,-2 33,-15 43,-29 12,-16 29,-27 43,-27 15,0 32,-11 45,-30 13,-18 26,-27 35,-23 9,3 26,-8 42,-26 15,-17 37,-31 50,-31 13,0 30,-12 43,-31 14,-18 28,-28 37,-25 16,7 65,-22 58,-34 -6,-10 20,-32 28,-23 11,10 55,-18 60,-38 3,-11 14,-19 25,-19 34,0 53,-11 63,-37 7,-18 15,-24 28,-20 11,2 32,-4 48,-14 15,-10 24,-19 19,-19 -5,0 -3,-7 4,-15 7,-9 19,-14 25,-11 7,2 25,-4 41,-15 16,-10 25,-19 20,-19 -5,0 -3,-7 4,-15 7,-9 20,-15 29,-14 27,3 52,-12 62,-38 7,-18 15,-24 28,-20 11,2 32,-4 48,-14 15,-10 24,-19 19,-19 -5,0 -1,-9 8,-19 10,-11 24,-17 31,-15 18,7 55,-13 55,-31 0,-17 14,-26 47,-30 16,-1 38,-16 53,-35 15,-19 32,-30 38,-26 15,9 59,-20 65,-44 3,-14 14,-20 31,-20 30,0 79,-28 71,-40 -7,-11 22,-33 34,-26 13,8 65,-25 69,-44 4,-18 23,-31 35,-23 15,9 59,-20 68,-44 6,-16 16,-22 31,-21 25,2 81,-30 73,-42 -7,-11 22,-33 35,-25 14,9 64,-23 76,-49 5,-12 17,-20 29,-19 28,2 75,-28 75,-49 0,-10 6,-19 13,-19 6,-1 19,-3 27,-3 30,-3 71,-30 66,-43 -6,-15 29,-37 44,-28 13,8 70,-32 70,-50 0,-15 27,-28 41,-20 13,8 77,-38 72,-52 -4,-11 27,-26 43,-21 13,4 74,-34 68,-43 -7,-12 26,-39 41,-33 17,7 88,-34 80,-46 -7,-12 23,-33 38,-27 19,7 66,-25 81,-54 8,-16 21,-24 37,-24 31,-1 82,-32 74,-45 -7,-12 34,-40 51,-33 18,7 86,-36 78,-49 -8,-13 28,-38 41,-28 12,9 88,-37 80,-49 -7,-12 20,-33 37,-29 23,5 88,-35 88,-54 0,-16 28,-32 46,-26 16,5 82,-42 87,-62 3,-14 14,-20 32,-20 30,0 88,-38 93,-60 5,-19 23,-31 40,-25 18,7 93,-37 88,-52 -7,-16 21,-36 40,-29 19,7 82,-35 98,-66 8,-15 20,-22 34,-21 23,3 107,-45 97,-55 -10,-11 27,-40 44,-35 21,5 91,-36 91,-53 0,-18 35,-45 46,-35 11,12 94,-36 94,-53 0,-20 35,-47 46,-36 6,6 27,-2 58,-21 26,-17 45,-33 42,-36 -11,-11 26,-44 38,-34 13,11 110,-44 102,-58 -8,-13 29,-42 46,-36 8,3 31,-4 51,-15 20,-12 44,-20 54,-18 13,3 5,12 -30,32 -32,19 -45,32 -38,39 13,13 103,-43 96,-60 -3,-9 9,-13 40,-13 25,0 45,4 45,9 0,13 -25,31 -50,36 -30,6 -69,31 -102,67 -16,16 -32,26 -38,23 -11,-7 -113,59 -104,68 4,3 -6,11 -22,18 -65,25 -116,55 -130,77 -8,12 -22,22 -30,22 -25,0 -93,41 -109,67 -9,13 -25,23 -36,23 -24,0 -76,34 -103,68 -10,13 -24,21 -31,18 -15,-5 -83,39 -108,71 -10,12 -23,20 -30,18 -7,-3 -32,8 -57,25 -25,16 -41,30 -35,30 5,0 0,7 -12,15 -12,9 -26,14 -30,13 -4,-1 -28,10 -53,25 -25,15 -41,27 -36,27 5,0 3,7 -4,15 -7,8 -21,15 -31,15 -24,0 -77,32 -95,59 -8,11 -22,21 -31,21 -22,0 -84,40 -106,67 -10,13 -22,21 -27,18 -12,-7 -79,34 -91,56 -5,11 -17,19 -27,19 -22,0 -83,37 -99,60 -7,10 -26,20 -42,23 -16,3 -45,22 -64,42 -19,19 -44,35 -55,35 -12,0 -37,16 -57,36 -20,19 -45,37 -57,39 -26,5 -69,33 -85,55 -7,10 -25,20 -41,23 -16,3 -44,22 -62,41 -19,19 -37,33 -42,30 -12,-7 -70,31 -86,55 -7,12 -23,21 -37,21 -14,0 -37,14 -58,35 -19,19 -43,35 -55,35 -12,0 -36,16 -55,35 -19,19 -43,35 -55,35 -12,0 -36,15 -54,34 -18,18 -46,36 -61,40 -16,4 -41,20 -55,35 -15,16 -40,31 -55,35 -16,4 -40,19 -54,34 -14,15 -30,27 -37,27 -19,1 -60,27 -79,52 -10,13 -23,21 -28,18 -10,-7 -59,23 -77,47 -7,10 -22,18 -32,18 -10,0 -32,14 -49,31 -17,16 -40,32 -52,34 -24,5 -48,22 -67,48 -7,9 -22,17 -32,17 -11,0 -35,14 -53,30 -19,17 -42,30 -50,30 -9,0 -29,14 -46,31 -17,16 -40,32 -52,34 -24,5 -48,22 -67,48 -7,9 -22,17 -33,17 -11,0 -32,13 -47,29 -15,15 -40,31 -55,35 -15,4 -37,18 -49,31 -12,14 -29,25 -39,25 -9,0 -30,14 -47,31 -17,17 -35,28 -40,25 -6,-3 -24,8 -41,25 -27,27 -42,34 -72,38 -4,1 -19,13 -34,29 -15,15 -31,28 -36,28 -5,1 -14,2 -19,3 -6,0 -20,12 -32,26 -12,14 -29,25 -39,25 -9,0 -30,14 -46,30 -15,17 -36,30 -46,30 -10,0 -28,11 -41,25 -13,14 -30,25 -39,25 -9,0 -32,14 -50,30 -19,17 -41,30 -49,30 -8,0 -25,11 -38,25 -13,14 -29,25 -36,25 -7,0 -27,12 -45,27 -17,15 -39,28 -47,29 -8,2 -27,14 -41,28 -15,14 -34,26 -42,26 -9,0 -24,9 -35,21 -10,12 -36,28 -56,36 -20,8 -39,21 -42,29 -3,8 -12,14 -20,14 -8,0 -27,11 -43,24 -15,13 -38,26 -51,30 -12,4 -27,16 -32,27 -6,10 -20,19 -31,19 -11,0 -30,11 -43,25 -13,14 -30,25 -39,25 -8,0 -28,13 -43,29 -15,16 -33,27 -39,25 -7,-3 -23,6 -36,20 -13,14 -29,26 -36,26 -6,0 -24,10 -40,23 -15,12 -41,28 -56,35 -15,6 -30,19 -33,27 -4,8 -14,15 -25,15 -10,0 -28,10 -39,23 -12,12 -24,22 -28,22 -20,2 -52,18 -52,26 0,6 -14,15 -30,21 -17,5 -35,19 -41,29 -5,10 -19,19 -29,19 -11,0 -28,9 -37,20 -10,11 -23,20 -29,20 -7,0 -26,11 -42,25 -40,34 -52,31 -52,-10 z"
       id="path44"
       style="stroke:#ff0000"
       inkscape:connector-curvature="0" />
    <path  class = "svgGgeen"
       d="m 3492,2632 c -13,-2 -26,-11 -29,-20 -4,-9 -19,-32 -34,-51 -16,-19 -26,-38 -23,-43 3,-5 1,-15 -6,-23 -8,-9 -8,-15 0,-20 6,-4 8,-15 5,-24 -3,-10 1,-24 10,-31 10,-9 14,-22 11,-36 -5,-17 0,-26 15,-34 12,-7 18,-18 15,-26 -7,-18 40,-42 76,-39 30,4 33,-2 44,-71 7,-50 18,-66 39,-58 9,4 9,18 -1,62 -15,63 -9,76 34,77 42,1 75,23 69,46 -3,10 -1,21 3,24 12,7 -1,86 -18,113 -8,12 -11,22 -6,22 4,0 3,5 -3,11 -6,6 -9,17 -6,25 4,11 -18,37 -74,84 -17,14 -73,20 -121,12 z"
       id="path46"
       style="stroke:#ff0000"
       inkscape:connector-curvature="0" />
    <path  class = "svgGgeen"
       d="m 4553,2063 c -13,-3 -23,-10 -23,-17 0,-7 -16,-27 -35,-46 -19,-19 -35,-41 -35,-50 0,-9 -5,-21 -12,-28 -9,-9 -9,-15 -1,-23 6,-6 9,-18 6,-27 -4,-8 2,-21 13,-29 15,-11 16,-17 7,-32 -9,-14 -8,-21 8,-34 10,-9 19,-25 19,-35 0,-26 43,-44 74,-32 29,11 33,3 42,-76 7,-57 13,-67 36,-59 11,5 12,17 4,66 -11,68 -3,81 45,75 17,-2 38,5 55,19 24,19 26,25 16,38 -10,12 -10,16 -1,19 16,5 19,89 3,108 -7,8 -11,30 -10,47 2,33 2,33 -84,106 -14,12 -84,17 -127,10 z"
       id="path48"
       style="stroke:#ff0000"
       inkscape:connector-curvature="0" />
    <path class = "svgGgeen"
       d="m 5653,1453 c -12,-2 -25,-13 -28,-23 -3,-10 -12,-21 -20,-24 -8,-3 -15,-12 -15,-21 0,-8 -7,-15 -15,-15 -16,0 -38,-34 -28,-44 4,-3 -2,-12 -12,-20 -12,-9 -15,-15 -6,-20 6,-4 8,-18 5,-30 -4,-16 0,-25 10,-29 19,-8 21,-33 4,-40 -9,-3 -7,-11 8,-28 12,-13 20,-29 17,-36 -6,-16 27,-32 73,-35 l 39,-3 5,-65 c 4,-56 8,-65 24,-65 18,0 19,7 17,67 -3,72 2,79 52,80 39,1 87,24 87,41 0,7 -6,19 -12,26 -11,10 -10,12 2,9 8,-2 15,5 16,17 2,11 5,31 8,44 3,13 -2,37 -10,53 -9,17 -13,40 -10,52 5,21 -18,53 -70,96 -18,14 -99,22 -141,13 z"
       id="path50"
       style="stroke:#ff0000"
       inkscape:connector-curvature="0" />
    <path  class = "svgGgeen"
       d="m 6855,729 c -16,-5 -41,-25 -55,-44 -14,-19 -30,-35 -36,-35 -14,0 -31,-20 -36,-40 -2,-8 -10,-20 -18,-26 -11,-9 -12,-15 -2,-26 8,-10 8,-18 2,-24 -7,-7 -4,-18 10,-34 19,-22 19,-24 2,-36 -16,-13 -16,-15 1,-28 9,-7 17,-25 17,-39 0,-30 20,-38 80,-34 l 35,2 0,-70 c 1,-63 3,-70 20,-70 18,0 21,9 25,75 3,41 8,74 13,73 4,-2 8,-2 10,-2 1,1 18,2 37,4 77,5 107,24 94,59 -3,7 2,16 10,19 9,4 13,12 10,20 -2,7 0,26 6,41 8,21 7,32 -4,48 -10,14 -12,28 -5,51 8,27 6,35 -10,48 -11,9 -17,19 -14,23 4,3 1,6 -5,6 -7,0 -22,10 -33,21 -24,24 -101,33 -154,18 z"
       id="path52"
       style="stroke:#ff0000"
       inkscape:connector-curvature="0" />
  </g>
  <g
     inkscape:groupmode="layer"
     id="layer1"
     inkscape:label="bioFarm"
     style="display:inline" />
  <g
     inkscape:groupmode="layer"
     id="layer2"
     inkscape:label="parkovka" />
  <g
     inkscape:groupmode="layer"
     id="layer3"
     inkscape:label="lk" />
</svg>
